<?xml version="1.0" encoding="UTF-8"?>
<svg id="Layer_1" xmlns="http://www.w3.org/2000/svg" xmlns:xlink="http://www.w3.org/1999/xlink" version="1.1" viewBox="0 0 154 60">
  <!-- Generator: Adobe Illustrator 29.4.0, SVG Export Plug-In . SVG Version: 2.1.0 Build 152)  -->
  <defs>
    <style>
      .st0 {
        fill: url(#linear-gradient2);
      }

      .st1 {
        fill: url(#linear-gradient1);
      }

      .st2 {
        fill: url(#linear-gradient9);
      }

      .st3 {
        fill: url(#linear-gradient3);
      }

      .st4 {
        fill: url(#linear-gradient6);
      }

      .st5 {
        fill: url(#linear-gradient8);
      }

      .st6 {
        fill: url(#linear-gradient7);
      }

      .st7 {
        fill: url(#linear-gradient5);
      }

      .st8 {
        fill: url(#linear-gradient4);
      }

      .st9 {
        fill: url(#linear-gradient13);
      }

      .st10 {
        fill: url(#linear-gradient12);
      }

      .st11 {
        fill: url(#linear-gradient15);
      }

      .st12 {
        fill: url(#linear-gradient11);
      }

      .st13 {
        fill: url(#linear-gradient10);
      }

      .st14 {
        fill: url(#linear-gradient14);
      }

      .st15 {
        fill: url(#linear-gradient);
      }

      .st16 {
        fill: #fff;
      }

      .st17 {
        stroke: #000;
        stroke-miterlimit: 10;
        stroke-width: .09px;
      }
    </style>
    <linearGradient id="linear-gradient" x1="28.54" y1="53.5" x2="11.23" y2="39.02" gradientUnits="userSpaceOnUse">
      <stop offset="0" stop-color="gray"/>
      <stop offset="1" stop-color="#1a1a1a"/>
    </linearGradient>
    <linearGradient id="linear-gradient1" x1="7.29" y1="48.01" x2="32.77" y2="48.01" xlink:href="#linear-gradient"/>
    <linearGradient id="linear-gradient2" x1="43.08" y1="37.08" x2="22.58" y2="52.77" gradientUnits="userSpaceOnUse">
      <stop offset="0" stop-color="#292561"/>
      <stop offset="1" stop-color="#1e75bb"/>
    </linearGradient>
    <linearGradient id="linear-gradient3" x1="16.4" y1="58.49" x2="50.02" y2="36.07" xlink:href="#linear-gradient2"/>
    <linearGradient id="linear-gradient4" x1="-1491.06" y1="-156.54" x2="-1508.37" y2="-171.02" gradientTransform="translate(-1459.21 -150.04) rotate(-180)" xlink:href="#linear-gradient"/>
    <linearGradient id="linear-gradient5" x1="-1512.31" y1="-162.03" x2="-1486.83" y2="-162.03" gradientTransform="translate(-1459.21 -150.04) rotate(-180)" xlink:href="#linear-gradient"/>
    <linearGradient id="linear-gradient6" x1="-1476.52" y1="-172.97" x2="-1497.02" y2="-157.27" gradientTransform="translate(-1459.21 -150.04) rotate(-180)" xlink:href="#linear-gradient2"/>
    <linearGradient id="linear-gradient7" x1="-1503.2" y1="-151.55" x2="-1469.58" y2="-173.97" gradientTransform="translate(-1459.21 -150.04) rotate(-180)" xlink:href="#linear-gradient2"/>
    <linearGradient id="linear-gradient8" x1="8.75" y1="36.27" x2="11.78" y2="24.02" gradientUnits="userSpaceOnUse">
      <stop offset="0" stop-color="#0d72b9"/>
      <stop offset="1" stop-color="#272361"/>
    </linearGradient>
    <linearGradient id="linear-gradient9" x1="23.59" y1="26.21" x2="24.14" y2="26.21" xlink:href="#linear-gradient8"/>
    <linearGradient id="linear-gradient10" x1="33.66" y1="31.38" x2="27.66" y2="31.8" gradientUnits="userSpaceOnUse">
      <stop offset="0" stop-color="#e5e5e4"/>
      <stop offset="1" stop-color="#2c2c2d"/>
    </linearGradient>
    <linearGradient id="linear-gradient11" x1="192.53" y1="-2.53" x2="204.42" y2="-2.68" gradientTransform="translate(249.62 28.96) rotate(-180)" xlink:href="#linear-gradient8"/>
    <linearGradient id="linear-gradient12" x1="211.17" y1="-2.9" x2="194.77" y2="12.79" gradientTransform="translate(249.62 28.96) rotate(-180)" xlink:href="#linear-gradient8"/>
    <linearGradient id="linear-gradient13" x1="24.67" y1="27.73" x2="34.4" y2="26.99" gradientUnits="userSpaceOnUse">
      <stop offset="0" stop-color="#b3b2b3"/>
      <stop offset="1" stop-color="#2c2c2d"/>
    </linearGradient>
    <linearGradient id="linear-gradient14" x1="13.35" y1="29.46" x2="24.22" y2="23.89" xlink:href="#linear-gradient8"/>
    <linearGradient id="linear-gradient15" x1="21.85" y1="38.91" x2="24.73" y2="38.91" xlink:href="#linear-gradient8"/>
  </defs>
  <g>
    <g>
      <g>
        <g>
          <path class="st16" d="M25.61,52.32c-10.01,0-13.51-7.27-14.34-9.5-.02-.06-.01-.12.02-.17.03-.05.09-.08.15-.08h2.09c.08,0,.15.05.17.12,1.21,3.25,3.48,5.78,6.57,7.32,2.12,1.05,4.49,1.59,7.06,1.59,1.76,0,3.57-.25,5.39-.76.02,0,.03,0,.05,0,.08,0,.15.05.18.13.03.1-.03.2-.12.23-2.54.75-4.97,1.13-7.21,1.13h0Z"/>
          <path class="st16" d="M13.53,42.75c1.18,3.17,3.42,5.81,6.66,7.42,2.19,1.09,4.63,1.61,7.14,1.61,1.79,0,3.62-.26,5.44-.76-2.65.78-5.03,1.12-7.16,1.12-8.09,0-12.5-4.93-14.17-9.38h2.09M13.53,42.39h-2.09c-.12,0-.23.06-.3.16-.07.1-.08.22-.04.34.84,2.26,4.38,9.62,14.51,9.62,2.26,0,4.7-.38,7.26-1.13.19-.06.3-.26.25-.45-.05-.16-.19-.27-.35-.27-.03,0-.07,0-.1.01-1.8.5-3.6.75-5.34.75-2.54,0-4.89-.53-6.98-1.57-3.04-1.52-5.28-4.01-6.47-7.22-.05-.14-.19-.24-.34-.24h0Z"/>
        </g>
        <g>
          <path class="st16" d="M22.84,53.45c-2.93,0-5.64-.61-8.05-1.81-3.68-1.83-6.34-4.88-7.67-8.82-.02-.06,0-.12.02-.17.03-.05.09-.08.15-.08h4.15c.08,0,.15.05.17.12.81,2.17,4.22,9.26,13.99,9.26,2.2,0,4.59-.37,7.11-1.11.02,0,.03,0,.05,0,.08,0,.15.05.17.12.03.09,0,.19-.1.23-1.03.47-2.1.87-3.17,1.2-2.3.71-4.6,1.07-6.83,1.07Z"/>
          <path class="st16" d="M11.44,42.75c1.66,4.45,6.08,9.38,14.17,9.38,2.13,0,4.51-.34,7.16-1.12-1.04.47-2.09.87-3.15,1.19-2.26.69-4.54,1.06-6.78,1.06-2.81,0-5.52-.58-7.97-1.79-3.76-1.87-6.31-4.98-7.58-8.72h4.15M32.77,51.01h0M11.44,42.39h-4.15c-.12,0-.23.06-.3.15-.07.1-.09.22-.05.33,1.35,3.98,4.04,7.07,7.77,8.93,2.44,1.22,5.18,1.83,8.13,1.83,2.25,0,4.57-.36,6.88-1.08,1.08-.33,2.14-.74,3.18-1.2.13-.05.23-.19.23-.34,0-.2-.16-.37-.36-.37,0,0,0,0,0,0-.02,0-.03,0-.05,0-.02,0-.04,0-.06.01-2.49.73-4.86,1.1-7.05,1.1-9.66,0-13.02-7-13.82-9.14-.05-.14-.19-.24-.34-.24h0Z"/>
        </g>
        <g>
          <path class="st16" d="M23.53,55.81c-4.92,0-9.34-1.58-13.14-4.7-.08-.06-.09-.18-.03-.26.04-.04.09-.07.14-.07.04,0,.08.01.12.04.92.75,1.93,1.4,3.01,1.94,2.54,1.27,5.4,1.91,8.48,1.91h0c8.29,0,16.95-4.61,22.6-12.03.03-.05.09-.07.15-.07h3c.06,0,.12.03.16.09.03.06.03.12,0,.18-.21.39-.67,1.06-.8,1.25-2.72,4.2-12.96,11.71-23.69,11.71h0Z"/>
          <path class="st16" d="M47.86,42.75h0M47.86,42.75c-.2.36-.62.99-.79,1.24-2.6,4.02-12.81,11.63-23.54,11.63-4.42,0-8.92-1.29-13.02-4.65.91.74,1.93,1.4,3.04,1.96,2.63,1.31,5.55,1.93,8.56,1.93,8.12,0,16.94-4.49,22.75-12.1h3M47.87,42.39h-3.01c-.11,0-.22.05-.29.14-5.62,7.38-14.23,11.96-22.46,11.96-3.05,0-5.88-.64-8.4-1.89-1.07-.53-2.07-1.17-2.98-1.91-.07-.06-.15-.08-.23-.08-.11,0-.21.05-.28.13-.13.16-.11.39.05.52,3.83,3.14,8.29,4.74,13.25,4.74,10.8,0,21.11-7.56,23.85-11.8.16-.24.57-.85.79-1.23.04-.06.06-.13.06-.21,0-.2-.16-.37-.36-.37h0ZM47.86,43.12h0,0Z"/>
        </g>
        <g>
          <path class="st16" d="M26.23,58.55c-.72,0-1.45-.03-2.15-.1-1.51-.14-2.99-.42-4.39-.85-1.08-.33-2.12-.74-3.09-1.23-2.74-1.36-5-3.29-6.73-5.73-.05-.08-.04-.18.03-.24.03-.03.08-.05.12-.05s.09.02.12.05c.16.14.33.28.5.42,3.73,3.06,8.07,4.61,12.9,4.61,10.6,0,20.71-7.4,23.39-11.55.1-.14.57-.84.79-1.23.03-.06.09-.09.16-.09h5.24c.07,0,.13.04.16.1.03.06.03.13,0,.19l-.22.35c-6.24,9.33-16.76,15.35-26.8,15.35h0Z"/>
          <path class="st16" d="M53.1,42.75h0M53.1,42.75c-.08.12-.15.23-.22.35-6.41,9.57-16.98,15.27-26.65,15.27-.72,0-1.43-.03-2.14-.1-1.49-.13-2.95-.41-4.35-.84-1.05-.32-2.08-.72-3.07-1.22-2.78-1.38-5.01-3.33-6.67-5.67.16.14.33.28.5.42,4.1,3.36,8.6,4.65,13.02,4.65,10.73,0,20.94-7.61,23.54-11.63.17-.26.59-.88.79-1.24h5.24M53.11,42.39h-5.24c-.13,0-.26.07-.32.19-.19.35-.61.97-.77,1.21-2.59,4.01-12.85,11.47-23.24,11.47-4.79,0-9.09-1.54-12.79-4.57-.17-.14-.33-.27-.49-.41-.07-.06-.16-.09-.24-.09-.09,0-.18.03-.25.09-.14.12-.16.33-.05.49,1.75,2.46,4.03,4.41,6.8,5.79.99.49,2.04.91,3.12,1.24,1.41.43,2.9.72,4.43.86.71.06,1.44.1,2.17.1,10.1,0,20.67-6.06,26.95-15.43.05-.07.09-.14.13-.21l.08-.12c.05-.06.08-.14.08-.22,0-.2-.16-.37-.36-.37h0ZM53.1,43.12h0,0Z"/>
        </g>
      </g>
      <g>
        <g>
          <path class="st16" d="M46.86,17.43c-.08,0-.15-.05-.17-.12-1.21-3.25-3.48-5.78-6.57-7.32-2.12-1.05-4.49-1.59-7.06-1.59-1.76,0-3.57.25-5.39.76-.02,0-.03,0-.05,0-.08,0-.15-.05-.18-.13-.03-.1.03-.2.12-.23,2.54-.75,4.97-1.13,7.21-1.13,10.01,0,13.51,7.27,14.34,9.5.02.06.01.12-.02.17-.03.05-.09.08-.15.08h-2.09Z"/>
          <path class="st16" d="M34.78,7.87c8.09,0,12.5,4.93,14.17,9.38h-2.09c-1.18-3.17-3.42-5.81-6.66-7.42-2.19-1.09-4.63-1.61-7.14-1.61-1.79,0-3.62.26-5.44.76,2.65-.78,5.03-1.12,7.16-1.12M34.78,7.5c-2.26,0-4.7.38-7.26,1.13-.19.06-.3.26-.25.45.05.16.19.27.35.27.03,0,.07,0,.1-.01,1.8-.5,3.6-.75,5.34-.75,2.54,0,4.89.53,6.98,1.57,3.04,1.52,5.28,4.01,6.47,7.22.05.14.19.24.34.24h2.09c.12,0,.23-.06.3-.16.07-.1.08-.22.04-.34-.84-2.26-4.38-9.62-14.51-9.62h0Z"/>
        </g>
        <g>
          <path class="st16" d="M48.95,17.43c-.08,0-.15-.05-.17-.12-.81-2.17-4.22-9.26-13.99-9.26-2.2,0-4.6.37-7.11,1.11-.02,0-.03,0-.05,0-.08,0-.15-.05-.17-.12-.03-.09,0-.19.1-.23,1.03-.47,2.1-.87,3.17-1.2,2.3-.71,4.6-1.07,6.83-1.07,2.93,0,5.63.61,8.05,1.81,3.68,1.83,6.34,4.89,7.67,8.82.02.06,0,.12-.02.17-.03.05-.09.08-.15.08h-4.15Z"/>
          <path class="st16" d="M37.55,6.74c2.81,0,5.52.58,7.97,1.79,3.76,1.87,6.31,4.98,7.58,8.72h-4.15c-1.66-4.45-6.08-9.38-14.17-9.38-2.13,0-4.51.34-7.16,1.12,1.04-.47,2.09-.87,3.15-1.19,2.26-.69,4.54-1.06,6.78-1.06M37.55,6.37c-2.25,0-4.57.36-6.88,1.08-1.08.33-2.15.74-3.19,1.21-.18.08-.26.28-.19.46.05.15.19.24.34.24.03,0,.07,0,.1-.01,2.49-.73,4.87-1.1,7.05-1.1,9.66,0,13.02,7,13.82,9.14.05.14.19.24.34.24h4.15c.12,0,.23-.06.3-.15.07-.1.09-.22.05-.33-1.35-3.98-4.04-7.07-7.77-8.93-2.44-1.22-5.18-1.83-8.13-1.83h0Z"/>
        </g>
        <g>
          <path class="st16" d="M12.53,17.43c-.06,0-.12-.03-.16-.09-.03-.06-.03-.13,0-.18.2-.37.63-1,.8-1.26.11-.17.23-.34.37-.52l.32-.4.26-.02-.14-.12.38-.44.13-.14c.15-.17.29-.31.42-.45l.27-.27.4-.38.49-.45c.18-.16.36-.32.55-.48l.9-.74s.61-.47.77-.59l.69-.5.75-.51.87-.56,1.26-.75.9-.5.83-.43,1.07-.52.44-.2,1.03-.44.66-.27c.39-.15.78-.3,1.18-.43l.77-.26s.55-.17.71-.22l.72-.2c.24-.06.48-.12.72-.18l.5-.11.76-.16.54-.1c.12-.02.25-.04.37-.06l.13.17-.03-.18c.15-.02.29-.04.44-.06.16-.02.81-.1.81-.1,0,0,.49-.05.64-.06l.68-.04.72-.02c.14,0,.29,0,.44,0h.41c.18,0,.85.04.85.04l.41.03c.21.01.42.03.63.06l.74.09.57.09.58.1.72.16.74.19.28.08c.23.07.46.14.69.22,0,0,.56.2.56.2l.04.21.06-.17.15.06c.28.1.56.22.84.34l.9.42.17.09.07.24.08-.16.57.31.63.37c.21.13.42.26.63.4l.56.38-.02.21.1-.15.55.41.43.34c.08.06.1.19.04.27-.04.05-.09.07-.15.07-.04,0-.07-.01-.1-.04-.87-.69-1.83-1.3-2.84-1.8-2.54-1.27-5.4-1.91-8.48-1.91-8.29,0-16.95,4.61-22.6,12.03-.03.05-.09.07-.15.07h-3Z"/>
          <path class="st16" d="M36.88,4.37c.13,0,.27,0,.4,0,.18,0,.35,0,.53.02.05,0,.1,0,.16,0,.05,0,.1,0,.16,0,.1,0,.2.01.3.02,0,0,0,0,0,0,0,0,0,0,0,0,.03,0,.06,0,.1,0,.21.01.42.03.62.06.07,0,.14.01.21.02.04,0,.07,0,.11.01.06,0,.12.01.18.02.08,0,.16.02.24.03.08.01.16.02.24.03.07.01.14.02.2.03.08.01.15.03.23.04.07.01.14.02.22.04.09.02.17.03.26.05.11.02.22.04.33.07.07.02.14.03.21.05.06.01.12.03.18.04.06.01.13.03.19.05,0,0,0,0,0,0,.08.02.17.04.25.06,0,0,.02,0,.03,0,.04.01.08.02.12.03.06.01.11.03.17.05.08.02.17.05.25.07.23.07.45.14.68.21.04.01.09.03.13.04.11.04.21.07.32.11.03.01.07.02.1.04.03.01.07.03.1.04.05.02.1.04.14.06.28.11.56.22.83.34.05.02.1.04.15.07.08.03.15.07.23.1.08.03.15.07.23.11.06.03.12.06.18.09.06.03.12.06.18.09.04.02.07.04.11.06.03.01.06.03.09.04.05.02.1.05.14.07.08.04.17.09.25.13.08.04.16.09.24.13.07.04.15.08.22.13.05.03.09.05.14.08.05.03.09.05.14.08.04.02.08.05.12.07.21.13.42.26.63.4.06.04.12.08.18.12.06.04.12.08.18.12.06.04.13.09.19.13.03.02.06.04.09.06.04.03.08.06.12.09.02.01.04.03.06.04.07.05.13.1.2.15.07.05.14.1.21.16.06.05.13.1.19.15.06.05.13.1.19.15,0,0,.01.01.02.02-.87-.69-1.83-1.3-2.87-1.82-2.63-1.31-5.55-1.93-8.56-1.93-8.12,0-16.94,4.49-22.75,12.1h-3c.2-.37.62-.99.79-1.24.11-.17.23-.34.36-.52.03-.04.07-.09.1-.13.03-.04.07-.09.1-.13.04-.04.07-.09.11-.14.04-.05.08-.09.11-.14.03-.03.06-.07.09-.11.06-.07.12-.14.19-.21.03-.03.06-.07.1-.11.04-.05.09-.1.13-.15,0,0,.02-.02.03-.03.13-.14.26-.27.4-.41.09-.09.17-.18.27-.27.08-.08.16-.15.24-.23.05-.05.1-.1.15-.15.1-.1.21-.2.32-.29.05-.05.11-.1.17-.15.18-.16.36-.32.55-.48.07-.06.14-.12.21-.18.07-.06.15-.12.22-.18.06-.05.11-.09.17-.14.06-.05.12-.09.18-.14.06-.05.12-.09.18-.14.08-.06.15-.12.23-.18.15-.12.31-.24.47-.36.08-.06.16-.12.24-.18.07-.05.13-.09.2-.14.08-.06.17-.12.25-.18.11-.08.23-.16.35-.24.07-.04.13-.09.2-.13.07-.04.13-.09.2-.13.13-.09.27-.18.41-.27.09-.06.18-.12.28-.18.06-.04.12-.08.19-.12.12-.08.25-.16.38-.23.13-.08.26-.16.38-.23.02,0,.03-.02.05-.03.07-.04.15-.09.22-.13.07-.04.15-.09.22-.13.07-.04.15-.08.22-.13.08-.04.15-.08.22-.13.07-.04.15-.08.23-.12.08-.04.15-.08.23-.12.09-.05.18-.1.28-.15.09-.05.18-.1.27-.14.09-.05.18-.09.28-.14t0,0c.14-.07.28-.14.42-.21.11-.05.21-.1.32-.15.11-.05.21-.1.32-.15.14-.07.29-.13.43-.2.12-.06.25-.11.37-.16.04-.02.09-.04.13-.06.1-.04.21-.09.31-.13.07-.03.14-.06.21-.09.12-.05.25-.1.37-.15.1-.04.19-.08.29-.11.39-.15.78-.3,1.18-.43.1-.03.2-.07.3-.1.16-.05.31-.1.47-.15.08-.02.16-.05.23-.07.16-.05.31-.1.47-.14.08-.02.16-.05.24-.07.16-.04.32-.09.48-.13.24-.06.48-.12.72-.18.11-.03.22-.05.33-.08.07-.02.13-.03.2-.04.13-.03.27-.06.4-.08.07-.01.13-.03.2-.04.07-.01.13-.02.2-.04.1-.02.2-.04.3-.05.05-.01.11-.02.16-.03.12-.02.25-.04.37-.06.03,0,.07-.01.1-.02.14-.02.29-.04.44-.06.16-.02.33-.04.5-.06.04,0,.09-.01.13-.01.06,0,.11-.01.17-.02.01,0,.03,0,.04,0,.05,0,.1-.01.15-.01.15-.01.3-.03.44-.04.09,0,.17-.01.26-.02.09,0,.17-.01.26-.02.05,0,.1,0,.16,0,.09,0,.19,0,.28-.01.09,0,.17,0,.26,0,.01,0,.02,0,.03,0,.05,0,.09,0,.14,0,.14,0,.29,0,.44,0M36.88,4.01c-.15,0-.3,0-.44,0,0,0,0,0,0,0-.04,0-.09,0-.14,0-.11,0-.2,0-.29,0h-.29c-.05.01-.11.02-.16.02l-.26.02-.26.02c-.15.01-.3.02-.45.04l-.15.02-.21.02h-.14c-.17.03-.33.05-.5.08-.15.02-.29.04-.44.06l-.1.02c-.12.02-.25.04-.38.06l-.16.03-.3.05-.1.02-.1.02c-.06.01-.13.03-.2.04-.13.03-.27.06-.4.09l-.2.05-.33.08c-.25.06-.49.12-.73.18-.16.04-.32.09-.48.13l-.24.07c-.16.05-.32.09-.48.14l-.23.07c-.16.05-.32.1-.48.16-.1.03-.2.07-.3.1-.4.14-.8.28-1.19.44l-.29.12c-.12.05-.25.1-.37.15l-.21.09c-.1.04-.21.09-.32.13-.04.02-.09.04-.14.06l-.37.16c-.15.07-.29.13-.44.2l-.33.15c-.11.05-.22.1-.32.16l-.42.21s-.01,0-.02,0l-.26.14-.27.14c-.1.05-.19.1-.28.15l-.23.12-.05.03-.18.1-.17.09-.06.03-.23.13-.14.08-.08.05-.07.04-.16.09.14.34-.19-.32c-.13.08-.26.16-.39.23l-.07.04-.31.19-.19.12-.17.11-.1.07c-.14.09-.28.18-.41.27l-.14.1-.06.04-.2.14-.26.18-.08.06-.06.04-.2.14-.13.09-.07.05-.19.14-.05.04c-.16.12-.32.24-.48.36l-.15.11-.08.06-.07.05-.12.09-.06.05-.12.09-.17.14-.19.15s-.05.04-.05.04l-.2.17c-.19.16-.38.32-.56.48l-.17.15c-.1.09-.2.19-.3.28l-.07.07-.11.1c-.08.08-.16.16-.24.24-.09.09-.18.18-.27.27-.14.14-.27.28-.4.42l-.16.18s-.07.07-.1.11l-.14.16-.05.06-.1.11-.05.06-.06.08-.11.14-.11.14-.1.13c-.14.18-.26.36-.38.54-.26.39-.62.92-.8,1.26-.06.11-.06.25,0,.36.07.11.19.18.32.18h3c.11,0,.22-.05.29-.14,5.62-7.38,14.23-11.96,22.46-11.96,3.05,0,5.88.64,8.4,1.89,1,.5,1.94,1.1,2.81,1.78.07.05.15.08.23.08.1,0,.2-.04.27-.12.13-.15.12-.37-.01-.5-.01-.01-.05-.04-.06-.05l-.19-.15-.19-.15-.21-.16-.2-.15s-.04-.03-.07-.05l-.12-.09-.09-.06-.19-.14-.18-.12-.18-.12c-.21-.14-.42-.27-.64-.4l-.12-.08s-.09-.06-.14-.09l-.14-.08c-.07-.04-.15-.09-.23-.13l-.25-.14-.25-.13-.08-.04-.07-.04s-.04-.02-.05-.02c-.08-.04-.12-.06-.16-.08l-.18-.09c-.06-.03-.12-.06-.18-.09l-.23-.11-.19-.09-.19-.08c-.28-.12-.56-.24-.85-.35-.04-.02-.1-.04-.15-.06l-.1-.04s-.05-.02-.05-.02l-.05-.02c-.11-.04-.22-.08-.33-.12l-.07-.02-.06-.02c-.23-.08-.46-.15-.69-.22l-.25-.07-.17-.05-.1-.03s-.06-.01-.06-.02c-.09-.02-.17-.04-.25-.06h0s0,0,0,0c-.06-.02-.13-.03-.19-.05-.06-.01-.12-.03-.18-.04l-.21-.05c-.1-.02-.2-.04-.3-.06-.12-.02-.21-.04-.29-.06-.07-.01-.15-.03-.22-.04l-.23-.04-.21-.03-.24-.04c-.08-.01-.16-.02-.25-.03-.05,0-.12-.02-.18-.02h-.11s-.18-.03-.18-.03c-.23-.02-.45-.04-.66-.06-.03,0-.06,0-.09,0-.01,0-.02,0-.03,0-.1,0-.19-.01-.29-.02-.05,0-.11,0-.16,0h-.16c-.18-.01-.36-.02-.53-.02-.14,0-.27,0-.41,0h0Z"/>
        </g>
        <g>
          <path class="st16" d="M7.29,17.43c-.07,0-.13-.04-.16-.1-.03-.06-.03-.13,0-.19l.22-.35C13.61,7.47,24.13,1.45,34.16,1.45c.72,0,1.45.03,2.16.1,1.51.14,2.99.42,4.39.85,1.07.33,2.11.74,3.09,1.23,2.74,1.36,5,3.29,6.73,5.73.05.08.04.18-.03.24-.03.03-.08.05-.12.05s-.09-.02-.12-.05c-.16-.14-.33-.28-.5-.42-3.73-3.06-8.07-4.61-12.9-4.61-10.6,0-20.71,7.4-23.39,11.55-.17.25-.59.87-.79,1.23-.03.06-.09.09-.16.09h-5.24Z"/>
          <path class="st16" d="M34.16,1.63c.72,0,1.43.03,2.14.1,1.49.13,2.95.41,4.35.84,1.05.32,2.08.72,3.07,1.22,2.78,1.38,5.01,3.33,6.67,5.67-.16-.14-.33-.28-.5-.42-4.1-3.36-8.6-4.65-13.02-4.65-10.73,0-20.94,7.61-23.54,11.63-.17.26-.59.88-.79,1.24h-5.24c.08-.12.15-.23.22-.35C13.92,7.33,24.49,1.63,34.16,1.63M34.16,1.26c-10.1,0-20.67,6.06-26.95,15.43-.05.07-.09.14-.13.21l-.09.14c-.07.11-.08.26-.02.38s.19.19.32.19h5.24c.13,0,.26-.07.32-.19.19-.35.61-.97.77-1.21,2.59-4.01,12.85-11.47,23.24-11.47,4.79,0,9.09,1.54,12.79,4.57.17.14.33.27.49.41.07.06.16.09.24.09s.18-.03.25-.09c.14-.12.16-.33.05-.49-1.75-2.46-4.03-4.41-6.8-5.79-.99-.49-2.04-.91-3.12-1.24-1.41-.43-2.9-.72-4.43-.86-.71-.06-1.44-.1-2.17-.1v.37s0-.37,0-.37h0Z"/>
        </g>
      </g>
      <g>
        <g>
          <path class="st16" d="M6.28,35.79c-.06,0-.11-.03-.15-.07-.03-.05-.05-.11-.03-.16l2.64-8.96c.51-1.58,2.33-2.55,3.71-2.55.86,0,1.5.36,1.81,1.02.02.04.02.08.01.11-.13.67-.29,1.37-.48,2.09-.18.73-.4,1.57-.65,2.53l-1.58,5.86c-.02.08-.09.14-.18.14h-5.1Z"/>
          <path class="st16" d="M12.45,24.22c.72,0,1.35.28,1.64.91-.13.67-.29,1.36-.47,2.08-.18.73-.4,1.57-.65,2.53l-1.58,5.86h-5.1l2.64-8.96c.46-1.43,2.17-2.42,3.54-2.42M12.45,23.86c-1.45,0-3.35,1.02-3.88,2.67l-2.64,8.97c-.03.11-.01.23.06.32.07.09.18.15.29.15h5.1c.17,0,.31-.11.35-.27l1.58-5.86c.25-.96.47-1.8.66-2.53.18-.72.34-1.43.48-2.1.02-.08,0-.16-.03-.23-.34-.72-1.04-1.12-1.98-1.12h0Z"/>
        </g>
        <g>
          <path class="st16" d="M23.59,26.88s-.05,0-.07-.01c-.09-.04-.13-.13-.1-.22.11-.37.31-.72.59-1.04.04-.04.09-.06.14-.06.04,0,.07.01.11.03.08.05.1.16.05.24l-.55.97c-.03.06-.1.09-.16.09Z"/>
          <path class="st16" d="M24.14,25.72h0M24.14,25.72c-.2.35-.38.68-.55.97.1-.35.3-.68.55-.97M24.14,25.35s-.01,0-.02,0c-.06,0-.11.02-.16.04-.03.02-.07.04-.09.07,0,0,0,0,0,.01-.3.35-.51.72-.63,1.11-.05.18.04.37.21.44.05.02.1.03.14.03.13,0,.25-.07.32-.19l.54-.95c.04-.06.07-.13.07-.21,0-.2-.16-.37-.36-.37h0s0,0,0,0h0ZM24.14,26.09h0,0Z"/>
        </g>
        <g>
          <path class="st16" d="M31.95,33.9c-.07,0-.13-.04-.16-.09-.27-.47-1.72-2.82-4.37-3.05-.14-.01-.29-.02-.42-.02-.67,0-1.33.14-1.98.41-.02,0-.05.01-.07.01-.06,0-.12-.03-.15-.08-.05-.08-.03-.17.03-.23,1.09-.99,2.36-1.61,3.68-1.8.31-.04.61-.07.92-.07,2.77,0,5.56,1.78,7.28,4.65.03.06.04.13,0,.19s-.09.09-.16.09h-4.59Z"/>
          <path class="st16" d="M29.41,29.16c2.7,0,5.43,1.73,7.13,4.56h-4.59c-.17-.31-1.69-2.9-4.52-3.15-.15-.01-.3-.02-.44-.02-.86,0-1.58.22-2.06.42.69-.63,1.91-1.51,3.58-1.76.3-.04.59-.06.89-.06M29.41,28.79c-.32,0-.64.02-.95.07-1.35.2-2.65.84-3.77,1.85-.13.12-.16.32-.06.47.07.11.19.17.31.17.05,0,.1,0,.14-.03.63-.26,1.27-.4,1.91-.4.13,0,.27,0,.4.02,2.56.23,3.97,2.51,4.23,2.96.07.12.19.19.32.19h4.59c.13,0,.25-.07.32-.19.07-.12.06-.26,0-.37-1.75-2.92-4.6-4.74-7.44-4.74h0Z"/>
        </g>
        <g>
          <path class="st16" d="M44.19,35.79c-2.56-.55-4.85-4.27-5.05-8.13,0-.1.07-.18.17-.19,0,0,.01,0,.02,0,.09,0,.17.07.18.16.07.52.27.95.58,1.28.41.42.99.64,1.74.64h11.47c.09,0,.16.06.18.15l.79,3.68s.02.17,0,.21l-1.24,2.12c-.03.06-.09.09-.16.09h-8.68Z"/>
          <path class="st16" d="M39.33,27.65c.08.56.29,1.02.63,1.38.44.46,1.07.69,1.87.69h11.47l.79,3.68s.01.05.02.08l-1.24,2.12h-8.68c-2.52-.54-4.68-4.27-4.86-7.96M39.33,27.28s-.02,0-.03,0c-.2.02-.34.19-.33.38.2,4,2.51,7.73,5.15,8.3.03,0,.05,0,.08,0h8.68c.13,0,.25-.07.32-.18l1.24-2.12c.05-.08.06-.18.04-.27h-.38s.36-.07.36-.07l-.79-3.68c-.04-.17-.19-.29-.36-.29h-11.47c-.71,0-1.23-.19-1.61-.58-.29-.3-.47-.69-.53-1.18-.02-.18-.18-.32-.36-.32h0Z"/>
        </g>
        <g>
          <path class="st16" d="M44.23,35.79c-1.32,0-2.52-.21-3.56-.64-1.04-.43-1.94-1.03-2.65-1.78-.72-.76-1.27-1.68-1.65-2.73-.37-1.05-.56-2.23-.56-3.51s.19-2.45.56-3.49c.38-1.05.94-1.95,1.66-2.69.73-.74,1.62-1.32,2.67-1.73,1.04-.41,2.24-.62,3.56-.62h8.63c.09,0,.16.06.18.15l1.24,5.78c.01.05,0,.11-.04.15-.03.04-.09.07-.14.07h-10.36c-.76,0-1.33.21-1.74.65-.41.44-.62,1.02-.62,1.77,0,.16.01.32.03.47.19,3.72,2.35,7.29,4.72,7.8.09.02.15.11.14.2-.01.09-.09.16-.18.16h-1.88Z"/>
          <path class="st16" d="M52.88,18.78l1.24,5.78h-10.36c-.8,0-1.43.24-1.87.71-.44.47-.67,1.1-.67,1.89,0,.17.01.33.03.49.19,3.68,2.34,7.41,4.86,7.96h-1.88c-1.31,0-2.47-.21-3.49-.62-1.02-.42-1.89-1-2.59-1.74-.7-.74-1.24-1.63-1.61-2.67-.37-1.04-.55-2.19-.55-3.45s.18-2.4.55-3.43c.37-1.03.91-1.9,1.62-2.62.71-.72,1.58-1.28,2.6-1.69,1.02-.41,2.19-.61,3.49-.61h8.63M52.88,18.41h-8.63c-1.35,0-2.57.21-3.63.63-1.07.42-1.98,1.02-2.73,1.77-.75.76-1.32,1.68-1.71,2.75-.38,1.06-.57,2.26-.57,3.55s.19,2.5.57,3.57c.38,1.08.95,2.02,1.69,2.8.74.78,1.65,1.39,2.72,1.83,1.06.43,2.29.65,3.63.65h1.88c.19,0,.35-.14.37-.33s-.1-.36-.29-.4c-2.3-.5-4.39-3.98-4.57-7.62-.02-.17-.03-.32-.03-.47,0-.7.19-1.23.57-1.64.38-.4.9-.59,1.61-.59h10.36c.11,0,.22-.05.29-.14.07-.09.1-.2.07-.31l-1.24-5.78c-.04-.17-.19-.29-.36-.29h0Z"/>
        </g>
        <g>
          <path class="st16" d="M32.05,35.79c-.08,0-.16-.06-.18-.14l-1.58-5.86c-.27-.96-.5-1.79-.68-2.52-.18-.69-.33-1.37-.46-2.04,0,0,0-.01-.01-.02-.33-.71-1.16-.82-1.63-.82-1.16,0-2.49.59-3.23,1.44-.04.04-.09.06-.14.06-.04,0-.07-.01-.11-.03-.08-.05-.1-.16-.05-.24l3.06-5.43c.31-.56.72-1.01,1.2-1.35.49-.35,1.11-.52,1.83-.52s1.32.2,1.88.6c.56.4.97,1.02,1.21,1.84l4.25,14.79c.02.06,0,.12-.03.16s-.09.07-.15.07h-5.18Z"/>
          <path class="st16" d="M30.07,18.51c.65,0,1.24.19,1.77.57.53.38.91.96,1.14,1.75l4.25,14.78h-5.18l-1.58-5.86c-.27-.96-.49-1.79-.68-2.51-.18-.72-.34-1.42-.48-2.11,0,0,0,.01,0,.02-.3-.64-.99-.92-1.8-.92-1.16,0-2.57.58-3.36,1.5.12-.21.24-.42.37-.65l2.69-4.78c.3-.54.68-.97,1.14-1.29.46-.33,1.03-.49,1.72-.49M30.07,18.14c-.76,0-1.41.19-1.93.56-.5.36-.92.83-1.25,1.41l-2.69,4.78-.37.65c-.09.16-.05.37.11.48.06.05.14.07.21.07.1,0,.21-.04.28-.13.7-.81,1.97-1.38,3.09-1.38.42,0,1.18.09,1.46.71,0,0,0,0,0,.01.13.66.28,1.34.46,2.02.18.72.41,1.56.68,2.52l1.58,5.86c.04.16.19.27.35.27h5.18c.12,0,.22-.05.29-.15.07-.09.09-.21.06-.32l-4.25-14.78c-.26-.87-.69-1.52-1.28-1.94-.59-.42-1.26-.63-1.99-.63h0Z"/>
        </g>
        <g>
          <path class="st16" d="M21.72,36.07c-.32,0-.63-.02-.91-.07-.29-.05-.56-.14-.82-.29-.25-.14-.5-.34-.73-.6-.24-.26-.47-.6-.69-1.03l-2.26-4.25c-.3-.57-1.25-2.39-1.45-2.75-.19-.36-.36-.7-.51-1l-.39-.82s-.02-.03-.03-.05c-.33-.7-1.07-.81-1.48-.81-1.26,0-2.92.92-3.36,2.29-.02.08-.1.13-.17.13-.02,0-.04,0-.05,0-.1-.03-.15-.13-.12-.23l1.71-5.82c.25-.83.66-1.45,1.23-1.85.56-.4,1.2-.6,1.89-.6s1.31.17,1.8.51c.48.33.89.79,1.2,1.37l2.69,4.75.97,1.72c.28.5.52.94.73,1.32.21.39.4.74.56,1.06l.29.59c.09-.19.18-.38.28-.58.16-.31.34-.66.55-1.06.21-.39.45-.84.73-1.32l.6-1.06c.82-.95,2.26-1.6,3.52-1.6.96,0,1.65.36,1.96,1.03.02.05.02.11,0,.16-.28.58-.6,1.23-.95,1.93-.35.71-.81,1.62-1.38,2.71l-2.26,4.23c-.22.43-.46.78-.69,1.03-.24.26-.49.46-.73.6-.25.14-.53.24-.82.29-.28.04-.58.07-.91.07Z"/>
          <path class="st16" d="M13.57,18.51c.67,0,1.24.16,1.7.48.46.32.84.75,1.14,1.31l2.69,4.75c.37.65.69,1.23.97,1.72.28.49.52.93.73,1.32.21.39.39.74.55,1.06.16.32.31.63.47.93.13-.3.28-.61.44-.92.16-.31.34-.66.55-1.06.21-.39.45-.83.73-1.32.02-.03.03-.06.05-.08.17-.3.35-.62.55-.97.8-.92,2.2-1.5,3.36-1.5.81,0,1.5.28,1.8.92-.28.58-.6,1.22-.95,1.93-.35.71-.81,1.61-1.38,2.7l-2.26,4.22c-.22.42-.44.75-.67.99-.23.24-.46.43-.69.57-.23.13-.49.22-.75.26-.27.04-.56.06-.88.06s-.61-.02-.88-.06c-.27-.04-.52-.13-.75-.26-.23-.13-.47-.32-.69-.57-.23-.24-.45-.57-.67-.99l-2.26-4.25c-.3-.57-.57-1.08-.8-1.53-.23-.45-.45-.86-.64-1.22-.19-.36-.36-.69-.5-.99-.14-.3-.28-.59-.41-.88,0,0,0,.01,0,.02-.3-.64-.92-.91-1.64-.91-1.36,0-3.07.99-3.54,2.42l1.71-5.82c.23-.79.62-1.37,1.16-1.75.54-.38,1.13-.57,1.79-.57M23.59,26.7h0M23.59,26.7h0s0,0,0,0M13.57,18.14c-.73,0-1.4.21-2,.63-.6.42-1.04,1.08-1.3,1.94l-1.71,5.82c-.06.19.05.39.24.45.04.01.07.02.11.02.15,0,.3-.1.35-.25.42-1.3,1.99-2.17,3.19-2.17.45,0,1.04.12,1.31.7.01.03.03.05.04.07l.37.79c.14.31.32.64.51,1.01.19.36.4.76.64,1.22.23.45.5.97.81,1.54l2.26,4.25c.23.44.47.8.72,1.07.25.27.51.48.78.63.27.16.57.26.88.31.29.04.6.07.94.07s.65-.02.94-.07c.31-.05.61-.15.88-.31.27-.15.53-.37.78-.63.25-.27.49-.63.72-1.07l2.26-4.22c.58-1.12,1.04-2,1.39-2.71.35-.71.66-1.35.95-1.93.05-.1.05-.22,0-.32-.34-.73-1.1-1.13-2.13-1.13-1.31,0-2.81.67-3.64,1.63-.02.02-.03.04-.04.06l-.55.97s0,0,0,0l-.05.08c-.28.49-.52.93-.73,1.33-.21.4-.4.75-.56,1.06-.04.08-.08.16-.12.24l-.13-.25c-.16-.32-.35-.68-.56-1.07-.21-.39-.45-.83-.73-1.32-.28-.49-.6-1.07-.97-1.72l-2.69-4.75c-.32-.6-.75-1.08-1.25-1.43-.52-.36-1.16-.54-1.91-.54h0ZM23.59,27.06h0,0Z"/>
        </g>
      </g>
      <g>
        <g>
          <g>
            <path class="st16" d="M8.52,40.66c-.1,0-.18-.08-.18-.18,0-.09.07-.24.16-.26.08-.01.13-.02.14-.03.02-.02.05-.15.07-.19l.51-2.06c.06-.25.07-.29.07-.34-.01,0-.06-.01-.16-.03-.09-.01-.16-.09-.16-.18,0-.1.08-.26.18-.26h1.1c.72,0,1.13.33,1.13.91,0,.34-.15.65-.41.87-.22.18-.56.27-.97.27-.1,0-.19,0-.27-.01l-.19.77c-.04.18-.05.2-.05.23,0,.03.1.05.15.05.08.01.15.08.15.17,0,.05-.01.14-.05.18-.03.04-.08.1-.13.1h-1.09ZM9.85,38.63c.23,0,.38-.03.48-.09.09-.06.21-.17.21-.5,0-.23-.06-.3-.1-.33-.04-.04-.17-.07-.32-.07v-.18l-.04.19-.24.99h0Z"/>
            <path class="st16" d="M10.23,37.31c.61,0,.95.26.95.73,0,.28-.13.55-.35.72-.19.15-.49.23-.85.23-.18,0-.29,0-.4-.04l-.23.93c-.04.19-.05.22-.05.27,0,.17.02.19.3.23v.08s-1.08,0-1.08,0v-.08c.25-.04.28-.07.36-.36l.51-2.06c.07-.26.07-.32.07-.39,0-.13-.06-.17-.32-.21v-.08h1.1M9.85,38.81c.28,0,.45-.04.58-.12.2-.12.29-.34.29-.65,0-.23-.05-.38-.17-.47-.09-.07-.26-.11-.43-.11-.12,0-.17.04-.2.14l-.31,1.2c.13.02.15.02.23.02M10.23,36.94h-1.1c-.2,0-.37.16-.37.37v.08c0,.17.12.32.29.36,0,.04-.02.08-.04.14l-.51,2.06s-.01.06-.02.08c-.01,0-.02,0-.04,0-.18.03-.31.18-.31.36v.08c0,.2.16.37.37.37h1.09c.1,0,.2-.04.27-.12.07-.07.11-.17.1-.27v-.08c-.01-.16-.13-.29-.28-.33,0,0,0-.01,0-.02v-.05s.16-.61.16-.61c.04,0,.08,0,.12,0,.45,0,.83-.11,1.08-.32.31-.25.48-.61.48-1.01,0-.69-.49-1.1-1.31-1.1h0ZM10.08,38.43l.15-.6s.08.02.09.03c0,0,0,0,0,0,0,0,.02.04.02.18,0,.26-.09.32-.12.34-.03.02-.07.04-.15.05h0Z"/>
          </g>
          <g>
            <path class="st16" d="M11.42,40.71c-.38,0-.63-.28-.63-.71,0-.88.77-1.84,1.47-1.84.11,0,.22.03.3.08.03-.02.06-.04.09-.04,0,0,.29-.04.29-.04.03,0,.05,0,.08.02.08.04.15.14.13.22,0,0-.03.1-.03.11-.14.54-.26,1.03-.33,1.34l.02-.02s.08-.06.13-.06h0s.09.02.13.05c.07.07.13.22.07.29-.33.44-.49.6-.77.6-.19,0-.31-.1-.35-.27-.19.19-.37.27-.62.27ZM12.25,38.62c-.08,0-.23.09-.39.34-.18.28-.34.74-.34.97,0,.05,0,.17.08.17.06,0,.16-.04.24-.15.28-.33.49-.87.49-1.22,0-.1-.05-.11-.07-.11v-.18s-.01.18-.01.18Z"/>
            <path class="st16" d="M12.94,38.33h.03c0,.06-.01.07-.03.11-.21.8-.41,1.66-.41,1.76,0,.03.03.06.06.06.04,0,.1-.05.23-.2.03-.03.06-.06.13-.14l.05.05c-.34.44-.44.53-.62.53-.12,0-.18-.06-.18-.2,0-.12,0-.16.11-.56-.4.6-.59.76-.9.76-.28,0-.45-.2-.45-.53,0-.76.69-1.66,1.28-1.66.19,0,.32.1.35.28l.05-.23h.01s.27-.05.27-.05M11.6,40.28c.13,0,.28-.08.38-.21.31-.36.54-.94.54-1.34,0-.17-.1-.28-.25-.29,0,0-.02,0-.02,0-.18,0-.37.16-.54.42-.2.31-.37.8-.37,1.07,0,.22.1.35.26.35M12.25,37.97c-.8,0-1.65,1.04-1.65,2.03,0,.54.33.9.81.9.22,0,.4-.06.56-.17.09.11.23.17.41.17.38,0,.58-.24.91-.67.11-.15.1-.36-.03-.49l-.05-.05s-.11-.08-.17-.09c.07-.29.16-.65.26-1.04.02-.06.02-.08.03-.12.04-.17-.05-.34-.2-.41-.05-.03-.14-.05-.2-.05-.01,0-.02,0-.03,0l-.27.03s-.05,0-.08.02c-.09-.04-.19-.05-.29-.05h0ZM11.72,39.82c.04-.21.15-.53.3-.76.04-.07.08-.12.12-.16-.05.3-.22.67-.42.92h0Z"/>
          </g>
          <g>
            <path class="st16" d="M13.74,40.74s-.22-.01-.22-.29v-.11c0-.15-.04-.85-.06-1.05-.02-.15-.06-.54-.11-.6-.05,0-.14,0-.15,0-.05,0-.09-.02-.12-.05-.04-.03-.06-.08-.06-.14,0-.09.07-.23.16-.24.15-.02.4-.08.47-.09.02,0,.12-.03.14-.03.2,0,.21.06.3.66.05.27.07.47.09.84.25-.34.41-.66.41-.8-.11-.09-.18-.19-.18-.35,0-.2.15-.35.35-.35.23,0,.43.21.43.47,0,.33-.27.88-.73,1.46-.43.54-.56.66-.71.66Z"/>
            <path class="st16" d="M14.75,38.33c.13,0,.25.13.25.28,0,.29-.27.81-.69,1.35-.34.43-.49.59-.57.59-.03,0-.04-.03-.04-.11t0-.07v-.05c0-.15-.04-.87-.06-1.07-.07-.64-.11-.76-.31-.76-.03,0-.08,0-.13,0v-.06c.15-.02.42-.08.49-.1.03-.01.07-.02.09-.02t.12.51c.06.36.08.6.11,1.29.42-.45.75-1.01.75-1.28,0-.05-.02-.08-.08-.14-.08-.08-.11-.13-.11-.21,0-.11.07-.17.17-.17M14.75,37.97c-.3,0-.52.22-.53.52-.07-.37-.15-.52-.43-.52-.08,0-.16.02-.23.05-.02,0-.27.05-.4.08-.18.03-.31.18-.31.36v.06c0,.1.04.2.12.27.07.06.16.1.25.1,0,0,.01,0,.02,0,.02.09.04.23.06.43.02.19.06.89.06,1.03,0,.11,0,.11,0,.11,0,.37.27.47.41.47.25,0,.43-.19.86-.73.23-.29.77-1.04.77-1.57,0-.36-.27-.65-.61-.65h0ZM14.32,39.09c-.01-.1-.03-.2-.05-.31,0-.02,0-.03,0-.05.03.08.08.14.13.2-.01.04-.04.1-.07.17h0Z"/>
          </g>
          <g>
            <path class="st16" d="M15.4,40.71c-.18,0-.38-.12-.38-.46,0-.12.03-.28.11-.58l.22-.85s.02-.07.02-.1c-.02,0-.05,0-.09,0-.1,0-.18-.08-.18-.18s.07-.25.17-.26c.17-.01.27-.03.69-.12.01,0,.02,0,.04,0,.04,0,.08.01.11.03.06.04.1.13.08.21l-.37,1.42s.08-.07.13-.08c0,0,.01,0,.02,0,.05,0,.1.02.13.05.06.06.13.21.08.28-.25.39-.46.64-.78.64ZM15.95,38c-.23,0-.39-.18-.39-.43s.17-.45.4-.45.4.21.4.45c0,.23-.19.43-.41.43Z"/>
            <path class="st16" d="M15.95,37.3c.12,0,.22.12.22.27,0,.13-.1.24-.22.24s-.21-.1-.21-.25.09-.26.21-.26M15.99,38.33h.01s-.4,1.57-.4,1.57c0,.04-.02.08-.03.1-.03.09-.04.16-.04.21,0,.04.03.07.07.07.04,0,.11-.05.18-.13.04-.05.07-.08.18-.24l.06.06c-.25.41-.42.55-.63.55-.13,0-.2-.1-.2-.27,0-.1.03-.24.1-.53l.22-.86c.02-.1.04-.17.04-.21,0-.1-.04-.11-.28-.12v-.08c.18-.01.28-.03.71-.12M15.95,36.94c-.33,0-.58.27-.58.63,0,.2.08.37.2.48-.15.03-.22.04-.32.05-.19.02-.34.17-.34.37v.08c0,.15.09.28.23.34l-.19.76c-.08.31-.12.48-.12.62,0,.44.29.64.57.64.45,0,.72-.37.94-.72.09-.14.07-.33-.05-.45l-.06-.06s-.1-.08-.16-.09l.29-1.13c.03-.13,0-.26-.1-.35.16-.11.27-.3.27-.52,0-.35-.26-.64-.59-.64h0Z"/>
          </g>
          <g>
            <path class="st16" d="M17.67,40.7c-.15,0-.39-.06-.39-.45,0-.07.01-.13.08-.4l.2-.8c.03-.1.04-.2.05-.25-.06.07-.2.21-.42.58-.19.31-.22.4-.44,1.16-.02.08-.09.13-.18.13h-.33c-.06,0-.11-.03-.15-.07s-.05-.1-.03-.16l.43-1.68s-.05,0-.1,0c-.1,0-.18-.08-.18-.18,0-.09.06-.24.15-.26.39-.08.48-.1.71-.15.01,0,.03,0,.04,0,.04,0,.08.01.11.03.06.04.1.13.08.21v.04c.19-.2.36-.28.55-.28.27,0,.47.2.47.48,0,.11-.03.25-.05.33l-.22.85s0,0,0-.01c.03-.04.08-.07.14-.07h0c.05,0,.1.02.13.06.06.06.13.22.08.29-.3.43-.47.62-.78.62Z"/>
            <path class="st16" d="M17.88,38.33c.17,0,.29.12.29.29,0,.07-.02.18-.04.28l-.26,1q-.07.27-.07.3s.03.08.07.08c.07,0,.12-.05.37-.38l.06.07c-.31.45-.42.55-.62.55-.15,0-.21-.08-.21-.26,0-.05,0-.09.07-.36l.2-.8c.04-.16.07-.31.07-.37,0-.09-.04-.14-.1-.14-.17,0-.39.24-.66.69-.2.33-.24.43-.45,1.2h-.33l.44-1.7s0-.04,0-.08c0-.1-.06-.12-.28-.13v-.08c.39-.08.48-.1.72-.15h.01s-.3,1.07-.3,1.07c.46-.77.74-1.07,1.03-1.07M17.88,37.97c-.16,0-.31.05-.45.14-.02-.02-.04-.04-.06-.05-.07-.05-.16-.08-.24-.08-.02,0-.05,0-.07,0-.23.05-.32.07-.71.15-.17.03-.3.18-.3.36v.08c0,.15.09.28.23.34l-.38,1.48c-.03.11,0,.23.07.32.07.09.18.14.29.14h.33c.16,0,.31-.11.35-.27.13-.46.19-.67.26-.82v.05c-.08.27-.1.35-.1.45,0,.46.3.63.57.63.41,0,.62-.27.93-.7.1-.14.09-.33-.03-.46l-.06-.07c-.05-.05-.11-.09-.17-.11l.14-.55c.03-.1.05-.25.05-.37,0-.38-.28-.66-.66-.66h0Z"/>
          </g>
          <g>
            <path class="st16" d="M19.06,41.65c-.56,0-.93-.29-.93-.73,0-.29.12-.44.44-.68-.02-.05-.04-.1-.04-.16,0-.15.07-.26.22-.39-.15-.14-.22-.31-.22-.53,0-.56.48-1.01,1.08-1.01.2,0,.38.06.54.17h.24s.1.03.13.06.05.08.05.13v.19c0,.1-.09.18-.19.18h0s0,.06,0,.08c0,.48-.5.96-1.01.96-.01,0-.03,0-.05,0,.02,0,.05.02.07.02.64.19.77.55.77.81,0,.53-.46.9-1.12.9ZM18.96,40.54c-.05.04-.13.11-.15.15-.05.06-.06.11-.06.19,0,.08,0,.3.38.3.24,0,.42-.12.42-.28,0-.07,0-.16-.51-.34l-.07-.02ZM19.61,38.62c-.16,0-.36.29-.36.66,0,.08.01.17.08.17.11,0,.19-.13.23-.2.07-.14.12-.32.12-.47,0-.16-.04-.16-.06-.16Z"/>
            <path class="st16" d="M19.61,38.33c.17,0,.31.05.44.13.03.03.06.04.07.04h.27v.19h-.22c.02.1.03.19.03.27,0,.38-.42.77-.82.77-.05,0-.1,0-.14-.01-.01,0-.02,0-.03,0-.06,0-.16.13-.16.2s.11.15.31.2c.42.12.63.33.63.64,0,.42-.38.71-.93.71-.46,0-.74-.21-.74-.55,0-.23.08-.33.53-.64-.08-.07-.12-.12-.12-.19,0-.11.08-.21.34-.41-.25-.13-.35-.27-.35-.52,0-.46.4-.83.9-.83M19.33,39.64c.15,0,.29-.1.39-.31.09-.17.14-.38.14-.55,0-.22-.08-.34-.25-.34-.29,0-.55.39-.55.84,0,.22.1.36.26.36M19.12,41.37c.35,0,.6-.2.6-.46,0-.22-.16-.35-.63-.52l-.13-.04s-.02,0-.02,0c-.03,0-.22.16-.28.24-.07.09-.1.18-.1.3,0,.31.21.49.56.49M20.39,38.51h0M19.61,37.97c-.7,0-1.26.54-1.26,1.2,0,.21.05.39.15.53-.09.11-.15.24-.15.4,0,.03,0,.06,0,.09-.27.21-.41.41-.41.74,0,.45.34.91,1.11.91s1.3-.44,1.3-1.08c0-.25-.09-.56-.45-.79.36-.19.64-.57.66-.95.11-.06.18-.18.18-.31v-.15s0-.03,0-.05c0-.2-.16-.37-.36-.37h-.18c-.19-.12-.39-.17-.6-.17h0ZM19.12,41c-.19,0-.19-.06-.19-.12,0-.05,0-.05.02-.07.01-.02.03-.04.05-.06.29.1.35.16.37.17,0,.01-.09.08-.25.08h0Z"/>
          </g>
          <g>
            <path class="st16" d="M27.01,40.74c-.16,0-.3-.03-.53-.12-.03-.01-.13-.05-.16-.05-.02.08-.09.16-.17.16-.05,0-.14-.02-.18-.06-.04-.04-.09-.09-.08-.14l.14-1.08c.01-.09.09-.16.18-.16,0,0,.01,0,.02,0,.05,0,.14.04.18.08.03.04.09.1.08.15,0,.42.2.69.47.69.22,0,.38-.19.38-.46,0-.14-.02-.22-.22-.45l-.18-.21-.17-.19c-.28-.32-.39-.51-.39-.85,0-.57.41-.98.97-.98.17,0,.32.03.45.08.09.04.11.04.13.04.03-.05.14-.12.2-.12h.1c.05,0,.11.02.14.07.03.04.05.1.04.15l-.17.96c-.02.09-.09.15-.18.15,0,0-.02,0-.03,0-.09-.01-.23-.1-.24-.19,0-.31-.05-.42-.1-.49-.06-.07-.14-.11-.25-.11-.2,0-.3.1-.3.3,0,.17,0,.2.4.62.44.48.56.71.56,1.08,0,.65-.46,1.14-1.07,1.14Z"/>
            <path class="st16" d="M28.22,37.24h0M28.22,37.24l-.17.96h-.08c0-.33-.05-.5-.14-.62-.1-.11-.23-.18-.39-.18-.3,0-.49.19-.49.49,0,.24.04.31.45.75.41.44.51.64.51.95,0,.55-.38.96-.89.96-.14,0-.26-.03-.46-.11-.12-.04-.18-.06-.23-.06-.09,0-.14.05-.17.16h-.08l.14-1.08h.09s0,.08,0,.11c0,.46.28.81.66.81.32,0,.56-.27.56-.64,0-.21-.06-.33-.27-.57,0-.01-.09-.11-.17-.21-.08-.09-.17-.19-.18-.2-.28-.32-.34-.45-.34-.72,0-.47.32-.8.78-.8.14,0,.28.02.38.07.1.04.15.05.2.05.1,0,.14-.02.2-.12h.1M28.23,36.87h-.11c-.1,0-.19.04-.25.1,0,0,0,0,0,0-.14-.06-.33-.09-.52-.09-.67,0-1.15.49-1.15,1.17,0,.4.13.62.43.96l.12.14.06.06.09.11.06.08c.2.23.2.27.2.36,0,.13-.06.27-.2.27-.16,0-.29-.19-.29-.45.02-.1,0-.22-.06-.3-.06-.08-.15-.15-.26-.16h-.09s-.03-.01-.04-.01c-.18,0-.34.14-.36.32l-.14,1.08c-.01.1.02.21.09.29.07.08.17.12.28.12h.08c.11,0,.2-.04.27-.12,0,0,0,0,0,0,.2.08.38.13.59.13.72,0,1.26-.57,1.26-1.33,0-.46-.19-.74-.6-1.2-.35-.38-.35-.39-.35-.5,0-.1.02-.12.12-.12.07,0,.09.02.11.05.03.04.05.16.06.38,0,.18.13.32.31.35h.08s.04.02.06.02c.18,0,.33-.13.36-.3l.16-.92s.01-.07.01-.1c0-.2-.16-.37-.36-.37h0ZM28.22,37.61h0,0Z"/>
          </g>
          <g>
            <path class="st16" d="M28.89,40.71c-.45,0-.76-.34-.76-.84,0-.83.79-1.72,1.53-1.72.32,0,.53.2.53.51,0,.52-.53.96-1.29,1.07-.02.07-.02.1-.02.14,0,.09.03.25.23.25.12,0,.23-.04.53-.32.03-.03.08-.05.12-.05.05,0,.1.02.14.06.06.07.12.23.06.3-.31.37-.69.59-1.07.59ZM29.53,38.63c-.11.04-.31.24-.45.53.12-.05.2-.11.28-.19.1-.11.17-.24.17-.34Z"/>
            <path class="st16" d="M29.65,38.33c.22,0,.35.12.35.32,0,.42-.47.79-1.14.89l-.12.02c-.04.18-.05.22-.05.3,0,.26.16.43.41.43.19,0,.33-.08.65-.36l.06.06c-.27.32-.61.52-.92.52-.35,0-.58-.27-.58-.66,0-.73.7-1.53,1.35-1.53M28.77,39.46c.38-.1.55-.19.72-.36.14-.14.22-.32.22-.48,0-.11-.06-.18-.15-.18-.22,0-.56.37-.71.8l-.08.21M29.65,37.97c-.85,0-1.71.96-1.71,1.9,0,.59.4,1.02.95,1.02.43,0,.87-.24,1.21-.66.12-.14.11-.35-.01-.48l-.06-.06c-.06-.06-.13-.1-.21-.11.35-.23.55-.56.55-.92,0-.41-.29-.69-.72-.69h0ZM29.06,39.89c.1-.02.19-.05.28-.08-.16.13-.2.13-.24.13-.03,0-.04-.02-.04-.05h0Z"/>
          </g>
          <g>
            <path class="st16" d="M30.59,40.71c-.38,0-.63-.28-.63-.71,0-.88.77-1.84,1.47-1.84.11,0,.22.03.3.08.03-.02.06-.04.09-.04,0,0,.29-.04.29-.04.03,0,.05,0,.08.02.08.04.15.14.13.22,0,0-.03.1-.03.11-.14.54-.26,1.03-.33,1.35l.02-.03s.08-.06.13-.06h0s.09.02.13.05c.07.07.12.22.07.29-.33.44-.49.6-.77.6-.19,0-.31-.1-.35-.27-.19.19-.37.27-.62.27ZM31.43,38.62c-.08,0-.23.09-.39.34-.18.28-.34.74-.34.97,0,.05,0,.17.08.17.06,0,.16-.04.24-.14.28-.33.49-.87.49-1.22,0-.1-.05-.11-.07-.11v-.18s-.01.18-.01.18Z"/>
            <path class="st16" d="M32.12,38.33h.03c0,.06-.01.07-.03.11-.21.8-.41,1.66-.41,1.76,0,.03.03.06.06.06.04,0,.1-.05.23-.2.03-.03.06-.06.13-.14l.05.05c-.34.44-.44.53-.62.53-.12,0-.18-.06-.18-.2,0-.12,0-.16.11-.56-.4.6-.59.76-.9.76-.28,0-.45-.2-.45-.53,0-.76.69-1.66,1.28-1.66.19,0,.32.1.35.28l.05-.23h.01s.27-.05.27-.05M30.78,40.28c.13,0,.28-.08.38-.21.31-.36.54-.94.54-1.34,0-.17-.1-.28-.25-.29,0,0-.02,0-.02,0-.18,0-.37.16-.54.42-.2.31-.37.8-.37,1.07,0,.22.1.35.26.35M31.43,37.97c-.8,0-1.65,1.04-1.65,2.03,0,.54.33.9.81.9.22,0,.4-.06.56-.17.09.11.23.17.41.17.38,0,.58-.24.91-.67.11-.15.1-.35-.03-.48l-.05-.05s-.11-.08-.17-.1c.07-.29.16-.65.26-1.04.02-.06.02-.08.03-.12.04-.17-.05-.34-.2-.41-.05-.03-.14-.05-.2-.05-.01,0-.02,0-.03,0l-.27.03s-.05,0-.08.02c-.09-.04-.19-.05-.29-.05h0ZM30.9,39.82c.04-.21.15-.53.3-.76.04-.07.08-.12.12-.16-.05.3-.22.67-.42.92h0Z"/>
          </g>
          <g>
            <path class="st16" d="M32.68,40.71c-.19,0-.4-.12-.4-.45,0-.05,0-.11.02-.17l.63-2.56-.11.03c-.1,0-.18-.08-.18-.18,0-.09.07-.25.16-.26.26-.03.42-.06.67-.13.02,0,.03,0,.05,0,.06,0,.12.03.16.09.03.04.05.12.04.17l-.65,2.64s.05-.07.07-.1c.04-.05.09-.08.15-.08.04,0,.07.01.1.03.08.06.16.21.11.29-.29.47-.49.69-.83.69Z"/>
            <path class="st16" d="M33.53,37.16l.02.03-.69,2.81h0s0,.03-.01.05c-.02.09-.03.15-.03.19,0,.06.02.09.07.09.1,0,.14-.04.42-.45l.06.04c-.29.47-.45.61-.68.61-.14,0-.21-.09-.21-.27,0-.03,0-.08.02-.13l.63-2.56s.02-.07.02-.09c0-.07-.09-.11-.23-.11h-.07v-.08c.27-.03.43-.07.7-.13M33.51,36.79s-.05,0-.07,0c-.26.07-.41.09-.65.13-.18.02-.32.18-.32.36v.08c0,.16.1.29.24.35l-.58,2.32c-.02.08-.03.15-.03.22,0,.44.29.64.58.64.46,0,.71-.34.99-.78.1-.17.06-.38-.1-.5l-.06-.04s-.1-.05-.16-.06l.55-2.24c.02-.1,0-.2-.04-.28-.07-.12-.21-.2-.35-.2h0Z"/>
          </g>
          <g>
            <path class="st16" d="M34.28,40.71c-.51,0-.83-.35-.83-.9,0-.87.7-1.66,1.48-1.66.37,0,.65.25.65.58,0,.23-.17.41-.39.41s-.36-.15-.36-.37c0-.05,0-.1.02-.14-.11.02-.21.08-.28.16-.22.25-.37.65-.37,1.01,0,.24.07.36.22.36.13,0,.26-.05.5-.33.04-.04.09-.06.14-.06.04,0,.07.01.1.03.04.03.1.1.11.14,0,.05.03.12,0,.16-.3.42-.6.59-.99.59Z"/>
            <path class="st16" d="M34.93,38.33c.27,0,.46.17.46.39,0,.13-.09.22-.21.22-.11,0-.17-.07-.17-.18,0-.05,0-.08.04-.14.02-.05.03-.07.03-.09,0-.06-.06-.1-.17-.1-.18,0-.35.09-.48.23-.25.29-.41.73-.41,1.14,0,.34.15.55.4.55.21,0,.39-.11.63-.39l.07.05c-.27.37-.51.52-.84.52-.41,0-.64-.26-.64-.72,0-.76.63-1.47,1.29-1.47M34.93,37.97c-.87,0-1.66.88-1.66,1.84,0,.66.4,1.08,1.01,1.08.58,0,.92-.36,1.14-.67.06-.08.08-.18.06-.28-.02-.1-.07-.18-.16-.24l-.07-.05c-.06-.04-.13-.06-.21-.06-.1,0-.21.04-.28.13-.23.27-.31.27-.36.27,0,0-.03-.06-.03-.18,0-.31.11-.64.29-.85.07.22.26.37.51.37.32,0,.58-.26.58-.59,0-.43-.36-.76-.83-.76h0Z"/>
          </g>
          <g>
            <path class="st16" d="M36.06,40.71c-.5,0-.83-.34-.83-.86,0-.57.36-1.19.88-1.51.22-.13.42-.19.64-.19.48,0,.81.35.81.86,0,.41-.2.86-.53,1.22-.3.32-.63.48-.97.48ZM36.69,38.62c-.12,0-.26.12-.4.33-.2.32-.33.71-.33,1.04,0,.04,0,.25.16.25.05,0,.19,0,.37-.29.19-.29.33-.75.33-1.06,0-.03,0-.27-.13-.27Z"/>
            <path class="st16" d="M36.74,38.33c.38,0,.63.27.63.67,0,.36-.18.78-.48,1.09-.26.28-.55.42-.84.42-.4,0-.65-.25-.65-.67,0-.51.32-1.07.79-1.35.18-.11.35-.16.55-.16M36.12,40.42c.19,0,.36-.12.52-.38.21-.32.36-.81.36-1.16,0-.28-.12-.45-.31-.45s-.38.14-.56.42c-.22.34-.35.78-.35,1.14,0,.26.14.43.34.43M36.74,37.97c-.26,0-.49.07-.73.21-.58.35-.97,1.02-.97,1.67s.41,1.04,1.01,1.04c.39,0,.77-.19,1.11-.54.36-.39.58-.89.58-1.35,0-.6-.42-1.04-1-1.04h0ZM36.15,40.05s0-.03,0-.06c0-.29.12-.66.3-.94.08-.12.14-.19.19-.22,0,.01,0,.03,0,.05,0,.29-.13.7-.3.96-.07.11-.13.18-.18.2h0Z"/>
          </g>
          <g>
            <path class="st16" d="M38.04,40.71c-.38,0-.63-.28-.63-.71,0-.88.77-1.84,1.47-1.84.11,0,.22.03.3.08.03-.02.06-.04.09-.04,0,0,.29-.04.29-.04.03,0,.05,0,.08.02.07.04.15.13.13.21,0,0-.03.11-.03.11-.14.54-.26,1.03-.33,1.34l.02-.02s.08-.06.13-.06h0s.09.02.13.05c.07.07.13.22.07.29-.33.44-.49.6-.77.6-.19,0-.31-.1-.35-.27-.19.19-.37.27-.62.27ZM38.88,38.62c-.08,0-.23.09-.39.34-.18.28-.34.74-.34.97,0,.05,0,.17.07.17.06,0,.16-.04.25-.14.28-.33.49-.87.49-1.22,0-.1-.05-.11-.07-.11v-.18s-.01.18-.01.18Z"/>
            <path class="st16" d="M39.56,38.33h.03c0,.06-.01.07-.03.11-.21.8-.41,1.66-.41,1.76,0,.03.03.06.06.06.04,0,.1-.05.23-.2.03-.03.06-.06.13-.14l.05.05c-.34.44-.44.53-.62.53-.12,0-.18-.06-.18-.2,0-.12,0-.16.11-.56-.4.6-.59.76-.9.76-.28,0-.45-.2-.45-.53,0-.76.69-1.66,1.28-1.66.19,0,.32.1.35.28l.05-.23h.01s.27-.05.27-.05M38.22,40.28c.13,0,.28-.08.39-.21.31-.36.54-.94.54-1.34,0-.17-.1-.28-.25-.29,0,0-.02,0-.02,0-.18,0-.37.16-.54.42-.2.31-.37.8-.37,1.07,0,.22.1.35.26.35M38.87,37.97c-.8,0-1.65,1.04-1.65,2.03,0,.54.33.9.81.9.22,0,.4-.06.56-.17.09.11.23.17.41.17.38,0,.58-.24.91-.67.11-.15.1-.36-.03-.49l-.05-.05s-.11-.08-.17-.09c.07-.29.16-.65.26-1.04.02-.06.02-.08.03-.12.03-.16-.05-.33-.2-.4-.06-.03-.14-.05-.21-.05-.01,0-.02,0-.03,0l-.27.03s-.05,0-.08.02c-.09-.04-.19-.05-.29-.05h0ZM38.34,39.82c.04-.21.15-.53.3-.76.04-.07.08-.12.12-.16-.05.3-.22.67-.42.92h0Z"/>
          </g>
          <g>
            <path class="st16" d="M40.09,40.71c-.22,0-.39-.16-.39-.37,0-.03,0-.05.11-.5l.27-1.11h-.09c-.1,0-.18-.08-.18-.18,0-.22.17-.29.26-.32.1-.03.35-.23.51-.46.03-.05.14-.12.2-.12.12,0,.23.08.23.23l-.08.34h.12c.05,0,.1.02.14.06s.05.09.04.15l-.02.15c-.01.09-.09.16-.18.16h-.23l-.26,1.05s.09-.06.14-.06c.03,0,.06,0,.09.03.04.02.1.08.11.13.01.05.03.12,0,.16-.28.45-.47.67-.79.67Z"/>
            <path class="st16" d="M40.79,37.82s.03.02.03.05c0,0,0,.01,0,.03l-.13.5h.35l-.02.15h-.38l-.4,1.62s0,.02,0,.03c0,.06.03.09.07.09.07,0,.15-.08.36-.38l.06.03c-.28.45-.43.59-.63.59-.12,0-.21-.08-.21-.18,0-.02.03-.17.1-.46l.33-1.33h-.33v-.03c0-.05.03-.08.14-.12.15-.04.42-.29.59-.53.02-.03.03-.04.05-.04h.02M41.04,38.4h0M40.79,37.46h-.02c-.2,0-.31.14-.34.19-.15.22-.35.38-.41.4-.12.05-.4.16-.4.48,0,.16.1.31.23.37l-.22.91c-.12.47-.12.49-.12.55,0,.31.25.55.58.55.44,0,.69-.35.95-.76.05-.08.07-.19.04-.28-.02-.1-.09-.18-.17-.23l-.06-.03s-.05-.03-.08-.03l.16-.64h.09c.18,0,.34-.13.36-.31l.02-.11s.01-.06.01-.09c0-.16-.11-.3-.26-.35v-.06s.03-.09.03-.12c0-.23-.17-.41-.39-.41h0Z"/>
          </g>
          <g>
            <path class="st16" d="M41.37,40.71c-.18,0-.38-.12-.38-.46,0-.12.03-.28.11-.58,0,0,.23-.93.24-.96-.02,0-.05,0-.09,0-.1,0-.18-.08-.18-.18s.07-.25.17-.26c.17-.01.27-.03.69-.12.01,0,.02,0,.04,0,.04,0,.08.01.11.04.06.04.1.13.08.2l-.37,1.42s0,0,0,0c.03-.04.08-.07.13-.08,0,0,.01,0,.02,0,.05,0,.1.02.13.05.06.06.13.21.08.28-.25.39-.46.64-.78.64ZM41.92,38c-.23,0-.39-.18-.39-.43s.17-.45.4-.45.4.21.4.45c0,.23-.19.43-.41.43Z"/>
            <path class="st16" d="M41.93,37.3c.12,0,.22.12.22.27,0,.13-.1.24-.22.24s-.21-.1-.21-.25.09-.26.21-.26M41.97,38.33h.01s-.4,1.57-.4,1.57c0,.04-.02.08-.03.1-.03.09-.04.16-.04.21,0,.04.04.07.07.07.04,0,.1-.05.18-.13.04-.05.07-.08.18-.24l.06.06c-.25.41-.42.55-.63.55-.13,0-.2-.1-.2-.27,0-.1.03-.24.11-.53l.22-.86c.02-.1.04-.17.04-.21,0-.1-.04-.11-.28-.12v-.08c.17-.01.28-.03.71-.12M41.93,36.94c-.33,0-.58.27-.58.63,0,.2.08.37.2.48-.15.03-.22.04-.32.05-.19.02-.34.17-.34.37v.08c0,.15.09.28.23.34l-.19.76c-.08.31-.12.48-.12.62,0,.44.29.64.57.64.45,0,.72-.37.94-.72.09-.14.07-.33-.05-.45l-.06-.06s-.1-.08-.16-.09l.29-1.13c.03-.13,0-.26-.1-.35.16-.11.27-.3.27-.52,0-.35-.26-.64-.59-.64h0Z"/>
          </g>
          <g>
            <path class="st16" d="M43.65,40.7c-.15,0-.39-.06-.39-.45,0-.07.01-.13.08-.4l.2-.8c.03-.11.04-.2.05-.25-.06.07-.2.21-.42.58-.19.31-.22.4-.44,1.16-.02.08-.09.13-.18.13h-.33c-.06,0-.11-.03-.15-.07s-.05-.1-.03-.16l.43-1.68s-.05,0-.1,0c-.1,0-.18-.08-.18-.18,0-.09.06-.24.15-.26.39-.08.74-.15.75-.15.04,0,.08.01.11.04.06.05.1.13.08.21v.03c.19-.2.36-.28.55-.28.27,0,.47.2.47.48,0,.08-.02.2-.05.33l-.22.85s0,0,0-.01c.03-.04.08-.07.14-.07h.01c.05,0,.1.02.13.06.06.06.13.23.08.3-.3.43-.47.62-.78.62Z"/>
            <path class="st16" d="M43.85,38.33c.17,0,.29.12.29.29,0,.07-.02.18-.04.28l-.26,1q-.07.27-.07.3s.03.08.07.08c.07,0,.12-.05.37-.38l.06.07c-.31.45-.42.55-.63.55-.14,0-.21-.08-.21-.26,0-.05,0-.09.07-.36l.2-.8c.04-.16.07-.31.07-.37,0-.09-.04-.14-.1-.14-.17,0-.39.24-.66.69-.2.33-.24.43-.46,1.2h-.33l.44-1.7s0-.04,0-.08c0-.1-.06-.12-.28-.13v-.08c.39-.08.48-.1.72-.15h.01s-.3,1.07-.3,1.07c.46-.77.74-1.07,1.03-1.07M43.85,37.97c-.16,0-.31.05-.45.14-.01-.02-.03-.03-.05-.05-.07-.05-.16-.09-.25-.09-.02,0-.05,0-.07,0-.23.05-.32.07-.71.15-.17.03-.3.18-.3.36v.08c0,.15.09.28.23.34l-.38,1.48c-.03.11,0,.23.07.32.07.09.18.14.29.14h.33c.16,0,.31-.11.35-.27.13-.46.19-.67.26-.82v.05c-.08.28-.1.35-.1.45,0,.46.3.63.57.63.41,0,.62-.27.93-.7.1-.14.09-.33-.03-.46l-.06-.07s-.1-.09-.17-.1l.14-.55c.02-.08.06-.24.06-.37,0-.38-.28-.66-.66-.66h0Z"/>
          </g>
          <g>
            <path class="st16" d="M45.03,41.65c-.56,0-.93-.29-.93-.73,0-.29.12-.44.44-.68-.02-.05-.04-.1-.04-.16,0-.15.07-.26.22-.39-.15-.14-.22-.31-.22-.53,0-.56.48-1.01,1.08-1.01.2,0,.39.06.54.17h.24s.1.02.13.06c.03.04.05.08.05.13v.19c0,.1-.09.18-.19.18h0s0,.06,0,.08c0,.48-.5.96-1.01.96-.02,0-.04,0-.05,0,.02,0,.05.02.07.02.51.15.77.42.77.81,0,.53-.46.9-1.12.9ZM44.93,40.54c-.05.04-.13.11-.15.15-.05.06-.06.11-.06.19,0,.2.13.3.38.3s.42-.12.42-.28c0-.07,0-.16-.51-.34l-.07-.02ZM45.58,38.62c-.16,0-.36.29-.36.66,0,.08.01.17.08.17.1,0,.18-.11.22-.2.08-.14.12-.32.12-.47,0-.16-.04-.16-.06-.16Z"/>
            <path class="st16" d="M45.59,38.33c.17,0,.31.05.44.13.03.03.06.04.07.04h.27v.19h-.22c.02.1.03.19.03.27,0,.38-.42.77-.82.77-.05,0-.1,0-.14-.01-.01,0-.02,0-.03,0-.06,0-.16.13-.16.2s.11.15.31.2c.42.12.64.33.64.64,0,.42-.38.71-.93.71-.45,0-.74-.21-.74-.55,0-.23.08-.33.52-.64-.08-.07-.12-.12-.12-.19,0-.11.08-.21.34-.41-.25-.13-.35-.27-.35-.52,0-.46.4-.83.9-.83M45.3,39.64c.15,0,.29-.1.39-.31.09-.17.14-.38.14-.55,0-.22-.08-.34-.25-.34-.29,0-.55.39-.55.84,0,.22.1.36.26.36M45.09,41.37c.35,0,.6-.2.6-.46,0-.22-.16-.35-.63-.52l-.13-.04s-.02,0-.02,0c-.04,0-.22.16-.28.24-.07.09-.1.18-.1.3,0,.31.21.49.56.49M46.37,38.51h0M45.59,37.97c-.7,0-1.26.54-1.26,1.2,0,.21.05.39.15.53-.09.11-.15.24-.15.4,0,.03,0,.06,0,.09-.26.21-.41.41-.41.74,0,.45.34.91,1.11.91s1.3-.44,1.3-1.08c0-.25-.09-.56-.45-.79.36-.19.64-.57.66-.95.11-.06.18-.18.18-.31v-.15s0-.03,0-.05c0-.2-.16-.37-.36-.37h-.18c-.19-.12-.39-.17-.6-.17h0ZM45.09,41c-.19,0-.19-.06-.19-.12,0-.05,0-.05.02-.07.01-.02.03-.04.05-.06.29.1.35.16.37.17,0,0-.09.07-.25.07h0Z"/>
          </g>
          <g>
            <path class="st16" d="M48,40.71c-.19,0-.4-.12-.4-.45,0-.05,0-.11.02-.17l.63-2.56-.11.03c-.1,0-.18-.08-.18-.18,0-.09.07-.25.16-.26.26-.03.42-.06.67-.13.02,0,.03,0,.05,0,.06,0,.12.03.16.09.03.04.05.12.04.17l-.65,2.64s.05-.07.07-.1c.04-.05.09-.08.15-.08.04,0,.07.01.1.03.08.06.16.21.11.29-.29.47-.49.69-.83.69Z"/>
            <path class="st16" d="M48.85,37.16l.02.03-.69,2.81h0s0,.03-.01.05c-.02.09-.03.15-.03.19,0,.06.02.09.07.09.1,0,.14-.04.42-.45l.06.04c-.29.47-.45.61-.68.61-.14,0-.21-.09-.21-.27,0-.03,0-.08.02-.13l.63-2.56s.02-.07.02-.09c0-.07-.09-.11-.23-.11h-.07v-.08c.27-.03.43-.07.7-.13M48.83,36.79s-.05,0-.07,0c-.26.07-.41.09-.65.13-.18.02-.32.18-.32.36v.08c0,.16.1.29.24.35l-.58,2.32c-.02.08-.03.15-.03.22,0,.44.29.64.58.64.46,0,.71-.34.99-.78.1-.17.06-.38-.1-.5l-.06-.04s-.1-.05-.16-.06l.55-2.24c.02-.1,0-.2-.04-.28-.07-.12-.21-.2-.35-.2h0Z"/>
          </g>
          <g>
            <path class="st16" d="M49.22,40.71c-.19,0-.4-.12-.4-.45,0-.05,0-.11.02-.17l.63-2.56-.11.03c-.1,0-.18-.08-.18-.18,0-.09.07-.25.16-.26.26-.03.42-.06.67-.13.02,0,.03,0,.05,0,.06,0,.12.03.16.09.02.04.05.12.04.17l-.65,2.64s.05-.07.07-.1c.04-.05.09-.08.15-.08.04,0,.07.01.1.03.08.06.16.21.11.29-.29.47-.49.69-.83.69Z"/>
            <path class="st16" d="M50.06,37.16l.02.03-.69,2.81h0s0,.03-.01.05c-.02.09-.03.15-.03.19,0,.06.02.09.07.09.1,0,.14-.04.42-.45l.06.04c-.29.47-.45.61-.68.61-.14,0-.21-.09-.21-.27,0-.03,0-.08.02-.13l.63-2.56s.02-.07.02-.09c0-.07-.09-.11-.23-.11h-.07v-.08c.27-.03.43-.07.7-.13M50.05,36.79s-.05,0-.07,0c-.26.07-.41.09-.65.13-.18.02-.32.18-.32.36v.08c0,.16.1.29.24.35l-.58,2.32c-.02.08-.03.15-.03.22,0,.44.29.64.58.64.46,0,.71-.34.99-.78.1-.17.06-.38-.1-.5l-.06-.04s-.1-.05-.16-.06l.55-2.24c.02-.1,0-.2-.04-.28-.07-.12-.21-.2-.35-.2h0Z"/>
          </g>
          <g>
            <path class="st16" d="M50.82,40.71c-.51,0-.83-.35-.83-.9,0-.87.7-1.66,1.48-1.66.37,0,.65.25.65.58,0,.23-.17.41-.39.41s-.36-.15-.36-.37c0-.09.02-.15.06-.22-.1.07-.22.14-.32.25-.22.25-.37.65-.37,1.01,0,.17.04.36.22.36.13,0,.26-.05.5-.33.04-.04.09-.06.14-.06.04,0,.07.01.1.03.04.03.1.1.11.14,0,.05.03.12,0,.16-.3.42-.6.59-.99.59Z"/>
            <path class="st16" d="M51.47,38.33c.27,0,.46.17.46.39,0,.13-.09.22-.21.22-.11,0-.17-.07-.17-.18,0-.05,0-.08.04-.14.02-.05.03-.07.03-.09,0-.06-.06-.1-.17-.1-.18,0-.35.09-.48.23-.25.29-.41.73-.41,1.14,0,.34.15.55.4.55.21,0,.39-.11.63-.39l.07.05c-.27.37-.51.52-.84.52-.41,0-.64-.26-.64-.72,0-.76.63-1.47,1.29-1.47M51.47,37.97c-.87,0-1.66.88-1.66,1.84,0,.66.4,1.08,1.01,1.08.58,0,.92-.36,1.14-.67.06-.08.08-.18.06-.28-.02-.1-.07-.18-.16-.24l-.07-.05c-.06-.04-.13-.06-.21-.06-.1,0-.21.04-.28.13-.23.27-.31.27-.36.27,0,0-.03-.06-.03-.18,0-.31.11-.64.29-.85.07.22.26.37.51.37.32,0,.58-.26.58-.59,0-.43-.36-.76-.83-.76h0Z"/>
          </g>
        </g>
        <g>
          <path class="st16" d="M24.16,40.75c-.25,0-.45-.1-.65-.32-.37.25-.54.32-.84.32-.6,0-1-.38-1-.95,0-.32.12-.58.37-.81.17-.15.36-.27.79-.48h-.06c-.02-.15-.02-.21-.02-.27,0-.69.36-1.17.88-1.17.36,0,.64.28.64.64,0,.22-.1.42-.29.61-.11.11-.24.2-.44.32.06.27.14.51.22.7.1-.14.12-.22.13-.28-.01,0-.03,0-.06,0-.09-.01-.16-.09-.16-.18,0-.1.08-.27.18-.27h.82c.1,0,.18.08.18.18,0,.09-.07.25-.16.26-.11.02-.12.02-.15.05-.03.03-.09.12-.14.2-.11.18-.17.28-.38.59.15.24.25.27.33.27.04,0,.07,0,.19-.1.03-.03.08-.04.12-.04.05,0,.1.02.14.06.06.07.11.22.06.29-.22.28-.43.4-.71.4ZM22.87,39.07c-.26.16-.42.38-.42.6,0,.26.17.45.39.45.13,0,.25-.04.38-.13-.12-.22-.24-.53-.35-.93ZM23.59,37.59c-.1,0-.11.27-.11.43v.03c.11-.12.13-.21.13-.36,0-.08-.01-.11-.01-.11h0Z"/>
          <path class="st16" d="M23.64,37.26c.26,0,.46.2.46.46,0,.17-.08.33-.23.48-.12.12-.25.21-.52.36.11.5.25.9.4,1.15.28-.37.35-.51.35-.67,0-.11-.05-.14-.23-.16v-.09h.82v.08c-.13.02-.17.03-.24.09-.05.04-.1.12-.18.24-.12.2-.18.29-.44.68.18.33.34.45.55.45.1,0,.18-.03.31-.14l.05.05c-.19.24-.35.33-.57.33-.24,0-.41-.11-.61-.38-.46.32-.6.38-.88.38-.49,0-.81-.3-.81-.77,0-.27.1-.48.31-.68.16-.14.35-.26.81-.47,0-.07-.01-.13-.01-.15-.02-.14-.02-.2-.02-.26,0-.58.29-.98.7-.98M23.32,38.41c.37-.26.47-.41.47-.72,0-.2-.06-.28-.2-.28-.2,0-.3.19-.3.61,0,.13,0,.23.03.39M22.84,40.31c.22,0,.41-.08.62-.27-.15-.21-.31-.62-.47-1.24-.43.18-.72.52-.72.87s.25.64.57.64M23.64,36.89c-.62,0-1.07.57-1.07,1.35,0,.05,0,.1.01.19-.33.17-.51.28-.67.42-.29.27-.43.58-.43.95,0,.67.49,1.13,1.18,1.13.31,0,.51-.07.82-.27.16.15.38.27.67.27.43,0,.69-.25.86-.47.11-.14.1-.34-.02-.48l-.05-.05c-.07-.08-.17-.12-.27-.12-.08,0-.16.03-.23.08-.06.05-.08.06-.09.06-.02,0-.06-.03-.1-.09.15-.23.21-.33.31-.49.08-.13.11-.16.11-.16,0,0,0,0,0,0,0,0,.02,0,.04,0,.18-.03.32-.18.32-.36v-.08c0-.2-.16-.37-.37-.37h-.52c.25-.27.3-.53.3-.7,0-.46-.36-.83-.83-.83h0ZM23.7,37.72h0,0ZM22.84,39.95c-.12,0-.21-.12-.21-.27,0-.09.05-.2.14-.29.07.21.13.39.2.54-.05.02-.09.02-.13.02h0Z"/>
        </g>
      </g>
    </g>
    <g>
      <g>
        <path class="st15" d="M32.77,51.01c-4.37,1.21-8.83,1.02-12.58-.84-3.24-1.61-5.48-4.24-6.66-7.42h-2.09c2.1,5.63,8.59,12,21.32,8.26Z"/>
        <path class="st1" d="M11.44,42.75h-4.15c1.27,3.74,3.82,6.85,7.58,8.72,4.39,2.19,9.65,2.31,14.75.74,1.06-.33,2.11-.72,3.15-1.19-12.74,3.74-19.22-2.64-21.32-8.26Z"/>
        <path class="st0" d="M47.86,42.75h-3c-7.96,10.45-21.61,15.01-31.31,10.18-1.11-.56-2.13-1.21-3.04-1.96,14.04,11.53,32.89-1.3,36.56-6.98h0c.17-.26.59-.88.79-1.24ZM47.28,43.65s0,0,0,0c0,0,0,0,0,0ZM47.45,43.33s0,0,0,0c0,0,0,0,0,0Z"/>
        <path class="st3" d="M47.86,42.75c-.2.36-.62.99-.79,1.24-3.67,5.68-22.52,18.51-36.56,6.98-.17-.14-.34-.28-.5-.42,1.66,2.34,3.89,4.29,6.67,5.67.99.49,2.01.9,3.07,1.22,1.41.43,2.86.71,4.35.84,10.21.92,21.9-4.9,28.79-15.17.08-.12.15-.23.22-.35h-5.24Z"/>
      </g>
      <g>
        <path class="st8" d="M27.63,8.99c4.37-1.21,8.83-1.02,12.58.84,3.24,1.61,5.48,4.24,6.66,7.42h2.09c-2.1-5.63-8.59-12-21.32-8.26Z"/>
        <path class="st7" d="M48.95,17.25h4.05s.11,0,.11,0c-1.27-3.74-3.82-6.85-7.58-8.72-4.39-2.19-9.65-2.31-14.75-.74-1.06.33-2.11.72-3.15,1.19,12.74-3.74,19.22,2.64,21.32,8.26Z"/>
        <path class="st4" d="M12.53,17.25h.2s2.8,0,2.8,0c7.96-10.45,21.61-15.01,31.31-10.18,1.11.56,2.13,1.21,3.04,1.96-14.04-11.53-32.89,1.3-36.56,6.98h0c-.17.26-.59.88-.79,1.24ZM13.11,16.35s0,0,0,0c0,0,0,0,0,0ZM12.95,16.67s0,0,0,0c0,0,0,0,0,0Z"/>
        <path class="st6" d="M12.53,17.25c.2-.36.62-.99.79-1.24,3.67-5.68,22.52-18.51,36.56-6.98.17.14.34.28.5.42-1.66-2.34-3.89-4.29-6.67-5.67-.99-.49-2.01-.9-3.07-1.22-1.41-.43-2.86-.71-4.35-.84C26.09.8,14.4,6.62,7.52,16.9c-.08.12-.15.23-.22.35h5.24Z"/>
      </g>
      <g>
        <path class="st5" d="M8.92,26.64l-2.64,8.96h5.1l1.58-5.86c.25-.96.47-1.8.65-2.53.18-.72.34-1.42.47-2.08-.86-1.84-4.47-.67-5.18,1.51Z"/>
        <path class="st2" d="M23.59,26.7c.17-.3.35-.62.55-.97-.25.29-.45.62-.55.97Z"/>
        <path class="st13" d="M28.52,29.22c-1.67.24-2.89,1.13-3.58,1.76.56-.23,1.43-.5,2.49-.41,2.83.25,4.34,2.84,4.52,3.15h4.59c-1.89-3.15-5.05-4.93-8.02-4.5Z"/>
        <path class="st12" d="M53.31,29.73h-11.47c-.8,0-1.43-.23-1.87-.69-.35-.36-.56-.82-.63-1.38.19,3.68,2.34,7.41,4.86,7.96h8.68s1.24-2.12,1.24-2.12c0-.03-.01-.05-.02-.08l-.79-3.68Z"/>
        <path class="st10" d="M36.53,30.57c.37,1.04.91,1.93,1.61,2.67.7.74,1.57,1.32,2.59,1.74,1.02.42,2.19.62,3.49.62h1.88c-2.52-.54-4.68-4.27-4.86-7.96-.02-.16-.03-.32-.03-.49,0-.79.22-1.42.67-1.89.44-.47,1.07-.71,1.87-.71h10.36s-1.24-5.78-1.24-5.78h-8.63c-1.31,0-2.47.2-3.49.61-1.02.41-1.89.97-2.6,1.69-.71.72-1.25,1.59-1.62,2.62-.37,1.02-.55,2.17-.55,3.43,0,1.26.18,2.41.55,3.45Z"/>
        <path class="st9" d="M32.98,20.82c-.23-.79-.62-1.37-1.14-1.75-.53-.38-1.12-.57-1.77-.57-.69,0-1.26.16-1.72.49-.46.33-.84.76-1.14,1.29l-2.69,4.78c-.13.23-.25.44-.37.65,1.35-1.55,4.43-2.15,5.16-.58,0,0,0-.01,0-.02.13.69.29,1.39.48,2.11.18.72.41,1.56.68,2.51l1.58,5.86h5.18l-4.25-14.78Z"/>
        <path class="st14" d="M24.14,25.72c-.2.35-.38.68-.55.97h0s0,0,0,0c-.02.03-.03.06-.05.08-.28.49-.52.93-.73,1.32-.21.39-.39.75-.55,1.06-.16.31-.31.62-.44.92-.15-.3-.31-.61-.47-.93-.16-.32-.34-.67-.55-1.06-.21-.39-.45-.83-.73-1.32-.28-.49-.6-1.07-.97-1.72l-2.69-4.75c-.3-.55-.68-.99-1.14-1.31-.46-.32-1.03-.48-1.7-.48s-1.25.19-1.79.57c-.54.38-.92.96-1.16,1.75l-1.71,5.82c.71-2.18,4.32-3.34,5.18-1.51,0,0,0-.01,0-.02.13.29.27.58.41.88.14.3.31.63.5.99.19.36.41.77.64,1.22.23.45.5.96.8,1.53l2.26,4.25c.22.42.44.75.67.99.23.24.46.43.69.57.23.13.49.22.75.26.27.04.56.06.88.06s.61-.02.88-.06c.27-.04.52-.13.75-.26.23-.13.47-.32.69-.57.23-.24.45-.57.67-.99l2.26-4.22c.57-1.09,1.03-1.99,1.38-2.7.35-.7.66-1.35.95-1.93-.73-1.57-3.81-.97-5.16.58Z"/>
      </g>
      <g>
        <g>
          <path class="st17" d="M9.14,37.31h1.1c.61,0,.94.26.94.73,0,.28-.13.54-.35.72-.19.15-.49.23-.85.23-.18,0-.29,0-.4-.04l-.23.93c-.04.19-.05.22-.05.27,0,.17.02.19.3.23v.08s-1.08,0-1.08,0v-.08c.25-.04.28-.07.36-.36l.51-2.06c.07-.26.07-.32.07-.39,0-.13-.06-.17-.32-.21v-.08ZM9.61,38.79c.13.02.15.02.23.02.28,0,.45-.04.58-.12.2-.12.29-.34.29-.65,0-.23-.05-.38-.17-.47-.09-.07-.26-.11-.43-.11-.12,0-.17.04-.2.14l-.31,1.2Z"/>
          <path class="st17" d="M13,39.99c-.34.44-.44.53-.62.53-.12,0-.17-.06-.17-.2,0-.12,0-.16.11-.56-.4.6-.59.76-.9.76-.28,0-.45-.2-.45-.53,0-.76.69-1.66,1.28-1.66.19,0,.32.1.35.28l.05-.23h.01s.27-.05.27-.05h.03c0,.06-.01.07-.03.11-.21.8-.41,1.66-.41,1.76,0,.03.03.06.06.06.04,0,.1-.05.23-.2.03-.03.06-.06.13-.14l.05.05ZM11.71,38.86c-.2.31-.37.8-.37,1.07,0,.22.1.35.26.35.13,0,.28-.08.38-.21.31-.36.54-.94.54-1.34,0-.17-.1-.28-.24-.29-.18-.01-.39.14-.57.42Z"/>
          <path class="st17" d="M13.2,38.45c.15-.02.42-.08.49-.1.03-.01.07-.02.09-.02t.12.51c.06.36.08.6.11,1.29.42-.45.75-1.01.75-1.28,0-.05-.02-.08-.08-.14-.08-.08-.1-.13-.1-.21,0-.11.07-.17.17-.17.13,0,.24.13.24.28,0,.29-.27.81-.69,1.35-.34.43-.49.59-.57.59-.03,0-.04-.03-.04-.11t0-.07v-.05c0-.15-.04-.87-.06-1.07-.07-.64-.11-.76-.31-.76-.04,0-.08,0-.13,0v-.06Z"/>
          <path class="st17" d="M16.02,39.97c-.25.41-.42.55-.63.55-.13,0-.2-.1-.2-.27,0-.1.03-.24.1-.53l.22-.86c.02-.1.04-.17.04-.22,0-.1-.04-.11-.28-.12v-.08c.17-.01.28-.03.71-.12h.01s-.4,1.57-.4,1.57c0,.04-.02.08-.03.11-.03.09-.04.16-.04.22,0,.04.04.07.07.07.04,0,.1-.05.18-.13.04-.05.07-.08.18-.24l.06.06ZM16.17,37.57c0,.13-.1.24-.22.24s-.21-.1-.21-.25.09-.26.21-.26c.12,0,.22.12.22.27Z"/>
          <path class="st17" d="M18.3,39.97c-.31.44-.42.54-.63.54-.14,0-.21-.08-.21-.26,0-.05,0-.09.07-.36l.2-.8c.04-.16.07-.31.07-.37,0-.09-.04-.14-.1-.14-.17,0-.39.24-.66.69-.2.33-.24.43-.45,1.2h-.33l.44-1.7s0-.04,0-.08c0-.1-.06-.12-.28-.13v-.08c.39-.08.48-.1.72-.15h.01s-.3,1.07-.3,1.07c.46-.77.74-1.07,1.03-1.07.17,0,.29.12.29.29,0,.07-.02.18-.04.28l-.26,1q-.07.27-.07.3s.03.08.07.08c.07,0,.12-.05.37-.38l.06.07Z"/>
          <path class="st17" d="M20.39,38.7h-.22c.02.1.03.19.03.27,0,.38-.42.77-.82.77-.05,0-.1,0-.14-.01-.01,0-.02,0-.03,0-.06,0-.16.13-.16.2s.11.15.31.2c.42.12.63.33.63.64,0,.43-.38.71-.93.71-.45,0-.74-.21-.74-.54,0-.23.08-.33.52-.64-.08-.07-.12-.12-.12-.19,0-.11.08-.21.34-.41-.25-.13-.35-.27-.35-.52,0-.46.4-.83.9-.83.17,0,.31.05.44.13.04.03.06.04.07.04h.27v.19ZM18.96,40.35s-.02,0-.02,0c-.04,0-.22.16-.28.24-.07.09-.1.18-.1.3,0,.31.21.49.56.49s.6-.2.6-.46c0-.22-.16-.35-.63-.52l-.13-.04ZM19.06,39.28c0,.22.1.36.26.36.15,0,.29-.11.39-.31.09-.17.14-.38.14-.55,0-.22-.08-.34-.24-.34-.29,0-.55.39-.55.84Z"/>
          <path class="st17" d="M27.97,38.19c0-.32-.05-.48-.14-.6-.1-.11-.23-.18-.39-.18-.3,0-.49.19-.49.49,0,.24.04.31.45.75.41.44.51.64.51.95,0,.55-.38.96-.89.96-.14,0-.26-.03-.46-.11-.12-.04-.18-.06-.23-.06-.09,0-.14.05-.17.16h-.08l.14-1.08h.09s0,.08,0,.11c0,.46.28.81.66.81.32,0,.56-.27.56-.64,0-.21-.06-.33-.27-.57,0-.01-.09-.11-.17-.21-.08-.09-.17-.19-.17-.2-.28-.32-.34-.45-.34-.72,0-.47.32-.8.78-.8.14,0,.28.02.38.07.1.04.15.05.2.05.1,0,.14-.02.2-.12h.1l-.17.96h-.08Z"/>
          <path class="st17" d="M29.81,40c-.27.32-.61.52-.92.52-.35,0-.58-.27-.58-.65,0-.73.7-1.53,1.35-1.53.22,0,.35.12.35.32,0,.42-.47.79-1.14.89l-.12.02c-.04.18-.05.22-.05.3,0,.26.16.43.41.43.19,0,.33-.08.65-.36l.06.06ZM28.77,39.46c.38-.11.55-.19.72-.36.14-.14.22-.32.22-.48,0-.11-.06-.18-.15-.18-.22,0-.56.37-.71.8l-.08.22Z"/>
          <path class="st17" d="M32.18,39.99c-.34.44-.44.53-.62.53-.12,0-.17-.06-.17-.2,0-.12,0-.16.11-.56-.4.6-.59.76-.9.76-.28,0-.45-.2-.45-.53,0-.76.69-1.66,1.28-1.66.19,0,.32.1.35.28l.05-.23h.01s.27-.05.27-.05h.03c0,.06-.01.07-.03.11-.21.8-.41,1.66-.41,1.76,0,.03.03.06.06.06.04,0,.1-.05.23-.2.03-.03.06-.06.13-.14l.05.05ZM30.89,38.86c-.2.31-.37.8-.37,1.07,0,.22.1.35.26.35.13,0,.28-.08.38-.21.31-.36.54-.94.54-1.34,0-.17-.1-.28-.24-.29-.18-.01-.39.14-.57.42Z"/>
          <path class="st17" d="M33.36,39.92c-.29.47-.45.61-.68.61-.14,0-.21-.09-.21-.27,0-.03,0-.08.02-.13l.63-2.56s.02-.07.02-.09c0-.07-.09-.11-.23-.11h-.07v-.08c.27-.03.43-.07.7-.13l.02.03-.69,2.81h0s0,.03-.01.05c-.02.09-.04.15-.04.19,0,.06.02.09.07.09.1,0,.14-.04.42-.44l.06.04Z"/>
          <path class="st17" d="M35.13,40.01c-.27.37-.51.52-.84.52-.41,0-.64-.26-.64-.72,0-.76.63-1.47,1.29-1.47.27,0,.46.17.46.39,0,.13-.09.22-.21.22-.11,0-.17-.07-.17-.18,0-.05,0-.08.04-.14.02-.05.03-.07.03-.09,0-.06-.06-.1-.17-.1-.17,0-.35.09-.48.23-.25.29-.41.73-.41,1.14,0,.34.15.54.4.54.21,0,.39-.11.63-.39l.07.05Z"/>
          <path class="st17" d="M37.37,39.01c0,.36-.18.78-.48,1.09-.26.28-.55.42-.84.42-.4,0-.65-.25-.65-.67,0-.51.32-1.07.79-1.35.18-.11.35-.16.55-.16.38,0,.63.27.63.67ZM36.14,38.86c-.22.34-.35.78-.35,1.14,0,.26.14.43.34.43s.36-.12.52-.38c.21-.32.35-.81.35-1.16,0-.28-.12-.45-.31-.45s-.38.14-.56.42Z"/>
          <path class="st17" d="M39.63,39.99c-.34.44-.44.53-.62.53-.12,0-.17-.06-.17-.2,0-.12,0-.16.11-.56-.4.6-.59.76-.9.76-.28,0-.45-.2-.45-.53,0-.76.69-1.66,1.28-1.66.19,0,.32.1.35.28l.05-.23h.01s.27-.05.27-.05h.03c0,.06-.01.07-.03.11-.21.8-.41,1.66-.41,1.76,0,.03.03.06.06.06.04,0,.1-.05.23-.2.03-.03.06-.06.13-.14l.05.05ZM38.33,38.86c-.2.31-.37.8-.37,1.07,0,.22.1.35.26.35.13,0,.28-.08.38-.21.31-.36.54-.94.54-1.34,0-.17-.1-.28-.24-.29-.18-.01-.39.14-.57.42Z"/>
          <path class="st17" d="M41.02,38.55h-.38l-.4,1.62s0,.02,0,.03c0,.06.03.09.07.09.07,0,.15-.08.36-.38l.06.03c-.28.45-.43.59-.63.59-.12,0-.21-.08-.21-.18,0-.02.04-.17.1-.46l.33-1.33h-.33v-.03c0-.05.03-.08.14-.12.15-.04.42-.29.59-.53.02-.03.04-.04.05-.04h.02s.03.02.03.05c0,0,0,.01,0,.03l-.13.5h.35l-.02.15Z"/>
          <path class="st17" d="M42,39.97c-.25.41-.42.55-.63.55-.13,0-.2-.1-.2-.27,0-.1.03-.24.1-.53l.22-.86c.02-.1.04-.17.04-.22,0-.1-.04-.11-.28-.12v-.08c.18-.01.28-.03.71-.12h.01s-.4,1.57-.4,1.57c0,.04-.02.08-.03.11-.03.09-.04.16-.04.22,0,.04.04.07.07.07.04,0,.1-.05.18-.13.04-.05.07-.08.18-.24l.06.06ZM42.15,37.57c0,.13-.1.24-.22.24s-.21-.1-.21-.25.09-.26.21-.26c.12,0,.22.12.22.27Z"/>
          <path class="st17" d="M44.27,39.97c-.31.44-.42.54-.63.54-.14,0-.21-.08-.21-.26,0-.05,0-.09.07-.36l.2-.8c.04-.16.07-.31.07-.37,0-.09-.04-.14-.1-.14-.17,0-.39.24-.66.69-.2.33-.24.43-.45,1.2h-.33l.44-1.7s0-.04,0-.08c0-.1-.06-.12-.28-.13v-.08c.39-.08.48-.1.72-.15h.01s-.3,1.07-.3,1.07c.46-.77.74-1.07,1.03-1.07.17,0,.29.12.29.29,0,.07-.02.18-.04.28l-.26,1q-.07.27-.07.3s.03.08.07.08c.07,0,.12-.05.37-.38l.06.07Z"/>
          <path class="st17" d="M46.36,38.7h-.22c.02.1.04.19.04.27,0,.38-.42.77-.82.77-.05,0-.1,0-.14-.01-.01,0-.02,0-.03,0-.06,0-.16.13-.16.2s.11.15.31.2c.42.12.63.33.63.64,0,.43-.38.71-.93.71-.45,0-.74-.21-.74-.54,0-.23.08-.33.52-.64-.08-.07-.12-.12-.12-.19,0-.11.08-.21.34-.41-.25-.13-.35-.27-.35-.52,0-.46.4-.83.9-.83.17,0,.31.05.44.13.03.03.06.04.07.04h.27v.19ZM44.94,40.35s-.02,0-.02,0c-.03,0-.22.16-.28.24-.07.09-.1.18-.1.3,0,.31.21.49.56.49s.6-.2.6-.46c0-.22-.16-.35-.63-.52l-.13-.04ZM45.04,39.28c0,.22.1.36.26.36.15,0,.29-.11.39-.31.09-.17.14-.38.14-.55,0-.22-.08-.34-.25-.34-.29,0-.55.39-.55.84Z"/>
          <path class="st17" d="M48.68,39.92c-.29.47-.45.61-.68.61-.14,0-.21-.09-.21-.27,0-.03,0-.08.02-.13l.63-2.56s.02-.07.02-.09c0-.07-.09-.11-.23-.11h-.07v-.08c.27-.03.43-.07.7-.13l.02.03-.69,2.81h0s0,.03-.01.05c-.02.09-.04.15-.04.19,0,.06.02.09.07.09.1,0,.14-.04.42-.44l.06.04Z"/>
          <path class="st17" d="M49.9,39.92c-.29.47-.45.61-.68.61-.14,0-.21-.09-.21-.27,0-.03,0-.08.02-.13l.63-2.56s.02-.07.02-.09c0-.07-.09-.11-.23-.11h-.07v-.08c.27-.03.43-.07.7-.13l.02.03-.69,2.81h0s0,.03-.01.05c-.02.09-.04.15-.04.19,0,.06.02.09.07.09.1,0,.14-.04.42-.44l.06.04Z"/>
          <path class="st17" d="M51.66,40.01c-.27.37-.51.52-.84.52-.41,0-.64-.26-.64-.72,0-.76.63-1.47,1.29-1.47.27,0,.46.17.46.39,0,.13-.09.22-.21.22-.11,0-.17-.07-.17-.18,0-.05,0-.08.04-.14.02-.05.03-.07.03-.09,0-.06-.06-.1-.17-.1-.17,0-.35.09-.48.23-.25.29-.41.73-.41,1.14,0,.34.15.54.4.54.21,0,.39-.11.63-.39l.07.05Z"/>
        </g>
        <path class="st11" d="M24.68,38.78v.08c-.13.02-.17.03-.24.09-.05.04-.1.11-.18.24-.12.2-.18.29-.44.68.18.33.34.45.55.45.1,0,.17-.03.31-.14l.05.05c-.19.24-.35.33-.57.33-.24,0-.41-.11-.61-.38-.46.33-.6.38-.88.38-.49,0-.81-.3-.81-.76,0-.27.1-.48.31-.68.16-.14.35-.26.81-.47,0-.07-.01-.13-.01-.15-.02-.14-.02-.2-.02-.26,0-.58.29-.98.7-.98.26,0,.46.2.46.46,0,.17-.08.33-.23.48-.12.12-.25.21-.52.36.11.5.25.9.4,1.15.28-.37.35-.51.35-.67,0-.11-.05-.14-.23-.16v-.09h.82ZM22.27,39.68c0,.36.25.64.57.64.22,0,.41-.08.62-.27-.15-.21-.31-.62-.47-1.24-.43.18-.72.52-.72.87ZM23.79,37.69c0-.2-.06-.28-.2-.28-.21,0-.3.19-.3.61,0,.13,0,.23.03.39.37-.26.47-.41.47-.72Z"/>
      </g>
    </g>
  </g>
  <g>
    <path class="st16" d="M65.49,35.02c-.68-.44-.97-.75-1.23-1.27-.35-.75-.52-1.86-.52-3.49s.17-2.87.5-3.58c.24-.54.54-.84,1.25-1.32v-.33c-.74.4-1.07.65-1.53,1.15-1.02,1.09-1.57,2.52-1.57,4.06,0,1.1.3,2.15.88,3.07.54.87,1.06,1.35,2.23,2.06v-.34Z"/>
    <path class="st16" d="M72.55,31.71h-.34c-.4.98-.55,1.07-1.98,1.08h-2.1l2.25-2.15c1.08-1.04,1.57-1.98,1.57-3.04,0-1.49-1.06-2.55-2.56-2.55-.69,0-1.35.27-1.84.78-.54.54-.82,1.01-1.2,2.06h.38c.44-.87.95-1.25,1.69-1.25.62,0,1.08.26,1.37.77.18.3.28.67.28,1,0,.63-.25,1.38-.71,2.06-.71,1.1-1.2,1.68-3.21,3.85v.31h5.76l.64-2.93Z"/>
    <path class="st16" d="M73.96,26.67c-.45.75-.75,2.08-.75,3.23,0,2.89,1.3,4.92,3.14,4.92s3.13-2.06,3.13-4.88-1.36-4.89-3.13-4.89c-.91,0-1.81.61-2.39,1.62ZM75.4,28.35c0-2.12.26-2.92.93-2.92s.95.87.95,2.92v3.2c0,.82-.11,1.91-.24,2.28-.14.41-.37.61-.69.61-.68,0-.95-.82-.95-2.89v-3.2Z"/>
    <path class="st16" d="M80.14,26.93c.13-.04.21-.07.28-.1.37-.16.71-.24.91-.24.33,0,.5.31.5.95v5.38c0,1.12-.3,1.38-1.66,1.38v.34h5.2v-.34c-1.25-.01-1.49-.23-1.49-1.31v-7.94h-.24l-3.5,1.52v.36Z"/>
    <path class="st16" d="M86.03,35.03v.33c.73-.4,1.07-.65,1.53-1.15,1.02-1.1,1.57-2.52,1.57-4.06,0-1.1-.3-2.15-.88-3.07-.54-.87-1.06-1.35-2.23-2.06v.34c.68.43.97.75,1.23,1.27.35.75.52,1.86.52,3.5s-.17,2.86-.5,3.57c-.24.53-.54.84-1.25,1.32Z"/>
    <path class="st16" d="M94.16,28.31h.34c.24-.85.64-1.19,1.36-1.18h2.87l-2.78,7.51h1.32l3.27-9.42h-5.78l-.61,3.09Z"/>
    <path class="st16" d="M106.93,26.98l.59-1.76h-4.47l-1.35,4.81c1.35.09,1.88.17,2.51.37,1.23.38,1.97,1.18,1.97,2.11,0,.78-.61,1.39-1.39,1.39-.33,0-.69-.17-1.25-.58-.59-.44-1.01-.63-1.39-.63-.5,0-.85.36-.85.84,0,.74.81,1.22,2.04,1.22,2.28,0,3.91-1.39,3.91-3.36,0-1.47-.88-2.56-2.39-3-.54-.16-.95-.21-2.1-.28l.3-1.12h3.87Z"/>
    <path class="st16" d="M110.43,34.75c2.28,0,3.91-1.39,3.91-3.36,0-1.47-.88-2.56-2.39-3-.54-.16-.95-.21-2.1-.28l.3-1.12h3.87l.59-1.76h-4.47l-1.35,4.81c1.35.09,1.88.17,2.51.37,1.23.38,1.97,1.18,1.97,2.11,0,.78-.61,1.39-1.39,1.39-.33,0-.69-.17-1.25-.58-.59-.44-1.01-.63-1.39-.63-.5,0-.85.36-.85.84,0,.74.81,1.22,2.04,1.22Z"/>
    <rect class="st16" x="115.76" y="30.64" width="3.37" height="1.62"/>
    <path class="st16" d="M121.82,27.13h2.87l-2.78,7.51h1.32l3.27-9.42h-5.78l-.61,3.09h.34c.24-.85.64-1.19,1.36-1.18Z"/>
    <path class="st16" d="M127.35,32.44c0,1.42,1.18,2.38,2.95,2.38,1.93,0,3.21-1.11,3.21-2.79,0-1.21-.59-2.08-2.08-3.03,1.33-.47,1.88-1.04,1.88-1.93,0-1.24-1.05-2.02-2.7-2.02-1.87,0-3.1.97-3.1,2.45,0,1.05.55,1.81,1.93,2.63-.78.26-1.12.44-1.47.8-.4.38-.61.91-.61,1.52ZM129.3,26.61c0-.67.5-1.17,1.16-1.17.75,0,1.2.63,1.2,1.69,0,.68-.11,1-.57,1.62-1.15-.6-1.8-1.38-1.8-2.15ZM129.73,30.37c1.53,1.02,1.86,1.47,1.86,2.5,0,.94-.45,1.51-1.2,1.51-.85,0-1.35-.74-1.35-1.98,0-.78.14-1.2.69-2.03Z"/>
    <path class="st16" d="M134.56,27.18l.28.17c.54-.87.99-1.18,1.7-1.18.88,0,1.42.55,1.42,1.44s-.48,1.41-1.8,1.83v.23c1.16.41,1.6.64,2.11,1.12.44.4.68,1.02.68,1.71,0,1-.52,1.64-1.36,1.64-.33,0-.59-.16-1.05-.61-.54-.53-.95-.75-1.39-.75-.52,0-.89.33-.89.81,0,.75.84,1.25,2.12,1.25,2.32,0,4.15-1.59,4.15-3.63,0-.65-.21-1.24-.61-1.72-.3-.34-.52-.51-1.09-.75.88-.55,1.15-.95,1.15-1.76,0-1.21-.84-1.92-2.25-1.92s-2.42.7-3.17,2.13Z"/>
    <path class="st16" d="M145.13,28.78c-.45,0-.75.06-1.18.23.51-2.05,1.67-3.17,3.7-3.59v-.37c-1.84.27-2.72.57-3.75,1.29-1.56,1.08-2.38,2.63-2.38,4.5,0,2.4,1.27,3.98,3.21,3.98,1.73,0,2.99-1.38,2.99-3.27,0-1.69-1.02-2.77-2.59-2.77ZM144.77,34.45c-.34,0-.57-.13-.72-.41-.23-.46-.37-1.47-.37-2.77,0-.87.09-1.65.18-1.72.1-.09.3-.14.5-.14.93,0,1.25.77,1.25,2.97,0,1.66-.17,2.08-.84,2.08Z"/>
    <path class="st16" d="M71.3,14.77l.15.24.07-.04c.26-.16.53-.24.81-.24.14,0,.33.04.66.14.44.14.85.22,1.15.22.43,0,.96-.22,1.35-.55.18-.15.28-.27.47-.56l.04-.06-.22-.18-.05.05c-.4.45-.67.59-1.19.59-.23,0-.48-.05-.89-.17-.42-.13-.68-.18-.84-.17h-.01s.26-.3.26-.3c.57-.04.86-.13,1.26-.38,1.11-.67,1.85-2,1.85-3.29,0-1.15-.75-1.98-1.78-1.98-.63,0-1.3.33-1.9.94-.75.76-1.18,1.75-1.18,2.7,0,.7.24,1.28.66,1.64.18.15.33.24.58.31-.59.57-.67.64-1.19,1.05l-.05.04ZM72.23,12.04c0-.74.35-1.9.78-2.6.4-.63.82-.92,1.33-.92.55,0,.89.45.89,1.17,0,.85-.33,2-.78,2.72-.39.62-.83.92-1.33.92-.57,0-.89-.46-.89-1.29Z"/>
    <path class="st16" d="M76.6,12.19c-.15.59-.2.86-.2,1.01,0,.43.26.51.47.51.5,0,.86-.34,1.56-1.53-.14.56-.21.91-.21,1.06,0,.29.16.46.43.46.4,0,.59-.21,1.09-.98l.04-.06-.23-.15-.04.06c-.36.49-.47.61-.55.61,0,0,0-.01,0-.05,0-.04,0-.05.15-.62l.62-2.51h-.7l-.02.05c-.44,1.27-.48,1.38-.82,1.95-.59,1.03-.88,1.14-.98,1.14-.02,0-.04,0-.05-.02-.02-.02-.03-.06-.03-.09v-.06s.72-2.98.72-2.98l-.09-.07h-.04c-.38.11-.65.16-1.11.22h-.07v.26h.08q.28,0,.33.04s.04.05.04.09c0,.05-.03.22-.11.52l-.28,1.15Z"/>
    <path class="st16" d="M80.69,13.71c.48,0,.8-.21,1.32-.95-.07.3-.08.38-.08.54,0,.27.12.4.37.4.35,0,.54-.19,1.09-.91l.04-.05-.19-.19-.05.06c-.07.09-.12.14-.16.18-.02.02-.03.03-.05.05-.08.09-.27.3-.33.3-.02,0-.03-.01-.03-.03,0-.14.3-1.46.68-2.91l.02-.06s.02-.06.03-.12v-.06s-.11-.06-.11-.06l-.5.06-.05.06-.03.15c-.12-.18-.31-.27-.57-.27-1.03,0-2.21,1.51-2.21,2.84,0,.6.31.96.82.96ZM81.25,10.91c.29-.44.61-.69.88-.67.21.01.34.17.34.41,0,.65-.38,1.59-.88,2.19-.17.2-.39.32-.58.32-.32,0-.35-.36-.35-.51,0-.42.28-1.24.6-1.74Z"/>
    <path class="st16" d="M84.18,13.71c.42,0,.69-.23,1.19-1.05l.04-.06-.22-.16-.04.06c-.46.65-.52.71-.64.71-.02,0-.03,0-.03-.07,0-.06.03-.18.06-.29,0-.02,0-.03,0-.04v-.02s.01-.03.01-.03l1.14-4.67v-.03s-.07-.12-.07-.12h-.06c-.45.13-.72.18-1.15.24h-.07v.28h.2c.2,0,.3.05.3.11,0,.02,0,.06-.03.13l-1.05,4.26c-.02.08-.03.16-.03.23,0,.45.27.52.43.52Z"/>
    <path class="st16" d="M85.99,12.28c-.13.47-.18.73-.18.9,0,.48.29.53.41.53.37,0,.67-.26,1.11-.95l.03-.05-.2-.2-.05.08c-.19.26-.23.32-.3.4-.15.16-.23.2-.25.2-.01,0-.04-.02-.04-.04,0-.08.03-.21.07-.34v-.03s.04-.09.05-.14l.68-2.65-.09-.07h-.03c-.73.15-.89.18-1.18.2h-.07v.28h.08c.11,0,.34,0,.38.05,0,0,.01.02.01.07,0,.06-.02.17-.05.3l-.37,1.46Z"/>
    <path class="st16" d="M87.14,9.2c.24,0,.45-.22.45-.48,0-.28-.2-.52-.44-.52-.25,0-.43.22-.43.51s.18.49.43.49Z"/>
    <path class="st16" d="M87.71,13.33c0,.22.18.38.43.38.38,0,.64-.24,1.12-1.02l.04-.07-.22-.13-.04.06c-.27.38-.45.6-.54.6-.03,0-.03-.06-.03-.07,0,0,0-.01,0-.02l.65-2.65h.63l.04-.27v.26l.1-.02c.09-.02.14-.03.21-.03.24,0,.37.07.51.51.21.63.56,2.29.56,2.61,0,.11-.04.21-.15.36-.28.42-.42.57-.46.62-.15.18-.22.22-.28.22-.02,0-.06-.02-.12-.07-.13-.11-.22-.15-.33-.15-.21,0-.37.17-.37.4,0,.25.19.43.45.43.6,0,1.63-1.48,2.33-2.85.51-1,.73-1.6.73-2,0-.29-.22-.52-.48-.52-.22,0-.37.16-.37.38,0,.17.09.27.25.38.13.08.15.13.15.21,0,.29-.24.85-.8,1.86l-.11-.72c-.06-.41-.47-2.1-.7-2.1h-.07s-.02,0-.02,0h-.01s-.18.03-.41.08l-.32.06s-.05,0-.09.02c-.04,0-.09.02-.14.02h-.06s.01-.09.01-.09h-.58l.19-.73s.01-.06.01-.07c0-.12-.07-.16-.12-.16h-.04c-.07,0-.11.05-.15.1-.28.4-.72.79-.96.86-.15.06-.28.12-.28.28v.12h.53l-.52,2.13c-.18.73-.18.76-.18.78Z"/>
    <path class="st16" d="M96.67,13.35h-.06c-.44-.06-.44-.11-.44-.27,0-.15,0-.21.08-.48l.87-3.57c.12-.44.14-.47.54-.54h.07s-.02-.28-.02-.28h-1.97v.27h.07c.44.07.46.12.46.29,0,.11-.02.24-.08.48l-.88,3.56c-.12.44-.15.47-.53.54h-.06v.28h1.97l-.02-.27Z"/>
    <path class="st16" d="M98.72,12.84c0,.33-.19.55-.48.55-.26,0-.54-.12-.67-1.03v-.07h-.26l-.18,1.44h.25l.02-.04c.06-.12.08-.12.1-.12.08,0,.21.03.34.07.17.05.29.08.43.08.67,0,1.15-.48,1.15-1.14,0-.33-.16-.69-.51-1.17-.27-.36-.38-.59-.38-.8,0-.23.13-.36.34-.36s.52.09.6.86v.07h.26l.18-1.28h-.24l-.02.04c-.05.09-.07.1-.15.1-.05,0-.12-.01-.24-.05-.19-.06-.3-.08-.45-.08-.58,0-.97.39-.97.97,0,.28.15.63.47,1.09.27.38.39.65.39.87Z"/>
    <path class="st16" d="M103.98,13.77c1.57,0,3.07-1.7,3.15-3.57.03-.63-.17-1.19-.55-1.59-.32-.33-.75-.51-1.21-.51-.64,0-1.33.33-1.93.94-.75.75-1.18,1.74-1.18,2.7,0,1.18.72,2.03,1.71,2.03ZM103.98,9.44c.4-.63.82-.92,1.33-.92.55,0,.88.45.88,1.17,0,.85-.33,2-.79,2.74-.39.62-.82.92-1.31.92-.58,0-.89-.46-.89-1.31,0-.75.35-1.92.77-2.6Z"/>
    <path class="st16" d="M109.4,12.18c-.14.56-.21.91-.21,1.06,0,.29.16.46.43.46.4,0,.59-.21,1.09-.98l.04-.06-.23-.15-.04.06c-.36.49-.47.61-.55.61,0,0,0-.01,0-.05,0-.04,0-.05.15-.62l.62-2.51h-.7l-.02.05c-.44,1.27-.48,1.38-.82,1.95-.59,1.03-.88,1.14-.98,1.14-.02,0-.04,0-.05-.02-.02-.02-.03-.06-.03-.09v-.06s.71-2.93.71-2.93v-.05s-.08-.07-.08-.07h-.04c-.38.11-.65.16-1.11.22h-.07v.26h.07q.28,0,.33.04s.04.05.04.09c0,.05-.03.22-.11.52l-.28,1.15c-.15.59-.2.86-.2,1.01,0,.43.26.51.47.51.5,0,.86-.34,1.56-1.53Z"/>
    <path class="st16" d="M111.04,13.63h.72l.02-.06c.39-1.37.51-1.7.85-2.32.37-.65.51-.66.52-.66,0,0,.02,0,.05.06.07.16.16.22.33.22.26,0,.42-.18.42-.47s-.17-.49-.42-.49c-.19,0-.42.13-.62.37-.18.2-.38.47-.52.72l.24-1.02-.09-.07-.09.02c-.49.09-.57.11-1.08.2h-.06v.31l.16-.03c.11-.02.13-.03.17-.03.18,0,.18.11.18.15,0,.09-.06.41-.11.65l-.64,2.45Z"/>
    <path class="st16" d="M117.36,13.35h-.06c-.44-.08-.44-.09-.44-.32,0-.07.01-.12.07-.38l.38-1.54c.16.03.34.05.61.05.63,0,1.14-.14,1.47-.41.38-.31.6-.77.6-1.26,0-.83-.59-1.29-1.65-1.29h-1.91v.27h.07c.44.07.46.14.46.27,0,.11-.01.19-.12.63l-.84,3.43c-.12.46-.14.48-.53.54h-.07v.28h1.97l-.02-.27ZM117.89,8.77c.03-.12.08-.17.26-.17.28,0,.54.07.67.17.17.14.25.36.25.73,0,.49-.15.83-.45,1.02-.22.14-.49.2-.93.2-.11,0-.15,0-.29-.02l.49-1.92Z"/>
    <path class="st16" d="M120.15,13.63h.72l.02-.06c.39-1.37.51-1.7.85-2.32.37-.65.51-.66.52-.66,0,0,.02,0,.05.06.07.16.16.22.33.22.26,0,.42-.18.42-.47s-.17-.49-.42-.49c-.19,0-.42.13-.62.37-.18.2-.38.47-.52.72l.24-1.02-.09-.07-.09.02c-.49.09-.57.11-1.08.2h-.06v.31l.16-.03c.11-.02.13-.03.17-.03.18,0,.18.11.18.15,0,.09-.06.41-.11.65l-.64,2.45Z"/>
    <path class="st16" d="M124.42,9.2c.24,0,.45-.22.45-.48,0-.28-.2-.52-.44-.52-.25,0-.43.22-.43.51s.18.49.43.49Z"/>
    <path class="st16" d="M123.26,12.28c-.13.47-.18.73-.18.9,0,.48.29.53.41.53.37,0,.67-.26,1.11-.95l.03-.05-.2-.2-.05.08c-.19.26-.23.32-.3.4-.15.16-.23.2-.25.2-.01,0-.04-.02-.04-.04,0-.08.03-.21.07-.34v-.03s.04-.09.05-.14l.68-2.65-.09-.07h-.03c-.73.15-.89.18-1.18.2h-.07v.28h.08c.11,0,.34,0,.38.05,0,0,.01.02.01.07,0,.06-.02.17-.05.3l-.37,1.46Z"/>
    <path class="st16" d="M126.01,13.71c.51,0,1-.24,1.45-.72.5-.54.81-1.26.81-1.88,0-.72-.45-1.2-1.13-1.2-.33,0-.63.09-.95.28-.79.48-1.35,1.44-1.35,2.32,0,.74.44,1.2,1.16,1.2ZM126.2,10.9c.28-.44.57-.67.86-.67.27,0,.44.26.44.67,0,.57-.24,1.37-.58,1.89-.25.4-.51.59-.81.59s-.49-.26-.49-.64c0-.58.22-1.29.58-1.85Z"/>
    <path class="st16" d="M128.69,13.63h.72l.02-.06c.39-1.37.51-1.7.85-2.32.37-.65.51-.66.52-.66,0,0,.02,0,.05.06.07.16.16.22.33.22.26,0,.42-.18.42-.47s-.17-.49-.42-.49c-.19,0-.42.13-.62.37-.18.2-.38.47-.52.72l.24-1.02-.09-.07-.09.02c-.49.09-.57.11-1.08.2h-.06v.31l.16-.03c.11-.02.13-.03.17-.03.18,0,.18.11.18.15,0,.09-.06.41-.11.65l-.64,2.45Z"/>
    <path class="st16" d="M132.96,9.2c.24,0,.45-.22.45-.48,0-.28-.2-.52-.44-.52-.25,0-.43.22-.43.51s.18.49.43.49Z"/>
    <path class="st16" d="M131.8,12.28c-.13.47-.18.73-.18.9,0,.48.29.53.41.53.37,0,.67-.26,1.11-.95l.03-.05-.2-.2-.05.08c-.19.26-.23.32-.3.4-.15.16-.23.2-.25.2-.01,0-.04-.02-.04-.04,0-.08.03-.21.07-.34v-.03s.04-.09.05-.14l.68-2.65-.09-.07h-.03c-.73.15-.89.18-1.18.2h-.07v.28h.08c.11,0,.34,0,.38.05,0,0,.01.02.01.07,0,.06-.02.17-.05.3l-.37,1.46Z"/>
    <path class="st16" d="M133.53,13.33c0,.22.18.38.43.38.38,0,.64-.24,1.12-1.02l.04-.07-.22-.13-.04.06c-.27.38-.45.6-.54.6-.03,0-.03-.06-.03-.07,0,0,0-.01,0-.02l.65-2.65h.63l.04-.27v.26l.1-.02c.09-.02.14-.03.21-.03.24,0,.37.07.51.51.21.63.56,2.29.56,2.61,0,.11-.04.21-.15.36-.28.42-.42.57-.46.62-.15.18-.22.22-.28.22-.02,0-.06-.02-.12-.07-.13-.11-.22-.15-.33-.15-.21,0-.37.17-.37.4,0,.25.19.43.45.43.6,0,1.63-1.48,2.33-2.85.51-1,.73-1.6.73-2,0-.29-.22-.52-.48-.52-.22,0-.37.16-.37.38,0,.17.09.27.25.38.13.08.15.13.15.21,0,.29-.24.85-.8,1.86l-.11-.72c-.06-.41-.47-2.1-.7-2.1h-.07s-.02,0-.02,0h-.01s-.18.03-.41.08l-.32.06s-.05,0-.09.02c-.04,0-.09.02-.14.02h-.06s.01-.09.01-.09h-.58l.19-.73s.01-.06.01-.07c0-.12-.07-.16-.12-.16h-.04c-.07,0-.11.05-.15.1-.28.4-.72.79-.96.86-.15.06-.28.12-.28.28v.12h.53l-.52,2.13c-.18.73-.18.76-.18.78Z"/>
    <path class="st16" d="M105.68,50.27c-.22.18-.32.23-.48.23-.32,0-.56-.19-.84-.69l.15-.23c.29-.45.39-.6.57-.89.13-.21.22-.33.29-.39.1-.08.16-.1.37-.13h.07v-.29h-1.56v.3h.07c.32.04.32.1.32.21,0,.24-.11.47-.5.99-.22-.43-.43-1.05-.6-1.78.44-.24.66-.39.86-.6.28-.28.42-.57.42-.88,0-.49-.37-.86-.86-.86-.75,0-1.27.72-1.27,1.76,0,.11,0,.2.04.44,0,.02,0,.06,0,.11,0,.03,0,.07,0,.1-.75.36-1.08.55-1.35.8-.38.35-.55.74-.55,1.21,0,.84.57,1.38,1.46,1.38.49,0,.73-.1,1.48-.62.34.44.65.62,1.06.62s.7-.17,1.03-.59l.04-.05-.18-.19-.06.05ZM103.88,45.68c.12,0,.26.03.26.4,0,.47-.13.7-.65,1.08-.02-.19-.03-.34-.03-.52,0-.85.23-.96.43-.96ZM102.6,50.47c-.5,0-.9-.44-.9-1s.43-1.07,1.09-1.37c.25.94.5,1.6.75,1.99-.32.27-.6.39-.95.39Z"/>
    <path class="st16" d="M69.8,46.64c0-.82-.59-1.28-1.67-1.28h-1.95v.28h.07c.32.06.34.07.41.11.03.02.07.09.07.17s-.03.27-.09.49l-.9,3.65c-.12.47-.15.49-.54.55h-.07v.29h2.01l-.02-.28h-.06c-.45-.08-.45-.09-.45-.32,0-.07.01-.17.09-.45l.39-1.66.37.03.96,2.68h1.25v-.28h-.07c-.3-.03-.43-.14-.56-.55l-.69-1.95c.53-.13.78-.26,1.05-.52.26-.25.4-.59.4-.98ZM67.5,47.77c-.1,0-.17,0-.29-.02l.46-1.81c.03-.12.08-.17.31-.17.58,0,.86.28.86.87,0,.77-.44,1.14-1.34,1.14Z"/>
    <path class="st16" d="M72.35,49.87c-.52.47-.75.6-1.06.6-.38,0-.62-.26-.62-.66,0-.12.01-.19.07-.44l.15-.02c1.18-.18,2.01-.83,2.01-1.59,0-.39-.26-.63-.68-.63-1.13,0-2.37,1.41-2.37,2.69,0,.7.44,1.19,1.07,1.19.55,0,1.16-.34,1.63-.92l.04-.05-.2-.21-.06.05ZM70.93,48.77c.27-.75.82-1.32,1.13-1.32.13,0,.18.12.18.23,0,.25-.13.53-.36.76-.25.26-.49.39-1.04.55l.08-.22Z"/>
    <path class="st16" d="M75.44,47.15c-.05.09-.08.1-.15.1-.05,0-.12-.02-.24-.05-.19-.06-.31-.09-.46-.09-.59,0-.99.4-.99.99,0,.28.16.65.48,1.11.27.38.4.67.4.89,0,.34-.2.56-.49.56-.26,0-.55-.13-.68-1.06v-.07h-.27l-.18,1.47h.26l.02-.05c.06-.12.08-.12.11-.12.08,0,.22.03.35.07.17.05.3.09.44.09.68,0,1.17-.49,1.17-1.16,0-.34-.16-.71-.52-1.19-.27-.37-.39-.61-.39-.82,0-.23.13-.37.35-.37s.53.09.61.88v.07h.27l.19-1.31h-.25l-.02.04Z"/>
    <path class="st16" d="M77.51,49.84c-.19.27-.23.33-.31.41-.15.17-.24.2-.25.2-.02,0-.04-.02-.04-.04,0-.09.03-.22.07-.34v-.04s.04-.1.05-.14l.7-2.71-.09-.07h-.03c-.74.15-.91.18-1.21.21h-.07v.29h.08c.11,0,.34,0,.39.05,0,0,.01.02.01.07,0,.07-.02.17-.06.31l-.38,1.5c-.13.48-.18.74-.18.92,0,.49.29.54.42.54.39,0,.68-.25,1.13-.97l.03-.05-.21-.21-.05.08Z"/>
    <path class="st16" d="M77.55,45.36c-.26,0-.44.22-.44.53s.18.5.44.5.46-.23.46-.49c0-.29-.21-.53-.45-.53Z"/>
    <path class="st16" d="M81.38,49.86c-.42.51-.47.56-.56.56-.03,0-.06-.03-.06-.08,0-.1.22-.99.5-2.01.19-.69.37-1.37.78-3.06v-.04s-.08-.12-.08-.12h-.05c-.43.11-.7.16-1.15.21h-.07v.29h.08c.39.02.39.03.39.14,0,.1,0,.1-.12.55l-.27,1.08c-.09-.18-.24-.26-.48-.26-1.03,0-2.31,1.59-2.31,2.88,0,.63.32,1.01.87,1.01.46,0,.79-.2,1.22-.79-.03.15-.04.25-.04.37,0,.26.16.45.39.45.35,0,.77-.35,1.18-.97l.03-.05-.2-.2-.05.07ZM79.73,50.13c-.18.2-.39.31-.57.31-.22,0-.36-.18-.36-.47,0-.65.38-1.6.87-2.16h0c.18-.22.43-.36.62-.36,0,0,.02,0,.03,0,.11,0,.26.06.26.39,0,.77-.35,1.71-.84,2.28Z"/>
    <path class="st16" d="M82.85,49.34c1.18-.18,2.01-.83,2.01-1.59,0-.39-.26-.63-.68-.63-1.13,0-2.37,1.41-2.37,2.69,0,.7.44,1.19,1.07,1.19.55,0,1.16-.34,1.63-.92l.04-.05-.2-.21-.06.05c-.52.47-.75.6-1.06.6-.38,0-.62-.26-.62-.66,0-.12.01-.19.07-.44l.15-.02ZM82.89,48.77c.27-.75.82-1.32,1.13-1.32.13,0,.18.12.18.23,0,.25-.13.53-.36.76-.25.26-.49.39-1.04.55l.08-.22Z"/>
    <path class="st16" d="M88.41,49.82c-.39.53-.48.62-.56.62-.02,0-.04-.02-.04-.05,0-.05,0-.05.11-.49l.44-1.7c.05-.2.08-.38.08-.5,0-.34-.23-.58-.57-.58-.46,0-.89.38-1.52,1.36l.37-1.3-.1-.07h-.03c-.41.1-.57.13-1.22.26h-.06v.28h.08c.4.02.4.08.4.15,0,.06,0,.08-.01.12l-.77,2.99h.73l.02-.06c.36-1.3.43-1.47.77-2.02.59-.99.91-1.13,1.06-1.13.09,0,.1.1.1.16,0,.08-.04.33-.11.61l-.34,1.37c-.11.46-.13.54-.13.63,0,.23.04.53.43.53s.62-.23,1.13-.96l.04-.05-.21-.23-.06.08Z"/>
    <path class="st16" d="M90.64,46.47s.01-.06.01-.07c0-.12-.07-.16-.12-.16h-.04c-.07,0-.11.06-.15.11-.28.4-.74.81-.98.88-.19.07-.29.14-.29.28v.13h.54l-.53,2.17c-.18.74-.18.78-.18.8,0,.22.19.39.44.39.39,0,.66-.24,1.15-1.04l.04-.07-.23-.13-.04.06c-.28.39-.46.62-.55.62-.03,0-.03-.05-.03-.08,0,0,0,0,0-.02l.67-2.71h.65l.06-.42h-.59l.19-.74Z"/>
    <path class="st16" d="M92.41,49.84c-.19.27-.23.33-.31.41-.18.2-.25.2-.25.2-.02,0-.04-.02-.04-.04,0-.09.03-.22.07-.34v-.04s.04-.1.05-.15l.7-2.71-.09-.07h-.03c-.74.15-.91.18-1.21.21h-.07v.29h.08c.11,0,.34,0,.39.05,0,0,.01.02.01.07,0,.07-.02.17-.06.31l-.38,1.49c-.13.48-.18.74-.18.92,0,.49.29.54.42.54.38,0,.69-.26,1.13-.97l.03-.05-.21-.21-.05.08Z"/>
    <path class="st16" d="M92.45,45.36c-.26,0-.44.22-.44.53s.18.5.44.5.46-.23.46-.49c0-.29-.21-.53-.45-.53Z"/>
    <path class="st16" d="M96.27,49.87c-.08.09-.13.14-.16.18-.02.02-.03.03-.05.05-.08.09-.27.31-.34.31-.02,0-.03-.01-.03-.03,0-.14.31-1.5.7-2.97l.02-.06s.02-.06.03-.12v-.06s-.12-.06-.12-.06l-.51.06-.06.06-.03.16c-.12-.18-.32-.28-.58-.28-1.06,0-2.26,1.55-2.26,2.9,0,.62.31.98.84.98.49,0,.81-.22,1.35-.97-.07.3-.08.38-.08.55,0,.28.12.41.38.41.35,0,.56-.2,1.12-.93l.04-.05-.2-.2-.06.07ZM94.63,50.1c-.17.2-.4.33-.6.33-.32,0-.36-.37-.36-.52,0-.44.28-1.26.61-1.78.29-.45.62-.7.9-.68.21.01.34.17.34.42,0,.67-.39,1.63-.9,2.24Z"/>
    <path class="st16" d="M98.7,45.11c-.47.12-.74.17-1.18.23h-.07v.29h.21c.2,0,.31.06.31.11,0,.02,0,.06-.03.14l-1.07,4.36c-.02.09-.03.17-.03.24,0,.47.28.53.44.53.43,0,.7-.24,1.22-1.07l.04-.06-.23-.16-.05.06c-.47.67-.54.72-.66.72-.02,0-.03,0-.03-.08,0-.06.03-.19.06-.3,0-.02,0-.03,0-.04v-.02s.01-.03.01-.03l1.17-4.78v-.03s-.07-.13-.07-.13h-.06Z"/>
    <path class="st16" d="M113.43,45.27h-.31l-.02.05c-.04.1-.09.13-.21.13-.06,0-.13-.01-.29-.05-.35-.09-.66-.14-.91-.14-1.66,0-3.12,1.65-3.12,3.54,0,1.33.85,2.26,2.08,2.26.8,0,1.41-.36,2.11-1.26l.05-.06-.25-.21-.05.06c-.66.71-1.07.94-1.67.94-.8,0-1.26-.6-1.26-1.65,0-.96.34-1.91.91-2.56.35-.39.8-.6,1.27-.6.66,0,1.01.41,1.09,1.26v.06s.28.05.28.05l.3-1.81Z"/>
    <path class="st16" d="M115.49,47.11c-.33,0-.64.09-.97.29-.81.49-1.38,1.47-1.38,2.37,0,.76.45,1.23,1.18,1.23.52,0,1.02-.25,1.49-.74.51-.55.83-1.29.83-1.92,0-.73-.46-1.23-1.15-1.23ZM115.26,50.06c-.26.41-.53.61-.83.61s-.5-.26-.5-.65c0-.6.23-1.32.59-1.9.28-.45.58-.68.88-.68.28,0,.45.26.45.69,0,.59-.25,1.4-.59,1.94Z"/>
    <path class="st16" d="M122,49.75l-.05.07c-.48.62-.48.62-.59.62,0,0,0-.02,0-.05,0-.01,0-.07.08-.35l.53-2.08s.02-.2.02-.25c0-.34-.22-.59-.51-.59-.17,0-.34.07-.53.2-.3.2-.56.5-.93,1.07.1-.36.15-.6.15-.71,0-.33-.21-.57-.5-.57-.43,0-.9.41-1.5,1.33l.33-1.27-.09-.07h-.03c-.12.03-.22.06-.32.08-.25.06-.45.1-.89.18h-.06v.28h.08q.32,0,.38.05h.01s.02.03.02.06c0,.04-.05.3-.46,1.88-.16.6-.2.74-.28,1.07l-.05.21h.73l.02-.06c.38-1.32.49-1.61.74-2.02.47-.77.89-1.13,1.07-1.13.02,0,.07,0,.07.12,0,.09-.22,1.03-.54,2.22-.06.2-.09.3-.15.55l-.08.31h.74v-.06c.32-1.26.47-1.68.85-2.25.41-.61.76-.89.91-.89.04,0,.07.04.07.09,0,.03-.01.12-.05.27l-.45,1.9c-.09.37-.11.48-.11.56,0,.29.14.45.38.45.38,0,.76-.3,1.16-.91l.09-.12-.24-.21Z"/>
    <path class="st16" d="M127.33,49.81q-.48.62-.59.62s0-.02,0-.05c0-.01,0-.07.08-.35l.53-2.08s.02-.2.02-.25c0-.34-.22-.59-.51-.59-.17,0-.34.07-.53.2-.3.2-.56.5-.93,1.07.1-.36.15-.6.15-.71,0-.33-.21-.57-.5-.57-.43,0-.9.41-1.5,1.33l.33-1.27-.09-.07h-.03c-.12.03-.22.06-.32.08-.25.06-.45.1-.89.18h-.06v.28h.08q.32,0,.38.05h.01s.02.03.02.06c0,.04-.05.3-.46,1.88-.16.6-.2.74-.28,1.07l-.05.21h.73l.02-.06c.38-1.32.49-1.61.74-2.02.47-.77.89-1.13,1.07-1.13.02,0,.07,0,.07.12,0,.09-.22,1.03-.54,2.22-.06.2-.09.3-.15.55l-.08.31h.74v-.06c.32-1.26.47-1.68.85-2.25.41-.61.76-.89.91-.89.04,0,.07.04.07.09,0,.03-.01.12-.05.27l-.45,1.9c-.09.37-.11.48-.11.56,0,.29.14.45.38.45.38,0,.76-.3,1.16-.91l.09-.12-.24-.21-.05.07Z"/>
    <path class="st16" d="M128.76,49.34c1.18-.18,2.01-.83,2.01-1.59,0-.39-.26-.63-.68-.63-1.13,0-2.37,1.41-2.37,2.69,0,.7.44,1.19,1.07,1.19.55,0,1.16-.34,1.63-.92l.04-.05-.2-.21-.06.05c-.52.47-.75.6-1.06.6-.38,0-.62-.26-.62-.66,0-.12.01-.19.07-.44l.15-.02ZM128.8,48.77c.27-.75.82-1.32,1.13-1.32.14,0,.18.12.18.23,0,.25-.13.53-.36.76-.25.26-.49.39-1.04.55l.08-.22Z"/>
    <path class="st16" d="M134.11,47.62c0-.3-.17-.5-.43-.5-.2,0-.43.14-.63.38-.19.21-.38.48-.54.73l.24-1.05-.09-.07-.08.02c-.5.1-.6.12-1.12.21h-.06v.31l.16-.03c.11-.02.13-.03.17-.03.18,0,.18.11.18.15,0,.1-.06.42-.12.66l-.66,2.51h.74l.02-.06c.4-1.4.53-1.74.87-2.37.38-.67.52-.68.53-.68,0,0,.02,0,.05.07.07.17.16.23.34.23.27,0,.43-.18.43-.49Z"/>
    <path class="st16" d="M136.07,47.11c-1.17,0-2.28,1.26-2.28,2.59,0,.81.44,1.3,1.17,1.3.6,0,1.03-.26,1.5-.91l.05-.07-.24-.17-.05.05c-.41.47-.68.64-1.02.64-.39,0-.61-.31-.61-.85,0-.69.26-1.41.68-1.89.21-.24.49-.37.76-.37.1,0,.2.02.2.09,0,.02,0,.05-.04.12-.06.12-.08.18-.08.28,0,.24.14.39.38.39.25,0,.44-.2.44-.46,0-.43-.37-.75-.87-.75Z"/>
    <path class="st16" d="M138.59,45.36c-.26,0-.44.22-.44.53s.18.5.44.5.46-.23.46-.49c0-.29-.21-.53-.45-.53Z"/>
    <path class="st16" d="M138.55,49.84c-.19.27-.23.33-.31.41-.18.2-.25.2-.25.2-.02,0-.04-.02-.04-.04,0-.09.03-.22.07-.34v-.04s.04-.1.05-.15l.7-2.71-.09-.07h-.03c-.74.15-.91.18-1.21.21h-.07v.29h.08c.11,0,.34,0,.39.05,0,0,.01.02.01.07,0,.07-.02.17-.06.31l-.38,1.5c-.13.48-.18.74-.18.92,0,.49.29.54.42.54.39,0,.68-.25,1.13-.97l.03-.05-.21-.21-.05.08Z"/>
    <path class="st16" d="M142.41,49.87c-.08.09-.13.14-.16.18-.02.02-.03.04-.05.05-.08.09-.27.31-.34.31-.02,0-.03-.01-.03-.03,0-.14.31-1.5.7-2.97l.02-.06s.02-.06.03-.12v-.06s-.12-.06-.12-.06l-.51.06-.06.06-.03.16c-.12-.18-.32-.28-.58-.28-1.06,0-2.26,1.55-2.26,2.9,0,.62.31.98.84.98.49,0,.82-.22,1.35-.97-.07.3-.08.38-.08.55,0,.28.12.41.38.41.35,0,.56-.2,1.12-.93l.04-.05-.2-.2-.05.07ZM140.76,50.1c-.17.2-.4.33-.6.33-.33,0-.36-.37-.36-.52,0-.44.28-1.26.61-1.78.29-.45.62-.7.9-.68.21.01.34.17.34.42,0,.67-.39,1.63-.9,2.24Z"/>
    <path class="st16" d="M143.78,50.08v-.02s.01-.03.01-.03l1.18-4.81-.08-.13h-.06c-.47.13-.74.19-1.18.24h-.07v.29h.21c.2,0,.31.06.31.11,0,.02,0,.06-.03.14l-1.07,4.36c-.02.09-.03.17-.03.24,0,.47.28.53.44.53.43,0,.7-.24,1.22-1.07l.04-.06-.23-.16-.05.06c-.47.67-.54.72-.66.72-.02,0-.03,0-.03-.08,0-.06.03-.19.06-.3,0-.02,0-.03,0-.04Z"/>
  </g>
</svg>