<?xml version="1.0" encoding="UTF-8"?>
<svg id="Layer_1" xmlns="http://www.w3.org/2000/svg" xmlns:xlink="http://www.w3.org/1999/xlink" version="1.1" viewBox="0 0 154 60">
  <!-- Generator: Adobe Illustrator 29.4.0, SVG Export Plug-In . SVG Version: 2.1.0 Build 152)  -->
  <defs>
    <style>
      .st0 {
        fill: #1a3164;
      }

      .st1 {
        fill: url(#linear-gradient2);
      }

      .st2 {
        fill: url(#linear-gradient1);
      }

      .st3 {
        fill: url(#linear-gradient9);
      }

      .st4 {
        fill: url(#linear-gradient3);
      }

      .st5 {
        fill: url(#linear-gradient6);
      }

      .st6 {
        fill: url(#linear-gradient8);
      }

      .st7 {
        fill: url(#linear-gradient7);
      }

      .st8 {
        fill: url(#linear-gradient5);
      }

      .st9 {
        fill: url(#linear-gradient4);
      }

      .st10 {
        fill: url(#linear-gradient13);
      }

      .st11 {
        fill: url(#linear-gradient12);
      }

      .st12 {
        fill: url(#linear-gradient11);
      }

      .st13 {
        fill: url(#linear-gradient10);
      }

      .st14 {
        fill: url(#linear-gradient14);
      }

      .st15 {
        fill: url(#linear-gradient);
      }

      .st16 {
        fill: #323031;
      }

      .st17 {
        fill: none;
        stroke: #000;
        stroke-linecap: round;
        stroke-linejoin: round;
        stroke-width: .2px;
      }
    </style>
    <linearGradient id="linear-gradient" x1="-1488.25" y1="-156.91" x2="-1505.39" y2="-171.25" gradientTransform="translate(-1459.21 -150.04) rotate(-180)" gradientUnits="userSpaceOnUse">
      <stop offset="0" stop-color="#848282"/>
      <stop offset="1" stop-color="#242121"/>
    </linearGradient>
    <linearGradient id="linear-gradient1" x1="-1509.39" y1="-162.33" x2="-1484.03" y2="-162.33" xlink:href="#linear-gradient"/>
    <linearGradient id="linear-gradient2" x1="-1473.84" y1="-173.79" x2="-1494.18" y2="-158.21" gradientTransform="translate(-1459.21 -150.04) rotate(-180)" gradientUnits="userSpaceOnUse">
      <stop offset="0" stop-color="#232a5b"/>
      <stop offset="1" stop-color="#2270b4"/>
    </linearGradient>
    <linearGradient id="linear-gradient3" x1="-1500.34" y1="-152.56" x2="-1466.95" y2="-174.82" xlink:href="#linear-gradient2"/>
    <linearGradient id="linear-gradient4" x1="6.95" y1="38.65" x2="9.83" y2="26.97" gradientUnits="userSpaceOnUse">
      <stop offset="0" stop-color="#136bb1"/>
      <stop offset="1" stop-color="#21285b"/>
    </linearGradient>
    <linearGradient id="linear-gradient5" x1="21.09" y1="29.06" x2="21.62" y2="29.06" xlink:href="#linear-gradient4"/>
    <linearGradient id="linear-gradient6" x1="30.69" y1="33.99" x2="24.97" y2="34.39" gradientUnits="userSpaceOnUse">
      <stop offset="0" stop-color="#eae9e9"/>
      <stop offset="1" stop-color="#323031"/>
    </linearGradient>
    <linearGradient id="linear-gradient7" x1="196.6" y1="-5.13" x2="207.93" y2="-5.28" gradientTransform="translate(249.62 28.96) rotate(-180)" xlink:href="#linear-gradient4"/>
    <linearGradient id="linear-gradient8" x1="214.36" y1="-5.49" x2="198.73" y2="9.46" gradientTransform="translate(249.62 28.96) rotate(-180)" xlink:href="#linear-gradient4"/>
    <linearGradient id="linear-gradient9" x1="22.12" y1="30.51" x2="31.39" y2="29.81" gradientUnits="userSpaceOnUse">
      <stop offset="0" stop-color="#b9b6b5"/>
      <stop offset="1" stop-color="#323031"/>
    </linearGradient>
    <linearGradient id="linear-gradient10" x1="11.33" y1="32.16" x2="21.69" y2="26.85" xlink:href="#linear-gradient4"/>
    <linearGradient id="linear-gradient11" x1="340.24" y1="-553.04" x2="323.09" y2="-567.38" gradientTransform="translate(-314.5 606.17)" xlink:href="#linear-gradient"/>
    <linearGradient id="linear-gradient12" x1="319.09" y1="-558.46" x2="344.45" y2="-558.46" gradientTransform="translate(-314.5 606.17)" xlink:href="#linear-gradient"/>
    <linearGradient id="linear-gradient13" x1="354.64" y1="-569.92" x2="334.3" y2="-554.34" gradientTransform="translate(-314.5 606.17)" xlink:href="#linear-gradient2"/>
    <linearGradient id="linear-gradient14" x1="328.14" y1="-548.69" x2="361.53" y2="-570.95" gradientTransform="translate(-314.5 606.17)" xlink:href="#linear-gradient2"/>
  </defs>
  <g>
    <g>
      <g>
        <path class="st15" d="M24.83,9.36c4.35-1.18,8.79-1,12.52.82,3.22,1.57,5.45,4.13,6.62,7.22h2.08c-2.09-5.48-8.55-11.69-21.23-8.05Z"/>
        <path class="st2" d="M46.05,17.41h4.03s.11,0,.11,0c-1.26-3.64-3.8-6.67-7.55-8.49-4.37-2.13-9.61-2.25-14.68-.72-1.05.32-2.1.7-3.13,1.16,12.68-3.64,19.14,2.57,21.23,8.05Z"/>
      </g>
      <path class="st1" d="M9.8,18h.2s2.78,0,2.78,0c7.92-10.18,21.51-14.62,31.17-9.91,1.11.54,2.12,1.18,3.03,1.91-13.98-11.23-32.74,1.26-36.4,6.8h0c-.17.25-.59.85-.79,1.21ZM10.38,17.13s0,0,0,0c0,0,0,0,0,0ZM10.22,17.44s0,0,0,0c0,0,0,0,0,0Z"/>
      <path class="st4" d="M9.8,18c.2-.36.62-.96.79-1.21,3.66-5.53,22.42-18.03,36.4-6.8.17.13.34.27.5.41-1.65-2.28-3.87-4.18-6.63-5.52-.98-.48-2-.87-3.05-1.18-1.4-.42-2.85-.69-4.33-.82-10.17-.9-21.8,4.77-28.65,14.78-.08.11-.15.23-.22.34h5.21Z"/>
    </g>
    <g>
      <path class="st9" d="M7.11,29.47l-2.51,8.54h4.87l1.51-5.58c.24-.91.45-1.71.62-2.41.17-.69.32-1.35.45-1.99-.82-1.75-4.26-.64-4.94,1.44Z"/>
      <path class="st8" d="M21.09,29.52c.16-.28.34-.59.53-.93-.24.28-.43.59-.53.93Z"/>
      <path class="st5" d="M25.79,31.93c-1.59.23-2.75,1.08-3.41,1.67.53-.22,1.37-.48,2.38-.39,2.69.24,4.14,2.71,4.31,3h4.37c-1.8-3-4.81-4.7-7.64-4.29Z"/>
      <path class="st7" d="M49.41,32.41h-10.93c-.77,0-1.36-.22-1.79-.66-.33-.34-.53-.78-.6-1.32.18,3.51,2.23,7.06,4.64,7.58h8.27s1.18-2.02,1.18-2.02c0-.03-.01-.05-.02-.08l-.75-3.51Z"/>
      <path class="st6" d="M33.43,33.22c.35.99.86,1.84,1.53,2.54.67.71,1.49,1.26,2.47,1.66.97.4,2.09.6,3.33.6h1.79c-2.4-.52-4.46-4.07-4.64-7.58-.02-.15-.03-.3-.03-.47,0-.75.21-1.35.64-1.8.42-.45,1.02-.68,1.79-.68h9.88s-1.18-5.51-1.18-5.51h-8.22c-1.25,0-2.36.19-3.33.58-.97.39-1.8.92-2.48,1.61-.68.69-1.19,1.52-1.55,2.5-.35.98-.53,2.07-.53,3.27s.18,2.3.53,3.28Z"/>
      <path class="st3" d="M30.04,23.92c-.22-.75-.59-1.31-1.09-1.67-.5-.36-1.07-.54-1.69-.54-.66,0-1.2.16-1.64.47-.44.31-.8.72-1.09,1.23l-2.56,4.55c-.12.22-.24.42-.35.62,1.29-1.48,4.22-2.05,4.92-.55,0,0,0-.01,0-.02.13.66.28,1.33.46,2.01.18.69.39,1.49.65,2.4l1.51,5.58h4.94l-4.05-14.09Z"/>
      <path class="st13" d="M21.62,28.6c-.19.34-.37.65-.53.93h0s0,0,0,0c-.02.03-.03.05-.05.08-.26.46-.5.88-.69,1.26-.2.38-.38.71-.53,1.01-.15.3-.29.59-.42.87-.14-.29-.29-.58-.44-.89-.15-.3-.33-.64-.53-1.01-.2-.37-.43-.79-.7-1.26-.26-.47-.57-1.02-.92-1.64l-2.56-4.53c-.29-.53-.65-.94-1.09-1.25-.44-.3-.98-.46-1.62-.46s-1.19.18-1.7.54c-.51.36-.88.91-1.1,1.67l-1.63,5.55c.68-2.08,4.12-3.19,4.94-1.44,0,0,0,0,0-.01.13.27.26.55.4.84.14.29.3.6.48.95.18.34.39.73.61,1.16.22.43.48.92.77,1.46l2.16,4.05c.21.4.42.72.64.95.22.23.44.41.66.54.22.13.46.21.72.25.26.04.54.06.84.06s.58-.02.84-.06c.26-.04.5-.12.72-.25.22-.13.44-.31.66-.54.22-.23.43-.55.64-.95l2.16-4.03c.54-1.04.98-1.9,1.32-2.58.33-.67.63-1.28.9-1.84-.7-1.49-3.63-.93-4.92.55Z"/>
    </g>
    <g>
      <g>
        <path class="st12" d="M29.95,50.64c-4.35,1.18-8.79,1-12.52-.82-3.22-1.57-5.45-4.13-6.62-7.22h-2.08c2.09,5.48,8.55,11.69,21.23,8.05Z"/>
        <path class="st11" d="M8.72,42.59h-4.03s-.11,0-.11,0c1.26,3.64,3.8,6.67,7.55,8.49,4.37,2.13,9.61,2.25,14.68.72,1.05-.32,2.1-.7,3.13-1.16-12.68,3.64-19.14-2.57-21.23-8.05Z"/>
      </g>
      <path class="st10" d="M44.97,42h-.2s-2.78,0-2.78,0c-7.92,10.18-21.51,14.62-31.17,9.91-1.11-.54-2.12-1.18-3.03-1.91,13.98,11.23,32.74-1.26,36.4-6.8h0c.17-.25.59-.85.79-1.21ZM44.39,42.87s0,0,0,0c0,0,0,0,0,0ZM44.56,42.56s0,0,0,0c0,0,0,0,0,0Z"/>
      <path class="st14" d="M44.97,42c-.2.36-.62.96-.79,1.21-3.66,5.53-22.42,18.03-36.4,6.8-.17-.13-.34-.27-.5-.41,1.65,2.28,3.87,4.18,6.63,5.52.98.48,2,.87,3.05,1.18,1.4.42,2.85.69,4.33.82,10.17.9,21.8-4.77,28.65-14.78.08-.11.15-.23.22-.34h-5.21Z"/>
    </g>
  </g>
  <g>
    <g>
      <path class="st0" d="M61.61,26.81c0-1.23-.86-1.91-2.43-1.91h-2.81v.4h.1c.66.1.69.2.69.4,0,.16-.02.28-.18.92l-1.25,5.06c-.18.68-.21.71-.79.8h-.1v.41h2.91l-.02-.4h-.09c-.65-.11-.65-.13-.65-.48,0-.1.02-.17.11-.56l.55-2.26c.24.05.5.07.91.07.93,0,1.68-.21,2.17-.6.57-.46.89-1.14.89-1.86ZM58.51,25.74c.05-.18.11-.26.38-.26.41,0,.79.1.99.26.25.2.37.53.37,1.07,0,.73-.22,1.22-.67,1.5-.32.2-.73.29-1.37.29-.16,0-.22,0-.43-.04l.72-2.83Z"/>
      <path class="st0" d="M65.76,31.4c-.11.13-.18.2-.24.26-.03.03-.05.05-.07.08-.12.13-.39.44-.48.44-.02,0-.04-.02-.04-.04,0-.2.45-2.16,1.01-4.29l.02-.08c.02-.06.03-.09.04-.17l.02-.09-.19-.09-.74.09-.08.09-.05.23c-.17-.26-.46-.4-.84-.4-1.52,0-3.26,2.23-3.26,4.19,0,.89.45,1.42,1.21,1.42.71,0,1.17-.31,1.95-1.4-.11.44-.12.56-.12.79,0,.4.18.6.54.6.51,0,.8-.29,1.62-1.35l.06-.08-.29-.29-.08.09ZM62.53,32.22c-.47,0-.52-.53-.52-.76,0-.64.41-1.81.88-2.57.42-.65.89-1.01,1.29-.98.31.02.5.25.5.6,0,.96-.56,2.35-1.3,3.23-.24.29-.58.48-.86.48Z"/>
      <path class="st0" d="M70.28,27.43c-.32,0-.52.21-.52.52,0,.23.08.39.29.6.15.15.16.2.16.27,0,.59-.7,1.81-1.63,2.86-.07-1.49-.11-2.07-.26-2.91q-.22-1.34-.41-1.34c-.08,0-.18.02-.26.05-.15.04-.81.18-1.19.24l-.1.02v.38h.12c.11-.02.23-.02.31-.02.35,0,.47.14.64,1.77.05.49.15,2.24.15,2.61v.11c-.01.16-.01.16-.01.17,0,.09,0,.37.21.37s.48-.22,1.49-1.5c1.06-1.35,1.72-2.65,1.72-3.38,0-.44-.33-.81-.72-.81Z"/>
      <path class="st0" d="M73.16,31.36c-.27.39-.34.47-.44.59-.22.24-.34.29-.37.29-.02,0-.06-.03-.06-.06,0-.12.05-.31.1-.5l.02-.05c.02-.06.04-.14.06-.21l1.01-3.9-.13-.1h-.05c-1.07.22-1.32.27-1.74.3h-.1v.41h.11c.16,0,.5.01.56.08,0,0,.02.03.02.1,0,.09-.04.25-.08.44l-.55,2.16c-.19.7-.26,1.07-.26,1.33,0,.71.43.78.61.78.56,0,.99-.37,1.63-1.4l.05-.08-.3-.3-.08.11Z"/>
      <path class="st0" d="M73.22,24.89c-.37,0-.64.32-.64.76s.26.72.63.72.66-.33.66-.71c0-.42-.3-.77-.65-.77Z"/>
      <path class="st0" d="M79.13,31.55l-.3-.33-.08.11c-.56.76-.69.89-.81.89-.03,0-.06-.03-.06-.07,0-.07,0-.07.16-.71l.63-2.46c.07-.28.11-.54.11-.72,0-.49-.34-.83-.82-.83-.66,0-1.28.55-2.19,1.97l.54-1.88-.14-.1h-.05c-.59.14-.82.19-1.76.37l-.09.02v.39h.11c.58.03.58.11.58.22,0,.09,0,.11-.02.17l-1.11,4.31h1.05l.02-.08c.53-1.88.62-2.12,1.11-2.92.84-1.42,1.32-1.64,1.52-1.64.13,0,.14.14.14.23,0,.12-.06.48-.16.88l-.49,1.97c-.16.67-.19.78-.19.91,0,.33.06.76.62.76s.89-.33,1.63-1.39l.05-.07Z"/>
      <path class="st0" d="M83.36,27.78c-.33-.23-.71-.35-1.14-.35-1.28,0-2.32.97-2.32,2.16,0,.6.21.98.75,1.3-.57.44-.74.68-.74.98,0,.18.09.32.22.46-.97.69-1.22.97-1.22,1.59,0,.88.76,1.45,1.94,1.45,1.44,0,2.4-.75,2.4-1.86,0-.79-.55-1.35-1.64-1.67-.49-.13-.67-.3-.67-.38,0-.13.21-.38.28-.38.02,0,.02,0,.05,0,.1.02.24.04.37.04,1.06,0,2.13-1.02,2.13-2.02,0-.16-.02-.34-.06-.54h.51l.02-.7h-.78s-.03,0-.11-.07ZM82.7,28.63c0,.42-.13.92-.33,1.31-.16.31-.43.69-.85.69-.48,0-.53-.54-.53-.77,0-1.04.57-1.95,1.23-1.95.12,0,.49,0,.49.72ZM79.96,33.13c.13-.18.49-.48.6-.54,0,0,0,0,0,0l.33.11c1.12.39,1.48.68,1.48,1.16,0,.58-.59,1.01-1.37,1.01s-1.26-.4-1.26-1.08c0-.28.06-.46.22-.66Z"/>
      <path class="st0" d="M101.44,25.38c.36,0,.66.13.88.39.22.27.31.66.33,1.41v.09s.41.07.41.07l.45-2.61h-.45l-.03.05c-.14.23-.2.25-.4.25-.11,0-.2-.02-.45-.12-.26-.11-.61-.17-.97-.17-1.2,0-2.04.85-2.04,2.07,0,.69.17,1.05.87,1.85.02.02.24.27.43.49.08.1.17.2.24.28.08.09.16.19.17.21v.02c.51.56.65.84.65,1.33,0,.85-.54,1.46-1.27,1.46-.85,0-1.5-.81-1.5-1.88,0-.08,0-.14.02-.22l.03-.12-.46-.05-.37,2.89h.41l.02-.08c.07-.26.16-.3.31-.3.1,0,.25.05.52.14.53.21.82.28,1.18.28,1.31,0,2.3-1.06,2.3-2.47,0-.81-.26-1.31-1.28-2.41-1-1.08-1.07-1.23-1.07-1.77,0-.68.4-1.08,1.08-1.08Z"/>
      <path class="st0" d="M104.96,30.64c1.71-.26,2.9-1.2,2.9-2.3,0-.56-.37-.91-.97-.91-1.63,0-3.42,2.03-3.42,3.88,0,1.01.63,1.72,1.54,1.72.8,0,1.68-.49,2.36-1.32l.06-.08-.28-.31-.08.08c-.75.68-1.08.86-1.53.86-.54,0-.9-.38-.9-.96,0-.17.02-.28.1-.64l.22-.03ZM105.01,29.82c.39-1.09,1.18-1.9,1.63-1.9.19,0,.26.17.26.33,0,.35-.19.76-.52,1.1-.36.37-.71.56-1.5.79l.12-.32Z"/>
      <path class="st0" d="M112.88,31.4c-.11.13-.18.2-.24.26-.03.03-.05.05-.07.08-.12.13-.39.44-.48.44-.02,0-.04-.02-.04-.04,0-.2.45-2.16,1.01-4.29l.02-.08c.02-.06.03-.09.04-.17l.02-.09-.19-.09-.74.09-.08.09-.05.23c-.17-.26-.46-.4-.84-.4-1.52,0-3.26,2.23-3.26,4.19,0,.89.45,1.42,1.21,1.42.71,0,1.17-.31,1.95-1.4-.11.44-.12.56-.12.79,0,.4.18.6.54.6.51,0,.8-.29,1.62-1.35l.06-.08-.29-.29-.08.09ZM109.65,32.22c-.47,0-.52-.53-.52-.76,0-.64.41-1.81.88-2.57.42-.65.89-1.01,1.29-.98.31.02.5.25.5.6,0,.96-.56,2.35-1.3,3.23-.24.29-.58.48-.86.48Z"/>
      <path class="st0" d="M114.86,31.71l.02-.02v-.04l1.68-6.89v-.05s-.1-.18-.1-.18l-.08.02c-.67.17-1.07.25-1.7.33h-.1v.41h.3c.29,0,.45.08.45.16,0,.03,0,.09-.04.2l-1.55,6.28c-.03.12-.05.24-.05.34,0,.67.4.77.64.77.62,0,1.01-.35,1.76-1.54l.06-.09-.33-.23-.07.09c-.68.96-.77,1.04-.95,1.04-.02,0-.05,0-.05-.11,0-.09.04-.28.08-.43,0-.03.01-.04.01-.05Z"/>
      <path class="st0" d="M120.07,31.46c-.59.67-.98.92-1.47.92-.56,0-.88-.45-.88-1.23,0-.99.38-2.04.98-2.72.3-.34.7-.54,1.1-.54.14,0,.29.03.29.13,0,.04,0,.07-.05.17-.08.17-.11.26-.11.4,0,.35.21.56.54.56.36,0,.63-.29.63-.67,0-.61-.54-1.08-1.25-1.08-1.69,0-3.3,1.81-3.3,3.73,0,1.17.63,1.88,1.69,1.88.86,0,1.49-.38,2.17-1.32l.07-.09-.35-.24-.07.08Z"/>
      <path class="st0" d="M124.31,27.43c-.48,0-.93.13-1.4.42-1.17.71-1.99,2.12-1.99,3.42,0,1.09.65,1.77,1.7,1.77.75,0,1.47-.36,2.15-1.07.74-.8,1.2-1.86,1.2-2.77,0-1.06-.67-1.77-1.66-1.77ZM124.83,28.89c0,.85-.36,2.02-.85,2.79-.37.59-.76.87-1.19.87s-.72-.38-.72-.94c0-.86.33-1.91.85-2.73h0c.41-.65.84-.98,1.27-.98.4,0,.65.38.65.99Z"/>
      <path class="st0" d="M131.17,31.4c-.11.13-.18.2-.24.26-.03.03-.05.05-.07.08-.12.13-.39.44-.48.44-.02,0-.04-.02-.04-.04,0-.2.45-2.16,1.01-4.29l.02-.08c.02-.06.03-.09.04-.17l.02-.09-.19-.09-.74.09-.08.09-.05.23c-.17-.26-.46-.4-.84-.4-1.52,0-3.26,2.23-3.26,4.19,0,.89.45,1.42,1.21,1.42.71,0,1.17-.31,1.95-1.4-.11.44-.12.56-.12.79,0,.4.18.6.54.6.51,0,.8-.29,1.62-1.35l.06-.08-.29-.29-.08.09ZM127.94,32.22c-.47,0-.52-.53-.52-.76,0-.64.41-1.81.88-2.57.42-.65.89-1.01,1.29-.98.31.02.5.25.5.6,0,.96-.56,2.35-1.3,3.23-.24.29-.58.48-.86.48Z"/>
      <path class="st0" d="M134.42,26.51c.02-.05.02-.09.02-.1,0-.17-.1-.23-.18-.23h-.05c-.1,0-.17.08-.22.15-.41.58-1.06,1.17-1.41,1.26-.23.09-.42.18-.42.41v.18h.77l-.77,3.14c-.26,1.07-.26,1.13-.26,1.15,0,.32.27.56.63.56.56,0,.95-.35,1.66-1.5l.06-.1-.33-.19-.06.09c-.4.56-.66.89-.8.89-.05,0-.05-.09-.05-.1,0,0,0-.02.01-.03l.96-3.9h.93l.09-.6h-.86l.27-1.07Z"/>
      <path class="st0" d="M137.04,24.89c-.37,0-.64.32-.64.76s.26.72.63.72.66-.33.66-.71c0-.42-.3-.77-.65-.77Z"/>
      <path class="st0" d="M136.98,31.36c-.29.41-.34.48-.44.59-.26.29-.37.29-.37.29-.02,0-.06-.03-.06-.06,0-.12.05-.31.1-.5l.02-.05c.02-.06.04-.14.06-.21l1.01-3.9-.13-.1h-.05c-1.07.22-1.32.27-1.74.3h-.1v.41h.11c.16,0,.5.01.56.08,0,0,.02.03.02.1,0,.1-.04.25-.08.45l-.55,2.15c-.19.7-.26,1.07-.26,1.33,0,.71.43.78.61.78.55,0,.99-.38,1.63-1.4l.05-.08-.3-.3-.08.11Z"/>
      <path class="st0" d="M142.95,31.55l-.31-.33-.08.11c-.56.76-.69.89-.81.89-.03,0-.06-.03-.06-.07,0-.07,0-.07.16-.71l.63-2.46c.07-.28.11-.55.11-.72,0-.49-.34-.83-.82-.83-.66,0-1.28.55-2.19,1.97l.54-1.88-.14-.1h-.05c-.59.14-.82.19-1.76.37l-.09.02v.39h.11c.58.03.58.11.58.22,0,.09,0,.11-.02.17l-1.11,4.31h1.05l.02-.08c.53-1.88.62-2.12,1.11-2.92.84-1.42,1.32-1.64,1.53-1.64.13,0,.14.14.14.23,0,.12-.06.48-.16.88l-.49,1.97c-.16.67-.19.78-.19.91,0,.33.06.76.62.76s.89-.33,1.63-1.39l.05-.07Z"/>
      <path class="st0" d="M147.18,27.78c-.33-.23-.71-.35-1.14-.35-1.28,0-2.32.97-2.32,2.16,0,.6.21.98.75,1.3-.57.44-.74.68-.74.98,0,.18.09.32.22.46-.97.69-1.22.97-1.22,1.59,0,.88.76,1.45,1.94,1.45,1.44,0,2.4-.75,2.4-1.86,0-.79-.55-1.35-1.64-1.67-.49-.13-.67-.3-.67-.38,0-.13.21-.38.28-.38.02,0,.02,0,.05,0,.1.02.24.04.37.04,1.06,0,2.13-1.02,2.13-2.02,0-.16-.02-.34-.06-.54h.51l.02-.7h-.78s-.03,0-.11-.07ZM146.52,28.63c0,.42-.13.92-.33,1.31-.16.31-.43.69-.85.69-.48,0-.53-.54-.53-.77,0-1.04.57-1.95,1.23-1.95.12,0,.49,0,.49.72ZM143.78,33.13c.13-.18.49-.48.6-.54h0s.33.11.33.11c1.12.39,1.48.68,1.48,1.16,0,.58-.59,1.01-1.37,1.01s-1.26-.4-1.26-1.08c0-.28.06-.46.22-.66Z"/>
      <path class="st0" d="M94.61,32.02c-.32.26-.47.33-.71.33-.47,0-.82-.29-1.24-1.03l.23-.35c.42-.64.56-.86.82-1.28.19-.31.31-.48.42-.58.14-.12.24-.15.55-.19h.07v-.37h-2.19v.39h.08c.44.06.48.13.48.32,0,.36-.16.69-.75,1.49-.33-.62-.65-1.54-.89-2.63.64-.35.96-.57,1.25-.86.39-.39.59-.81.59-1.25,0-.69-.52-1.21-1.21-1.21-1.06,0-1.81,1.03-1.81,2.51,0,.16.01.29.05.63,0,.03,0,.09.01.16,0,.05.01.11.02.17-1.09.52-1.57.8-1.96,1.15-.54.5-.79,1.05-.79,1.73,0,1.19.82,1.97,2.09,1.97.7,0,1.05-.15,2.14-.91.49.64.94.91,1.52.91s.99-.24,1.46-.84l.05-.06-.22-.24-.06.05ZM91.35,26.77c0-1.26.34-1.42.64-1.42.21,0,.4.07.4.61,0,.7-.2,1.04-.99,1.61-.03-.29-.05-.52-.05-.8ZM91.55,31.73c-.47.41-.89.59-1.4.59-.74,0-1.32-.65-1.32-1.47s.63-1.57,1.62-2.02c.36,1.36.74,2.36,1.1,2.91Z"/>
    </g>
    <g>
      <g>
        <path class="st0" d="M78.47,8.95l-.03.03c-.13.1-.19.13-.28.13-.19,0-.32-.11-.49-.4l.09-.13c.17-.26.23-.35.33-.52.08-.12.13-.19.17-.23.06-.05.09-.06.22-.08h.04v-.17h-.91v.18h.04c.18.02.18.06.18.12,0,.14-.06.27-.29.58-.13-.25-.25-.61-.35-1.03.25-.14.38-.23.5-.35.16-.16.24-.33.24-.51,0-.29-.22-.5-.5-.5-.44,0-.74.42-.74,1.02,0,.06,0,.12.02.26,0,.01,0,.04,0,.06,0,.02,0,.04,0,.06-.44.21-.63.32-.79.46-.22.21-.32.43-.32.71,0,.49.33.8.85.8.28,0,.43-.06.86-.36.2.26.38.36.62.36s.41-.1.6-.34l.02-.03-.1-.11ZM77.39,6.31c.07,0,.15.02.15.23,0,.27-.08.41-.38.63-.01-.11-.02-.2-.02-.3,0-.5.13-.56.25-.56ZM76.64,9.1c-.29,0-.52-.26-.52-.58s.25-.62.63-.8c.15.54.29.93.44,1.16-.18.16-.35.23-.55.23Z"/>
        <g>
          <path class="st0" d="M57.55,6.87c0-.48-.34-.74-.97-.74h-1.13v.16h.04c.19.03.2.04.24.06.02.01.04.05.04.1s-.02.16-.05.29l-.52,2.13c-.07.27-.09.28-.31.32h-.04v.17h1.17v-.16s-.05,0-.05,0c-.26-.04-.26-.05-.26-.18,0-.04,0-.1.05-.26l.23-.97.22.02.56,1.56h.73v-.16h-.04c-.18-.02-.25-.08-.33-.32l-.4-1.13c.31-.08.45-.15.61-.3.15-.15.24-.34.24-.57ZM56.32,6.46c.02-.07.05-.1.18-.1.34,0,.5.16.5.5,0,.45-.25.66-.78.66-.06,0-.1,0-.17-.01l.27-1.06Z"/>
          <path class="st0" d="M59.04,8.75c-.3.27-.44.35-.62.35-.22,0-.36-.15-.36-.39,0-.07,0-.11.04-.26h.09c.69-.12,1.17-.5,1.17-.94,0-.23-.15-.37-.39-.37-.66,0-1.38.82-1.38,1.57,0,.41.26.69.62.69.32,0,.68-.2.95-.53l.03-.03-.11-.12-.03.03ZM58.87,7.35c.08,0,.11.07.11.13,0,.14-.08.31-.21.44-.14.15-.29.23-.6.32l.05-.13c.16-.44.48-.77.66-.77Z"/>
          <path class="st0" d="M60.84,7.17c-.03.05-.04.06-.09.06-.03,0-.07,0-.14-.03-.11-.04-.18-.05-.27-.05-.34,0-.57.23-.57.58,0,.16.09.38.28.65.16.22.23.39.23.52,0,.2-.11.33-.28.33-.15,0-.32-.07-.4-.61v-.04h-.16l-.11.85h.15v-.03c.05-.07.06-.07.07-.07.05,0,.13.02.2.04.1.03.17.05.26.05.4,0,.68-.28.68-.68,0-.2-.09-.41-.3-.7-.16-.22-.23-.35-.23-.47,0-.13.08-.21.2-.21s.31.05.36.51v.04h.15l.11-.76h-.15v.02Z"/>
          <path class="st0" d="M62.04,8.73c-.11.16-.14.19-.18.24-.09.1-.14.12-.15.12,0,0-.02-.01-.02-.03,0-.05.02-.13.04-.2v-.02s.02-.06.03-.08l.41-1.57-.05-.04h-.02c-.43.09-.53.11-.7.12h-.04v.17h.04c.07,0,.2,0,.23.03,0,0,0,.01,0,.04,0,.04-.01.1-.03.18l-.22.87c-.08.28-.11.43-.11.54,0,.29.17.32.25.32.23,0,.4-.15.66-.57l.02-.03-.12-.12-.03.04Z"/>
          <path class="st0" d="M62.06,6.12c-.15,0-.26.13-.26.31s.1.29.25.29.27-.13.27-.29c0-.17-.12-.31-.26-.31Z"/>
          <path class="st0" d="M64.29,8.74c-.24.3-.27.32-.33.32-.02,0-.03-.02-.03-.05,0-.06.13-.57.29-1.17.11-.4.21-.8.45-1.78v-.02s-.05-.07-.05-.07h-.03c-.25.07-.4.09-.67.12h-.04v.17h.04c.23.01.23.02.23.08,0,.06,0,.06-.07.32l-.16.63c-.05-.11-.14-.15-.28-.15-.6,0-1.34.92-1.34,1.68,0,.37.19.59.51.59.27,0,.46-.12.71-.46-.02.09-.02.14-.02.21,0,.15.09.26.23.26.2,0,.45-.2.68-.57l.02-.03-.11-.11-.03.04ZM63,9.08c-.13,0-.21-.1-.21-.27,0-.38.22-.93.51-1.26h0c.11-.13.25-.21.36-.21,0,0,.01,0,.02,0,.07,0,.15.03.15.22,0,.45-.2.99-.49,1.33-.1.12-.22.18-.33.18Z"/>
          <path class="st0" d="M65.15,8.44c.69-.1,1.17-.48,1.17-.93,0-.23-.15-.37-.39-.37-.66,0-1.38.82-1.38,1.57,0,.41.26.69.62.69.32,0,.68-.2.95-.53l.03-.03-.11-.12-.03.03c-.3.27-.44.35-.62.35-.22,0-.36-.15-.36-.39,0-.07,0-.11.04-.26h.09ZM65.17,8.11c.16-.44.48-.77.66-.77.08,0,.11.07.11.13,0,.14-.08.31-.21.44-.14.15-.29.23-.6.32l.05-.13Z"/>
          <path class="st0" d="M68.38,8.72c-.23.31-.28.36-.33.36-.01,0-.02-.01-.02-.03,0-.03,0-.03.06-.29l.26-.99c.03-.11.04-.22.04-.29,0-.2-.14-.33-.33-.33-.26,0-.52.22-.88.79l.22-.76-.06-.04h-.02c-.24.06-.33.08-.71.15h-.04v.16h.04c.23.01.23.04.23.09,0,.04,0,.05,0,.07l-.45,1.74h.42v-.03c.22-.76.26-.86.46-1.18.34-.57.53-.66.62-.66.05,0,.06.06.06.09,0,.05-.02.19-.06.35l-.2.8c-.07.27-.08.31-.08.37,0,.13.03.31.25.31s.36-.13.66-.56l.02-.03-.12-.13-.03.04Z"/>
          <path class="st0" d="M69.68,6.77s0-.04,0-.04c0-.07-.04-.09-.07-.09h-.02s-.07.03-.09.06c-.16.24-.43.47-.57.51-.11.04-.17.08-.17.17v.07h.31l-.31,1.26c-.11.43-.11.45-.11.47,0,.13.11.23.25.23.23,0,.38-.14.67-.6l.02-.04-.13-.08-.02.03c-.16.23-.27.36-.32.36-.02,0-.02-.03-.02-.04,0,0,0,0,0,0l.39-1.57h.38l.03-.24h-.34l.11-.43Z"/>
          <path class="st0" d="M70.71,8.73c-.11.16-.14.19-.18.24-.11.12-.15.12-.15.12,0,0-.02-.01-.02-.03,0-.05.02-.13.04-.2v-.02s.02-.06.03-.09l.41-1.57-.05-.04h-.02c-.43.09-.53.11-.7.12h-.04v.17h.04c.07,0,.2,0,.23.03,0,0,0,.01,0,.04,0,.04-.01.1-.03.18l-.22.87c-.08.28-.11.43-.11.54,0,.29.17.32.25.32.22,0,.4-.15.66-.57l.02-.03-.12-.12-.03.04Z"/>
          <path class="st0" d="M70.74,6.12c-.15,0-.26.13-.26.31s.1.29.25.29.27-.13.27-.29c0-.17-.12-.31-.26-.31Z"/>
          <path class="st0" d="M72.96,8.75c-.04.05-.07.08-.1.11-.01.01-.02.02-.03.03-.05.05-.16.18-.2.18,0,0-.01,0-.01-.02,0-.08.18-.87.41-1.73v-.03s.02-.04.03-.07v-.04s-.07-.04-.07-.04l-.3.04-.03.04-.02.09c-.07-.11-.19-.16-.34-.16-.62,0-1.32.9-1.32,1.69,0,.36.18.57.49.57.29,0,.47-.13.79-.56-.04.18-.05.22-.05.32,0,.16.07.24.22.24.21,0,.32-.12.65-.54l.02-.03-.12-.12-.03.04ZM71.65,9.08c-.19,0-.21-.21-.21-.3,0-.26.16-.73.36-1.04.17-.26.36-.41.52-.4.12,0,.2.1.2.24,0,.39-.22.95-.52,1.3-.1.12-.24.19-.35.19Z"/>
          <path class="st0" d="M74.37,5.98c-.27.07-.43.1-.68.13h-.04v.17h.12c.12,0,.18.03.18.06,0,.01,0,.04-.02.08l-.62,2.53s-.02.1-.02.14c0,.27.16.31.26.31.25,0,.41-.14.71-.62l.02-.04-.13-.09-.03.04c-.27.39-.31.42-.38.42,0,0-.02,0-.02-.04,0-.04.02-.11.03-.17,0-.01,0-.02,0-.02h0v-.03l.68-2.78v-.02s-.04-.07-.04-.07h-.03Z"/>
          <path class="st0" d="M82.94,6.08h-.18v.03c-.03.06-.06.08-.13.08-.03,0-.08,0-.17-.03-.2-.05-.38-.08-.53-.08-.97,0-1.81.96-1.81,2.06,0,.77.5,1.32,1.21,1.32.47,0,.82-.21,1.23-.73l.03-.03-.15-.12-.03.03c-.38.42-.62.55-.97.55-.46,0-.73-.35-.73-.96,0-.56.2-1.11.53-1.49.2-.23.46-.35.74-.35.38,0,.59.24.63.73v.03s.16.03.16.03l.17-1.05Z"/>
          <path class="st0" d="M84.14,7.15c-.19,0-.37.05-.57.17-.47.29-.8.85-.8,1.38,0,.44.26.71.69.71.3,0,.59-.15.87-.43.3-.32.48-.75.48-1.12,0-.43-.27-.71-.67-.71ZM84.08,7.34c.16,0,.26.15.26.4,0,.34-.14.82-.34,1.13-.15.24-.31.35-.48.35s-.29-.15-.29-.38c0-.35.13-.77.34-1.1h0c.17-.26.34-.4.51-.4Z"/>
          <path class="st0" d="M87.92,8.68l-.03.04c-.28.36-.28.36-.35.36,0,0,0,0,0-.03,0,0,0-.04.05-.2l.31-1.21s.01-.11.01-.15c0-.2-.13-.34-.3-.34-.1,0-.2.04-.31.12-.18.12-.33.29-.54.63.06-.21.09-.35.09-.41,0-.19-.12-.33-.29-.33-.25,0-.52.24-.87.77l.19-.74-.05-.04h-.02c-.07.02-.13.03-.18.04-.15.03-.26.06-.52.11h-.04v.17h.04q.19,0,.22.03h0s.01.02.01.03c0,.02-.03.17-.27,1.09-.09.35-.11.43-.16.62l-.03.12h.42v-.03c.23-.77.29-.94.44-1.18.27-.45.51-.66.62-.66.01,0,.04,0,.04.07,0,.05-.13.6-.31,1.29-.03.12-.05.18-.09.32l-.05.18h.43v-.04c.18-.74.28-.98.5-1.31.24-.36.44-.52.53-.52.02,0,.04.02.04.05,0,.02,0,.07-.03.16l-.26,1.1c-.05.21-.06.28-.06.33,0,.17.08.26.22.26.22,0,.44-.17.67-.53l.05-.07-.14-.12Z"/>
          <path class="st0" d="M91.02,8.72q-.28.36-.35.36s0,0,0-.03c0,0,0-.04.05-.2l.31-1.21s.01-.11.01-.15c0-.2-.13-.34-.3-.34-.1,0-.2.04-.31.12-.18.12-.33.29-.54.63.06-.21.09-.35.09-.41,0-.19-.12-.33-.29-.33-.25,0-.52.24-.87.77l.19-.74-.05-.04h-.02c-.07.02-.13.03-.18.04-.15.03-.26.06-.52.11h-.04v.17h.04q.19,0,.22.03h0s.01.02.01.03c0,.02-.03.17-.27,1.09-.09.35-.11.43-.16.62l-.03.12h.42v-.03c.23-.77.29-.94.44-1.18.27-.45.51-.66.62-.66.01,0,.04,0,.04.07,0,.05-.13.6-.31,1.29-.03.12-.05.18-.09.32l-.05.18h.43v-.04c.18-.74.28-.98.5-1.31.24-.36.44-.52.53-.52.02,0,.04.02.04.05,0,.02,0,.07-.03.16l-.26,1.1c-.05.21-.06.28-.06.33,0,.17.08.26.22.26.22,0,.44-.17.67-.53l.05-.07-.14-.12-.03.04Z"/>
          <path class="st0" d="M91.86,8.44c.69-.1,1.17-.48,1.17-.93,0-.23-.15-.37-.39-.37-.66,0-1.38.82-1.38,1.57,0,.41.26.69.62.69.32,0,.68-.2.95-.53l.03-.03-.11-.12-.03.03c-.3.27-.44.35-.62.35-.22,0-.36-.15-.36-.39,0-.07,0-.11.04-.26h.09ZM91.88,8.11c.16-.44.48-.77.66-.77.08,0,.11.07.11.13,0,.14-.08.31-.21.44-.14.15-.29.23-.6.32l.05-.13Z"/>
          <path class="st0" d="M94.97,7.44c0-.17-.1-.29-.25-.29-.12,0-.25.08-.37.22-.11.12-.22.28-.31.43l.14-.61-.05-.04h-.05c-.29.07-.35.08-.65.13h-.04v.18l.09-.02c.06-.01.08-.01.1-.01.11,0,.11.07.11.09,0,.06-.03.24-.07.39l-.38,1.46h.43v-.03c.24-.82.32-1.01.52-1.38.22-.39.3-.39.31-.39,0,0,.01,0,.03.04.04.1.09.13.2.13.16,0,.25-.11.25-.28Z"/>
          <path class="st0" d="M96.11,7.15c-.68,0-1.33.73-1.33,1.5,0,.47.26.76.68.76.35,0,.6-.15.87-.53l.03-.04-.14-.1-.03.03c-.24.27-.4.37-.59.37-.22,0-.35-.18-.35-.49,0-.4.15-.82.4-1.1.12-.14.28-.22.44-.22.06,0,.12.01.12.05,0,.01,0,.03-.02.07-.03.07-.04.11-.04.16,0,.14.08.23.22.23.14,0,.25-.12.25-.27,0-.25-.22-.43-.51-.43Z"/>
          <path class="st0" d="M97.58,6.12c-.15,0-.26.13-.26.31s.1.29.25.29.27-.13.27-.29c0-.17-.12-.31-.26-.31Z"/>
          <path class="st0" d="M97.55,8.73c-.11.16-.14.19-.18.24-.11.12-.15.12-.15.12,0,0-.02-.01-.02-.03,0-.05.02-.13.04-.2v-.02s.02-.06.03-.09l.41-1.57-.05-.04h-.02c-.43.09-.53.11-.7.12h-.04v.17h.04c.07,0,.2,0,.23.03,0,0,0,.01,0,.04,0,.04-.01.1-.03.18l-.22.87c-.08.28-.11.43-.11.54,0,.29.17.32.25.32.23,0,.4-.15.66-.57l.02-.03-.12-.12-.03.04Z"/>
          <path class="st0" d="M99.8,8.75c-.04.05-.07.08-.1.11-.01.01-.02.02-.03.03-.05.05-.16.18-.2.18,0,0-.01,0-.01-.02,0-.08.18-.87.41-1.73v-.03s.02-.04.03-.07v-.04s-.07-.04-.07-.04l-.3.04-.03.04-.02.09c-.07-.11-.19-.16-.34-.16-.62,0-1.32.9-1.32,1.69,0,.36.18.57.49.57.29,0,.47-.13.79-.56-.04.18-.05.22-.05.32,0,.16.07.24.22.24.21,0,.32-.12.65-.54l.02-.03-.12-.12-.03.04ZM98.49,9.08c-.19,0-.21-.21-.21-.3,0-.26.16-.73.36-1.04.17-.26.36-.41.52-.4.12,0,.2.1.2.24,0,.39-.22.95-.52,1.3-.1.12-.23.19-.35.19Z"/>
          <path class="st0" d="M100.96,8.69c-.27.39-.31.42-.38.42,0,0-.02,0-.02-.04,0-.04.02-.11.03-.17,0-.01,0-.02,0-.02h0v-.03l.68-2.8-.04-.07h-.03c-.27.08-.43.11-.68.14h-.04v.17h.12c.12,0,.18.03.18.06,0,.01,0,.04-.02.08l-.62,2.53s-.02.1-.02.14c0,.27.16.31.26.31.25,0,.41-.14.71-.62l.02-.04-.13-.09-.03.04Z"/>
        </g>
      </g>
      <line class="st17" x1="54.84" y1="11.57" x2="101.29" y2="11.57"/>
    </g>
    <g>
      <g>
        <path class="st16" d="M106.7,52.79c.71-.43,1.19-1.28,1.19-2.11,0-.74-.48-1.27-1.14-1.27-.4,0-.83.21-1.22.6-.48.49-.76,1.12-.76,1.73,0,.45.15.82.42,1.05.12.1.21.15.37.2-.38.37-.43.41-.76.67l-.03.03.1.16.04-.03c.17-.1.34-.15.52-.15.09,0,.21.03.42.09.28.09.55.14.74.14.28,0,.61-.14.86-.35.12-.1.18-.18.3-.36l.03-.04-.14-.11-.03.04c-.25.29-.43.38-.76.38-.15,0-.31-.03-.57-.11-.27-.08-.43-.11-.54-.11h0s.17-.19.17-.19c.37-.03.55-.08.81-.25ZM106.72,49.69c.35,0,.57.29.57.75,0,.55-.21,1.28-.5,1.75-.25.4-.53.59-.85.59-.37,0-.57-.29-.57-.83,0-.47.22-1.22.5-1.67.25-.4.53-.59.86-.59Z"/>
        <path class="st16" d="M110.04,52.27c-.23.31-.3.39-.35.39,0,0,0,0,0-.03,0-.02,0-.03.1-.4l.4-1.61h-.45v.03c-.29.81-.32.88-.54,1.25-.38.66-.57.73-.63.73-.01,0-.02,0-.03-.01-.01-.01-.02-.04-.02-.06v-.04s.46-1.91.46-1.91l-.06-.04h-.02c-.24.07-.42.11-.71.14h-.04v.17h.05q.18,0,.21.02s.02.03.02.06c0,.03-.02.14-.07.34l-.18.73c-.09.38-.13.55-.13.65,0,.27.16.33.3.33.32,0,.55-.22,1-.98-.09.36-.13.59-.13.68,0,.18.1.29.28.29.25,0,.38-.13.7-.63l.03-.04-.15-.1-.03.04Z"/>
        <path class="st16" d="M112.4,52.31c-.05.06-.08.09-.1.11-.01.01-.02.02-.03.03-.05.06-.17.19-.21.19-.01,0-.02,0-.02-.02,0-.09.2-.94.44-1.87v-.04s.02-.04.03-.07v-.04s-.07-.04-.07-.04l-.32.04-.04.04-.02.1c-.07-.11-.2-.18-.36-.18-.66,0-1.42.97-1.42,1.82,0,.39.2.62.53.62.31,0,.51-.14.85-.61-.05.19-.05.24-.05.34,0,.17.08.26.24.26.22,0,.35-.12.7-.59l.03-.03-.12-.12-.03.04ZM110.99,52.66c-.2,0-.23-.23-.23-.33,0-.27.18-.79.38-1.12.18-.28.39-.44.56-.43.13,0,.22.11.22.26,0,.42-.24,1.02-.56,1.4-.11.13-.25.21-.37.21Z"/>
        <path class="st16" d="M113.92,49.32c-.29.07-.46.11-.74.14h-.04v.18h.13c.13,0,.19.04.19.07,0,.01,0,.04-.02.09l-.67,2.73c-.01.05-.02.1-.02.15,0,.29.17.34.28.34.27,0,.44-.15.77-.67l.02-.04-.14-.1-.03.04c-.3.42-.34.45-.41.45,0,0-.02,0-.02-.05,0-.04.02-.12.04-.19,0-.01,0-.02,0-.02h0v-.03l.73-3v-.02s-.04-.08-.04-.08h-.04Z"/>
        <path class="st16" d="M114.91,52.29c-.12.17-.15.21-.19.26-.1.1-.15.13-.16.13,0,0-.03-.01-.03-.03,0-.05.02-.14.04-.22v-.02s.03-.06.03-.09l.44-1.7-.06-.04h-.02c-.47.1-.57.12-.76.13h-.05v.18h.05c.07,0,.22,0,.24.03,0,0,0,.01,0,.04,0,.04-.02.11-.04.19l-.24.94c-.08.3-.11.47-.11.58,0,.31.18.34.26.34.24,0,.43-.17.71-.61l.02-.03-.13-.13-.03.05Z"/>
        <path class="st16" d="M114.93,49.47c-.16,0-.28.14-.28.33s.11.31.27.31.29-.14.29-.31c0-.18-.13-.34-.28-.34Z"/>
        <path class="st16" d="M118.37,50.58c-.14,0-.24.1-.24.24,0,.11.06.17.16.24.08.05.1.09.1.13,0,.18-.15.54-.51,1.19l-.07-.46c-.04-.26-.3-1.35-.45-1.35h-.05s0,0-.02,0h0s-.12.02-.26.05l-.2.04s-.03,0-.06,0c-.03,0-.06.01-.09.02h-.04s0-.06,0-.06h-.37l.12-.47s0-.04,0-.05c0-.07-.04-.1-.08-.1h-.02s-.07.03-.1.07c-.18.25-.46.51-.61.55-.1.04-.18.08-.18.18v.08h.34l-.34,1.36c-.11.47-.11.49-.11.5,0,.14.12.24.27.24.24,0,.41-.15.72-.65l.03-.04-.14-.08-.03.04c-.17.25-.29.39-.35.39-.02,0-.02-.04-.02-.04,0,0,0,0,0-.01l.42-1.7h.41l.02-.17v.16l.06-.02c.06-.01.09-.02.14-.02.15,0,.24.05.33.33.13.4.36,1.47.36,1.67,0,.07-.03.13-.09.23-.18.27-.27.37-.3.4-.1.12-.14.14-.18.14-.01,0-.04-.01-.07-.04-.08-.07-.14-.1-.21-.1-.13,0-.24.11-.24.25,0,.16.12.27.29.27.39,0,1.05-.95,1.5-1.83.33-.64.47-1.02.47-1.28,0-.18-.14-.34-.31-.34Z"/>
        <path class="st16" d="M121.33,50.01c.07-.28.09-.3.35-.35h.04s0-.18,0-.18h-1.26v.17h.04c.28.05.29.08.29.19,0,.07-.01.16-.05.3l-.57,2.29c-.08.28-.09.3-.34.35h-.04v.18h1.26v-.17s-.05,0-.05,0c-.28-.04-.28-.07-.28-.17,0-.1,0-.14.05-.31l.56-2.29Z"/>
        <path class="st16" d="M122.96,50.6c-.03.06-.05.07-.1.07-.03,0-.07,0-.15-.03-.12-.04-.19-.05-.29-.05-.37,0-.62.25-.62.62,0,.18.1.41.3.7.17.24.25.42.25.56,0,.21-.12.35-.31.35-.16,0-.34-.08-.43-.66v-.04h-.17l-.12.92h.16v-.03c.05-.08.07-.08.08-.08.05,0,.14.02.22.04.11.03.19.05.28.05.43,0,.74-.31.74-.73,0-.21-.1-.44-.33-.75-.17-.23-.24-.38-.24-.51,0-.14.08-.23.22-.23s.33.06.39.55v.04h.17l.12-.82h-.16v.03Z"/>
        <path class="st16" d="M126.62,49.41c-.41,0-.85.21-1.24.6-.48.48-.76,1.11-.76,1.73,0,.76.46,1.31,1.1,1.31,1.01,0,1.97-1.09,2.02-2.29.02-.4-.11-.76-.35-1.02-.2-.21-.48-.33-.77-.33ZM125.8,52.78c-.37,0-.57-.3-.57-.84,0-.48.22-1.23.5-1.67.25-.4.53-.59.86-.59.35,0,.57.29.57.75,0,.55-.21,1.28-.51,1.76-.25.4-.52.59-.84.59Z"/>
        <path class="st16" d="M129.9,52.27c-.23.31-.3.39-.35.39,0,0,0,0,0-.03,0-.02,0-.03.1-.4l.4-1.61h-.45v.03c-.29.81-.32.88-.54,1.25-.38.66-.57.73-.63.73-.01,0-.02,0-.03-.01-.01-.01-.02-.04-.02-.06v-.04s.45-1.88.45-1.88v-.03s-.05-.04-.05-.04h-.02c-.24.07-.42.11-.71.14h-.04v.17h.05q.18,0,.21.02s.02.03.02.06c0,.03-.02.14-.07.34l-.18.73c-.09.38-.13.55-.13.65,0,.27.16.33.3.33.32,0,.55-.22,1-.98-.09.36-.13.59-.13.68,0,.18.1.29.28.29.25,0,.38-.13.7-.63l.03-.04-.15-.1-.03.04Z"/>
        <path class="st16" d="M131.86,50.58c-.12,0-.27.09-.4.24-.12.13-.24.3-.34.46l.15-.66-.06-.04h-.06c-.31.07-.37.08-.7.14h-.04v.2l.1-.02c.07-.01.08-.02.11-.02.11,0,.11.07.11.09,0,.06-.04.26-.07.42l-.41,1.57h.46v-.04c.26-.88.34-1.09.56-1.49.24-.42.33-.42.33-.42,0,0,.01,0,.03.04.05.1.1.14.21.14.17,0,.27-.11.27-.3s-.11-.31-.27-.31Z"/>
        <path class="st16" d="M134.94,49.48h-1.22v.17h.04c.29.04.3.09.3.18,0,.07,0,.12-.08.4l-.54,2.2c-.08.3-.09.31-.34.35h-.04v.18h1.27v-.17s-.05,0-.05,0c-.28-.04-.28-.05-.28-.2,0-.05,0-.07.05-.24l.24-.99c.1.02.22.03.39.03.41,0,.73-.09.94-.26.25-.2.39-.49.39-.81,0-.54-.38-.83-1.06-.83ZM134.65,49.84c.02-.08.05-.11.17-.11.18,0,.34.04.43.11.11.09.16.23.16.47,0,.32-.09.53-.29.65-.14.09-.32.13-.6.13-.07,0-.1,0-.19-.02l.31-1.23Z"/>
        <path class="st16" d="M137.7,50.58c-.12,0-.27.09-.4.24-.12.13-.24.3-.34.46l.15-.66-.06-.04h-.06c-.31.07-.37.08-.7.14h-.04v.2l.1-.02c.07-.01.08-.02.11-.02.11,0,.11.07.11.09,0,.06-.04.26-.07.42l-.41,1.57h.46v-.04c.26-.88.34-1.09.56-1.49.24-.42.33-.42.33-.42,0,0,.01,0,.03.04.05.1.1.14.21.14.17,0,.27-.11.27-.3s-.11-.31-.27-.31Z"/>
        <path class="st16" d="M138.85,49.47c-.16,0-.28.14-.28.33s.11.31.27.31.29-.14.29-.31c0-.18-.13-.34-.28-.34Z"/>
        <path class="st16" d="M138.82,52.29c-.12.17-.15.21-.19.26-.1.1-.15.13-.16.13,0,0-.03-.01-.03-.03,0-.05.02-.14.04-.22v-.02s.03-.06.03-.09l.44-1.7-.06-.04h-.02c-.47.1-.57.12-.76.13h-.05v.18h.05c.07,0,.22,0,.24.03,0,0,0,.01,0,.04,0,.04-.02.11-.04.19l-.24.94c-.08.3-.11.47-.11.58,0,.31.18.34.26.34.24,0,.43-.17.71-.61l.02-.03-.13-.13-.03.05Z"/>
        <path class="st16" d="M140.59,50.58c-.21,0-.4.06-.61.18-.51.31-.86.92-.86,1.49,0,.47.28.77.74.77.33,0,.64-.16.93-.47.32-.35.52-.81.52-1.2,0-.46-.29-.77-.72-.77ZM139.93,52.81c-.19,0-.32-.16-.32-.41,0-.37.14-.83.37-1.19h0c.18-.28.36-.43.55-.43.17,0,.28.16.28.43,0,.37-.16.88-.37,1.21-.16.26-.33.38-.52.38Z"/>
        <path class="st16" d="M143.18,50.58c-.12,0-.27.09-.4.24-.12.13-.24.3-.34.46l.15-.66-.06-.04h-.06c-.31.07-.37.08-.7.14h-.04v.2l.1-.02c.07-.01.08-.02.11-.02.11,0,.11.07.11.09,0,.06-.04.26-.07.42l-.41,1.57h.46v-.04c.26-.88.34-1.09.56-1.49.24-.42.33-.42.33-.42,0,0,.01,0,.03.04.05.1.1.14.21.14.17,0,.27-.11.27-.3s-.11-.31-.27-.31Z"/>
        <path class="st16" d="M144.32,49.47c-.16,0-.28.14-.28.33s.11.31.27.31.29-.14.29-.31c0-.18-.13-.34-.28-.34Z"/>
        <path class="st16" d="M144.3,52.29c-.12.17-.15.21-.19.26-.1.1-.15.13-.16.13,0,0-.03-.01-.03-.03,0-.05.02-.14.04-.22v-.02s.03-.06.03-.09l.44-1.7-.06-.04h-.02c-.47.1-.57.12-.76.13h-.05v.18h.05c.07,0,.22,0,.24.03,0,0,0,.01,0,.04,0,.04-.02.11-.04.19l-.24.94c-.08.3-.11.47-.11.58,0,.31.18.34.26.34.24,0,.43-.17.71-.61l.02-.03-.13-.13-.03.05Z"/>
        <path class="st16" d="M147.76,50.58c-.14,0-.24.1-.24.24,0,.11.06.17.16.24.08.05.1.09.1.13,0,.18-.15.54-.51,1.19l-.07-.46c-.04-.26-.3-1.35-.45-1.35h-.05s0,0-.02,0h0s-.12.02-.26.05l-.2.04s-.03,0-.06,0c-.03,0-.06.01-.09.02h-.04s0-.06,0-.06h-.37l.12-.47s0-.04,0-.05c0-.07-.04-.1-.08-.1h-.02s-.07.03-.1.07c-.18.25-.46.51-.61.55-.1.04-.18.08-.18.18v.08h.34l-.34,1.36c-.11.47-.11.49-.11.5,0,.14.12.24.27.24.24,0,.41-.15.72-.65l.03-.04-.14-.08-.03.04c-.17.25-.29.39-.35.39-.02,0-.02-.04-.02-.04,0,0,0,0,0-.01l.42-1.7h.41l.02-.17v.16l.06-.02c.06-.01.09-.02.14-.02.15,0,.24.05.33.33.13.4.36,1.47.36,1.67,0,.07-.03.13-.09.23-.18.27-.27.37-.3.4-.1.12-.14.14-.18.14-.01,0-.04-.01-.07-.04-.08-.07-.14-.1-.21-.1-.13,0-.24.11-.24.25,0,.16.12.27.29.27.39,0,1.05-.95,1.5-1.83.33-.64.47-1.02.47-1.28,0-.18-.14-.34-.31-.34Z"/>
      </g>
      <line class="st17" x1="101.62" y1="48.31" x2="148.07" y2="48.31"/>
    </g>
  </g>
</svg>